<svg width="800" height="800" viewBox="0 0 800 800" fill="none" xmlns="http://www.w3.org/2000/svg">
<path d="M328.888 720.576V734.464C328.888 734.805 329.08 734.976 329.464 734.976H332.664C340.259 734.976 344.056 732.267 344.056 726.848C344.056 722.027 340.536 719.616 333.496 719.616C332.216 719.616 330.872 719.723 329.464 719.936C329.08 720.021 328.888 720.235 328.888 720.576ZM323.704 760C322.723 760 321.869 759.637 321.144 758.912C320.419 758.187 320.056 757.333 320.056 756.352V717.248C320.056 716.224 320.397 715.307 321.08 714.496C321.763 713.685 322.616 713.237 323.64 713.152C327.267 712.811 330.765 712.64 334.136 712.64C340.408 712.64 345.101 713.813 348.216 716.16C351.331 718.464 352.888 721.728 352.888 725.952C352.888 728.981 352.056 731.648 350.392 733.952C348.771 736.256 346.573 737.877 343.8 738.816C343.757 738.816 343.736 738.837 343.736 738.88C343.736 738.965 343.757 739.008 343.8 739.008C345.848 740.288 347.597 742.805 349.048 746.56L352.888 756.608C353.187 757.419 353.08 758.187 352.568 758.912C352.099 759.637 351.437 760 350.584 760H348.6C347.491 760 346.488 759.701 345.592 759.104C344.696 758.464 344.056 757.632 343.672 756.608L340.088 746.752C339.32 744.704 338.445 743.36 337.464 742.72C336.483 742.08 334.797 741.76 332.408 741.76H329.464C329.08 741.76 328.888 741.952 328.888 742.336V756.352C328.888 757.333 328.525 758.187 327.8 758.912C327.117 759.637 326.285 760 325.304 760H323.704ZM390.586 736.64C390.586 725.547 386.532 720 378.426 720C370.319 720 366.266 725.547 366.266 736.64C366.266 747.733 370.319 753.28 378.426 753.28C386.532 753.28 390.586 747.733 390.586 736.64ZM393.978 754.304C390.18 758.528 384.996 760.64 378.426 760.64C371.855 760.64 366.65 758.528 362.81 754.304C359.012 750.08 357.114 744.192 357.114 736.64C357.114 729.088 359.012 723.2 362.81 718.976C366.65 714.752 371.855 712.64 378.426 712.64C384.996 712.64 390.18 714.752 393.978 718.976C397.818 723.2 399.738 729.088 399.738 736.64C399.738 744.192 397.818 750.08 393.978 754.304ZM421.12 721.216L415.488 741.312C415.445 741.44 415.467 741.568 415.552 741.696C415.637 741.824 415.744 741.888 415.872 741.888H426.496C426.624 741.888 426.731 741.824 426.816 741.696C426.901 741.568 426.923 741.44 426.88 741.312L421.248 721.216C421.248 721.173 421.227 721.152 421.184 721.152C421.141 721.152 421.12 721.173 421.12 721.216ZM404.544 760C403.648 760 402.944 759.637 402.432 758.912C401.92 758.187 401.813 757.397 402.112 756.544L415.36 716.736C415.744 715.712 416.363 714.88 417.216 714.24C418.112 713.6 419.093 713.28 420.16 713.28H422.464C423.573 713.28 424.555 713.6 425.408 714.24C426.304 714.88 426.923 715.712 427.264 716.736L440.512 756.544C440.811 757.397 440.704 758.187 440.192 758.912C439.68 759.637 438.976 760 438.08 760H435.776C434.752 760 433.792 759.68 432.896 759.04C432.043 758.357 431.467 757.504 431.168 756.48L429.12 749.248C429.077 748.907 428.843 748.736 428.416 748.736H413.952C413.568 748.736 413.333 748.907 413.248 749.248L411.2 756.48C410.944 757.504 410.368 758.357 409.472 759.04C408.619 759.68 407.659 760 406.592 760H404.544ZM455.765 720.704V752.576C455.765 752.875 455.935 753.067 456.277 753.152C457.642 753.365 458.922 753.472 460.117 753.472C465.109 753.472 468.778 752.128 471.125 749.44C473.471 746.709 474.645 742.229 474.645 736C474.645 730.411 473.45 726.315 471.061 723.712C468.671 721.109 465.023 719.808 460.117 719.808C458.922 719.808 457.642 719.915 456.277 720.128C455.935 720.213 455.765 720.405 455.765 720.704ZM450.517 760.192C449.45 760.064 448.575 759.616 447.893 758.848C447.21 758.037 446.869 757.099 446.869 756.032V717.248C446.869 716.181 447.21 715.264 447.893 714.496C448.575 713.685 449.45 713.216 450.517 713.088C453.247 712.789 456.298 712.64 459.669 712.64C467.263 712.64 473.066 714.624 477.076 718.592C481.13 722.56 483.157 728.363 483.157 736C483.157 744.192 481.13 750.357 477.076 754.496C473.066 758.592 467.263 760.64 459.669 760.64C456.298 760.64 453.247 760.491 450.517 760.192Z" fill="black"/>
<path d="M329.464 719.936L329.314 718.947L329.28 718.952L329.247 718.96L329.464 719.936ZM321.144 758.912L320.437 759.619L320.437 759.619L321.144 758.912ZM323.64 713.152L323.723 714.149L323.734 714.148L323.64 713.152ZM348.216 716.16L347.614 716.959L347.621 716.964L348.216 716.16ZM350.392 733.952L349.581 733.366L349.574 733.377L350.392 733.952ZM343.8 738.816V739.816H343.965L344.121 739.763L343.8 738.816ZM343.8 739.008L344.33 738.16L344.087 738.008H343.8V739.008ZM349.048 746.56L349.982 746.203L349.981 746.2L349.048 746.56ZM352.888 756.608L353.826 756.262L353.822 756.251L352.888 756.608ZM352.568 758.912L351.751 758.335L351.739 758.352L351.728 758.369L352.568 758.912ZM345.592 759.104L345.011 759.918L345.024 759.927L345.037 759.936L345.592 759.104ZM343.672 756.608L342.732 756.95L342.736 756.959L343.672 756.608ZM340.088 746.752L341.028 746.41L341.024 746.401L340.088 746.752ZM337.464 742.72L336.918 743.558L336.918 743.558L337.464 742.72ZM327.8 758.912L327.093 758.205L327.082 758.216L327.072 758.227L327.8 758.912ZM327.888 720.576V734.464H329.888V720.576H327.888ZM327.888 734.464C327.888 734.821 327.994 735.263 328.368 735.595C328.719 735.908 329.145 735.976 329.464 735.976V733.976C329.399 733.976 329.537 733.959 329.696 734.101C329.878 734.262 329.888 734.448 329.888 734.464H327.888ZM329.464 735.976H332.664V733.976H329.464V735.976ZM332.664 735.976C336.55 735.976 339.644 735.288 341.789 733.758C343.996 732.183 345.056 729.821 345.056 726.848H343.056C343.056 729.294 342.218 730.995 340.627 732.13C338.975 733.309 336.373 733.976 332.664 733.976V735.976ZM345.056 726.848C345.056 724.157 344.052 722.017 341.981 720.599C339.978 719.227 337.099 718.616 333.496 718.616V720.616C336.933 720.616 339.334 721.21 340.851 722.249C342.3 723.241 343.056 724.717 343.056 726.848H345.056ZM333.496 718.616C332.161 718.616 330.766 718.727 329.314 718.947L329.614 720.925C330.978 720.718 332.271 720.616 333.496 720.616V718.616ZM329.247 718.96C328.926 719.031 328.567 719.182 328.289 719.491C327.997 719.815 327.888 720.208 327.888 720.576H329.888C329.888 720.584 329.887 720.62 329.869 720.671C329.85 720.725 329.819 720.781 329.775 720.829C329.689 720.925 329.618 720.926 329.681 720.912L329.247 718.96ZM323.704 759C323.001 759 322.398 758.752 321.851 758.205L320.437 759.619C321.34 760.523 322.444 761 323.704 761V759ZM321.851 758.205C321.304 757.658 321.056 757.055 321.056 756.352H319.056C319.056 757.612 319.533 758.716 320.437 759.619L321.851 758.205ZM321.056 756.352V717.248H319.056V756.352H321.056ZM321.056 717.248C321.056 716.469 321.308 715.777 321.845 715.14L320.315 713.852C319.486 714.836 319.056 715.979 319.056 717.248H321.056ZM321.845 715.14C322.362 714.526 322.973 714.211 323.723 714.149L323.557 712.155C322.259 712.264 321.163 712.845 320.315 713.852L321.845 715.14ZM323.734 714.148C327.332 713.809 330.799 713.64 334.136 713.64V711.64C330.732 711.64 327.202 711.812 323.546 712.156L323.734 714.148ZM334.136 713.64C340.313 713.64 344.75 714.801 347.614 716.959L348.818 715.361C345.452 712.826 340.503 711.64 334.136 711.64V713.64ZM347.621 716.964C350.455 719.06 351.888 722.012 351.888 725.952H353.888C353.888 721.444 352.206 717.868 348.811 715.356L347.621 716.964ZM351.888 725.952C351.888 728.786 351.114 731.244 349.581 733.367L351.203 734.537C352.998 732.052 353.888 729.177 353.888 725.952H351.888ZM349.574 733.377C348.08 735.5 346.06 736.995 343.479 737.869L344.121 739.763C347.086 738.759 349.461 737.012 351.21 734.527L349.574 733.377ZM343.8 737.816C343.625 737.816 343.309 737.861 343.045 738.125C342.781 738.389 342.736 738.705 342.736 738.88H344.736C344.736 739.013 344.702 739.296 344.459 739.539C344.216 739.782 343.933 739.816 343.8 739.816V737.816ZM342.736 738.88C342.736 738.974 342.742 739.193 342.858 739.423C342.922 739.553 343.034 739.71 343.217 739.832C343.407 739.959 343.614 740.008 343.8 740.008V738.008C343.964 738.008 344.153 738.052 344.327 738.168C344.494 738.28 344.592 738.421 344.646 738.529C344.74 738.716 344.736 738.872 344.736 738.88H342.736ZM343.27 739.856C345.048 740.967 346.695 743.245 348.115 746.92L349.981 746.2C348.499 742.366 346.648 739.609 344.33 738.16L343.27 739.856ZM348.114 746.917L351.954 756.965L353.822 756.251L349.982 746.203L348.114 746.917ZM351.95 756.954C352.131 757.446 352.08 757.87 351.751 758.335L353.385 759.489C354.08 758.503 354.242 757.392 353.826 756.262L351.95 756.954ZM351.728 758.369C351.441 758.814 351.093 759 350.584 759V761C351.782 761 352.757 760.461 353.408 759.455L351.728 758.369ZM350.584 759H348.6V761H350.584V759ZM348.6 759C347.682 759 346.873 758.756 346.147 758.272L345.037 759.936C346.103 760.646 347.3 761 348.6 761V759ZM346.173 758.29C345.438 757.765 344.922 757.093 344.608 756.257L342.736 756.959C343.19 758.171 343.954 759.163 345.011 759.918L346.173 758.29ZM344.612 756.266L341.028 746.41L339.148 747.094L342.732 756.95L344.612 756.266ZM341.024 746.401C340.237 744.303 339.269 742.703 338.01 741.882L336.918 743.558C337.622 744.017 338.403 745.105 339.152 747.103L341.024 746.401ZM338.01 741.882C336.769 741.073 334.827 740.76 332.408 740.76V742.76C334.768 742.76 336.197 743.087 336.918 743.558L338.01 741.882ZM332.408 740.76H329.464V742.76H332.408V740.76ZM329.464 740.76C329.118 740.76 328.675 740.847 328.325 741.197C327.975 741.547 327.888 741.99 327.888 742.336H329.888C329.888 742.298 329.897 742.453 329.739 742.611C329.581 742.769 329.426 742.76 329.464 742.76V740.76ZM327.888 742.336V756.352H329.888V742.336H327.888ZM327.888 756.352C327.888 757.055 327.64 757.658 327.093 758.205L328.507 759.619C329.411 758.716 329.888 757.612 329.888 756.352H327.888ZM327.072 758.227C326.575 758.755 326.005 759 325.304 759V761C326.566 761 327.66 760.52 328.528 759.597L327.072 758.227ZM325.304 759H323.704V761H325.304V759ZM393.978 754.304L393.238 753.631L393.234 753.635L393.978 754.304ZM362.81 754.304L362.066 754.973L362.07 754.977L362.81 754.304ZM362.81 718.976L362.07 718.303L362.066 718.307L362.81 718.976ZM393.978 718.976L393.234 719.645L393.238 719.649L393.978 718.976ZM391.586 736.64C391.586 731.001 390.561 726.591 388.353 723.57C386.102 720.49 382.733 719 378.426 719V721C382.225 721 384.935 722.283 386.738 724.75C388.584 727.276 389.586 731.186 389.586 736.64H391.586ZM378.426 719C374.118 719 370.749 720.49 368.498 723.57C366.29 726.591 365.266 731.001 365.266 736.64H367.266C367.266 731.186 368.267 727.276 370.113 724.75C371.916 722.283 374.626 721 378.426 721V719ZM365.266 736.64C365.266 742.279 366.29 746.689 368.498 749.71C370.749 752.79 374.118 754.28 378.426 754.28V752.28C374.626 752.28 371.916 750.997 370.113 748.53C368.267 746.004 367.266 742.094 367.266 736.64H365.266ZM378.426 754.28C382.733 754.28 386.102 752.79 388.353 749.71C390.561 746.689 391.586 742.279 391.586 736.64H389.586C389.586 742.094 388.584 746.004 386.738 748.53C384.935 750.997 382.225 752.28 378.426 752.28V754.28ZM393.234 753.635C389.657 757.615 384.761 759.64 378.426 759.64V761.64C385.231 761.64 390.704 759.441 394.721 754.973L393.234 753.635ZM378.426 759.64C372.09 759.64 367.171 757.615 363.549 753.631L362.07 754.977C366.128 759.441 371.62 761.64 378.426 761.64V759.64ZM363.553 753.635C359.969 749.648 358.114 744.028 358.114 736.64H356.114C356.114 744.356 358.055 750.512 362.066 754.973L363.553 753.635ZM358.114 736.64C358.114 729.252 359.969 723.632 363.553 719.645L362.066 718.307C358.055 722.768 356.114 728.924 356.114 736.64H358.114ZM363.549 719.649C367.171 715.665 372.09 713.64 378.426 713.64V711.64C371.62 711.64 366.128 713.839 362.07 718.303L363.549 719.649ZM378.426 713.64C384.761 713.64 389.657 715.665 393.234 719.645L394.721 718.307C390.704 713.839 385.231 711.64 378.426 711.64V713.64ZM393.238 719.649C396.862 723.636 398.738 729.255 398.738 736.64H400.738C400.738 728.921 398.773 722.764 394.717 718.303L393.238 719.649ZM398.738 736.64C398.738 744.025 396.862 749.644 393.238 753.631L394.717 754.977C398.773 750.516 400.738 744.359 400.738 736.64H398.738ZM421.12 721.216L422.083 721.486L422.12 721.353V721.216H421.12ZM415.488 741.312L416.437 741.628L416.444 741.605L416.451 741.582L415.488 741.312ZM415.552 741.696L416.384 741.141L416.384 741.141L415.552 741.696ZM426.88 741.312L425.917 741.582L425.924 741.605L425.931 741.628L426.88 741.312ZM421.248 721.216H420.248V721.353L420.285 721.486L421.248 721.216ZM402.432 758.912L403.249 758.335L403.249 758.335L402.432 758.912ZM402.112 756.544L403.056 756.874L403.058 756.867L403.061 756.86L402.112 756.544ZM415.36 716.736L414.424 716.385L414.417 716.402L414.411 716.42L415.36 716.736ZM417.216 714.24L416.635 713.426L416.625 713.433L416.616 713.44L417.216 714.24ZM425.408 714.24L424.808 715.04L424.817 715.047L424.827 715.054L425.408 714.24ZM427.264 716.736L428.213 716.42L428.213 716.42L427.264 716.736ZM440.512 756.544L439.563 756.86L439.566 756.867L439.568 756.874L440.512 756.544ZM440.192 758.912L439.375 758.335L439.375 758.335L440.192 758.912ZM432.896 759.04L432.271 759.821L432.293 759.838L432.315 759.854L432.896 759.04ZM431.168 756.48L430.206 756.752L430.208 756.76L431.168 756.48ZM429.12 749.248L428.128 749.372L428.137 749.447L428.158 749.52L429.12 749.248ZM413.248 749.248L414.21 749.52L414.214 749.506L414.218 749.491L413.248 749.248ZM411.2 756.48L410.238 756.208L410.234 756.222L410.23 756.237L411.2 756.48ZM409.472 759.04L410.072 759.84L410.078 759.835L409.472 759.04ZM420.157 720.946L414.525 741.042L416.451 741.582L422.083 721.486L420.157 720.946ZM414.539 740.996C414.385 741.46 414.491 741.907 414.72 742.251L416.384 741.141C416.405 741.173 416.442 741.241 416.458 741.34C416.476 741.443 416.465 741.544 416.437 741.628L414.539 740.996ZM414.72 742.251C414.948 742.592 415.339 742.888 415.872 742.888V740.888C415.984 740.888 416.104 740.918 416.21 740.983C416.311 741.043 416.364 741.111 416.384 741.141L414.72 742.251ZM415.872 742.888H426.496V740.888H415.872V742.888ZM426.496 742.888C427.029 742.888 427.42 742.592 427.648 742.251L425.984 741.141C426.004 741.111 426.057 741.043 426.158 740.983C426.264 740.918 426.384 740.888 426.496 740.888V742.888ZM427.648 742.251C427.877 741.907 427.983 741.46 427.829 740.996L425.931 741.628C425.903 741.544 425.892 741.443 425.91 741.34C425.926 741.241 425.963 741.173 425.984 741.141L427.648 742.251ZM427.843 741.042L422.211 720.946L420.285 721.486L425.917 741.582L427.843 741.042ZM422.248 721.216C422.248 721.041 422.203 720.725 421.939 720.461C421.675 720.197 421.359 720.152 421.184 720.152V722.152C421.051 722.152 420.768 722.118 420.525 721.875C420.282 721.632 420.248 721.349 420.248 721.216H422.248ZM421.184 720.152C421.009 720.152 420.693 720.197 420.429 720.461C420.165 720.725 420.12 721.041 420.12 721.216H422.12C422.12 721.349 422.086 721.632 421.843 721.875C421.6 722.118 421.317 722.152 421.184 722.152V720.152ZM404.544 759C403.969 759 403.572 758.792 403.249 758.335L401.615 759.489C402.316 760.482 403.327 761 404.544 761V759ZM403.249 758.335C402.927 757.88 402.862 757.429 403.056 756.874L401.168 756.214C400.765 757.365 400.913 758.494 401.615 759.489L403.249 758.335ZM403.061 756.86L416.309 717.052L414.411 716.42L401.163 756.228L403.061 756.86ZM416.296 717.087C416.615 716.237 417.119 715.563 417.816 715.04L416.616 713.44C415.606 714.197 414.873 715.187 414.424 716.385L416.296 717.087ZM417.797 715.054C418.529 714.531 419.309 714.28 420.16 714.28V712.28C418.878 712.28 417.695 712.669 416.635 713.426L417.797 715.054ZM420.16 714.28H422.464V712.28H420.16V714.28ZM422.464 714.28C423.366 714.28 424.135 714.535 424.808 715.04L426.008 713.44C424.974 712.665 423.78 712.28 422.464 712.28V714.28ZM424.827 715.054C425.554 715.574 426.042 716.233 426.315 717.052L428.213 716.42C427.803 715.191 427.054 714.186 425.989 713.426L424.827 715.054ZM426.315 717.052L439.563 756.86L441.461 756.228L428.213 716.42L426.315 717.052ZM439.568 756.874C439.762 757.429 439.697 757.88 439.375 758.335L441.009 759.489C441.711 758.494 441.859 757.365 441.456 756.214L439.568 756.874ZM439.375 758.335C439.052 758.792 438.655 759 438.08 759V761C439.297 761 440.308 760.482 441.009 759.489L439.375 758.335ZM438.08 759H435.776V761H438.08V759ZM435.776 759C434.976 759 434.217 758.755 433.477 758.226L432.315 759.854C433.367 760.605 434.528 761 435.776 761V759ZM433.521 758.259C432.824 757.702 432.368 757.021 432.128 756.2L430.208 756.76C430.566 757.987 431.262 759.013 432.271 759.821L433.521 758.259ZM432.13 756.208L430.082 748.976L428.158 749.52L430.206 756.752L432.13 756.208ZM430.112 749.124C430.064 748.734 429.882 748.333 429.5 748.055C429.149 747.8 428.746 747.736 428.416 747.736V749.736C428.513 749.736 428.441 749.758 428.324 749.673C428.261 749.627 428.209 749.567 428.173 749.5C428.138 749.437 428.13 749.388 428.128 749.372L430.112 749.124ZM428.416 747.736H413.952V749.736H428.416V747.736ZM413.952 747.736C413.616 747.736 413.236 747.811 412.9 748.055C412.555 748.306 412.365 748.657 412.278 749.005L414.218 749.491C414.218 749.491 414.217 749.497 414.212 749.508C414.207 749.519 414.2 749.535 414.188 749.554C414.163 749.594 414.125 749.637 414.076 749.673C413.975 749.746 413.904 749.736 413.952 749.736V747.736ZM412.286 748.976L410.238 756.208L412.162 756.752L414.21 749.52L412.286 748.976ZM410.23 756.237C410.033 757.026 409.594 757.69 408.866 758.245L410.078 759.835C411.142 759.025 411.855 757.982 412.17 756.723L410.23 756.237ZM408.872 758.24C408.192 758.75 407.442 759 406.592 759V761C407.875 761 409.046 760.61 410.072 759.84L408.872 758.24ZM406.592 759H404.544V761H406.592V759ZM456.277 753.152L456.034 754.122L456.078 754.133L456.122 754.14L456.277 753.152ZM471.125 749.44L471.878 750.098L471.883 750.092L471.125 749.44ZM456.277 720.128L456.122 719.14L456.078 719.147L456.034 719.158L456.277 720.128ZM450.517 760.192L450.397 761.185L450.408 761.186L450.517 760.192ZM447.893 758.848L447.128 759.492L447.136 759.502L447.145 759.512L447.893 758.848ZM447.893 714.496L448.64 715.16L448.649 715.15L448.657 715.14L447.893 714.496ZM450.517 713.088L450.408 712.094L450.397 712.095L450.517 713.088ZM477.076 718.592L476.373 719.303L476.377 719.307L477.076 718.592ZM477.076 754.496L476.362 753.796L476.362 753.796L477.076 754.496ZM454.765 720.704V752.576H456.765V720.704H454.765ZM454.765 752.576C454.765 752.928 454.871 753.3 455.145 753.608C455.405 753.901 455.738 754.048 456.034 754.122L456.519 752.182C456.473 752.17 456.55 752.179 456.64 752.28C456.685 752.331 456.72 752.39 456.741 752.451C456.761 752.51 456.765 752.555 456.765 752.576H454.765ZM456.122 754.14C457.531 754.36 458.863 754.472 460.117 754.472V752.472C458.981 752.472 457.753 752.371 456.431 752.164L456.122 754.14ZM460.117 754.472C465.278 754.472 469.275 753.079 471.878 750.098L470.371 748.782C468.281 751.177 464.939 752.472 460.117 752.472V754.472ZM471.883 750.092C474.465 747.088 475.645 742.31 475.645 736H473.645C473.645 742.149 472.478 746.331 470.366 748.788L471.883 750.092ZM475.645 736C475.645 730.299 474.431 725.905 471.797 723.036L470.324 724.388C472.469 726.725 473.645 730.522 473.645 736H475.645ZM471.797 723.036C469.154 720.156 465.191 718.808 460.117 718.808V720.808C464.855 720.808 468.188 722.062 470.324 724.388L471.797 723.036ZM460.117 718.808C458.863 718.808 457.531 718.92 456.122 719.14L456.431 721.116C457.753 720.909 458.981 720.808 460.117 720.808V718.808ZM456.034 719.158C455.738 719.232 455.405 719.379 455.145 719.672C454.871 719.98 454.765 720.352 454.765 720.704H456.765C456.765 720.725 456.761 720.77 456.741 720.829C456.72 720.89 456.685 720.949 456.64 721C456.55 721.101 456.473 721.11 456.519 721.098L456.034 719.158ZM450.636 759.199C449.799 759.099 449.152 758.76 448.64 758.184L447.145 759.512C447.998 760.472 449.1 761.029 450.397 761.185L450.636 759.199ZM448.657 758.204C448.128 757.575 447.869 756.865 447.869 756.032H445.869C445.869 757.333 446.292 758.5 447.128 759.492L448.657 758.204ZM447.869 756.032V717.248H445.869V756.032H447.869ZM447.869 717.248C447.869 716.416 448.127 715.738 448.64 715.16L447.145 713.832C446.293 714.79 445.869 715.947 445.869 717.248H447.869ZM448.657 715.14C449.174 714.526 449.817 714.179 450.636 714.081L450.397 712.095C449.083 712.253 447.976 712.844 447.128 713.852L448.657 715.14ZM450.625 714.082C453.313 713.788 456.326 713.64 459.669 713.64V711.64C456.269 711.64 453.182 711.791 450.408 712.094L450.625 714.082ZM459.669 713.64C467.094 713.64 472.607 715.577 476.373 719.303L477.78 717.881C473.524 713.671 467.433 711.64 459.669 711.64V713.64ZM476.377 719.307C480.179 723.028 482.157 728.535 482.157 736H484.157C484.157 728.19 482.081 722.092 477.776 717.877L476.377 719.307ZM482.157 736C482.157 744.04 480.168 749.91 476.362 753.796L477.791 755.196C482.092 750.804 484.157 744.344 484.157 736H482.157ZM476.362 753.796C472.595 757.644 467.085 759.64 459.669 759.64V761.64C467.441 761.64 473.537 759.54 477.791 755.196L476.362 753.796ZM459.669 759.64C456.326 759.64 453.313 759.492 450.625 759.198L450.408 761.186C453.182 761.489 456.269 761.64 459.669 761.64V759.64Z" fill="black"/>
<path d="M438.187 174.375H362.812L347.109 230.906L331.406 287.438L300 400.5L268.594 513.562L252.891 570.094L237.188 626.625H563.812L544.969 558.787L501 400.5L469.594 287.438L453.891 230.906L438.187 174.375Z" fill="#FF6A00"/>
<path d="M563.812 626.625H237.188M563.812 626.625H174.375H237.188M563.812 626.625H626.625M563.812 626.625L544.969 558.787L501 400.5L469.594 287.438L453.891 230.906L438.188 174.375H362.812L347.109 230.906L331.406 287.438L300 400.5L268.594 513.562L252.891 570.094L237.188 626.625" stroke="black" stroke-width="66.6667" stroke-linecap="round" stroke-linejoin="round"/>
<path d="M268.594 513.562H532.406" stroke="white" stroke-width="43" stroke-linecap="round" stroke-linejoin="round"/>
<path d="M501 400.5H300" stroke="white" stroke-width="51" stroke-linecap="round" stroke-linejoin="round"/>
<path d="M469.594 287.438H331.406" stroke="white" stroke-width="47" stroke-linecap="round" stroke-linejoin="round"/>
<path d="M453.891 230.906L544.969 558.788" stroke="black" stroke-width="66.6667" stroke-linecap="round" stroke-linejoin="round"/>
<path d="M252.891 570.094L347.109 230.906" stroke="black" stroke-width="66.6667" stroke-linecap="round" stroke-linejoin="round"/>
</svg>
