<svg width="800" height="800" viewBox="0 0 800 800" fill="none" xmlns="http://www.w3.org/2000/svg">
<path d="M554.5 636.5H209.5C209.5 636.5 175 635.35 175 544.5H589C589 635.35 554.5 636.5 554.5 636.5Z" fill="#42A5F5"/>
<path d="M566 153.5H198V544.5H566V153.5Z" fill="#90CAF9"/>
<path d="M497 291.5H313V314.5H497V291.5Z" fill="#1976D2"/>
<path d="M497 337.5H313V360.5H497V337.5Z" fill="#1976D2"/>
<path d="M497 383.5H313V406.5H497V383.5Z" fill="#1976D2"/>
<path d="M497 429.5H313V452.5H497V429.5Z" fill="#1976D2"/>
<path d="M497 475.5H313V498.5H497V475.5Z" fill="#1976D2"/>
<path d="M290 291.5H267V314.5H290V291.5Z" fill="#1976D2"/>
<path d="M290 337.5H267V360.5H290V337.5Z" fill="#1976D2"/>
<path d="M290 383.5H267V406.5H290V383.5Z" fill="#1976D2"/>
<path d="M290 429.5H267V452.5H290V429.5Z" fill="#1976D2"/>
<path d="M290 475.5H267V498.5H290V475.5Z" fill="#1976D2"/>
<path d="M208.36 761.544L195.112 721.736C194.813 720.883 194.92 720.093 195.432 719.368C195.944 718.643 196.648 718.28 197.544 718.28H199.848C200.915 718.28 201.896 718.621 202.792 719.304C203.688 719.944 204.264 720.776 204.52 721.8L214.312 756.168C214.312 756.211 214.333 756.232 214.376 756.232C214.419 756.232 214.44 756.211 214.44 756.168L224.36 721.736C224.659 720.712 225.235 719.88 226.088 719.24C226.984 718.6 227.965 718.28 229.032 718.28H231.08C231.976 718.28 232.68 718.643 233.192 719.368C233.704 720.093 233.811 720.883 233.512 721.736L220.264 761.544C219.923 762.568 219.304 763.4 218.408 764.04C217.555 764.68 216.573 765 215.464 765H213.16C212.093 765 211.112 764.68 210.216 764.04C209.363 763.4 208.744 762.568 208.36 761.544ZM244.797 765C243.815 765 242.962 764.637 242.237 763.912C241.511 763.187 241.149 762.333 241.149 761.352V721.928C241.149 720.947 241.511 720.093 242.237 719.368C242.962 718.643 243.815 718.28 244.797 718.28H247.357C248.338 718.28 249.191 718.643 249.917 719.368C250.642 720.093 251.005 720.947 251.005 721.928V761.352C251.005 762.333 250.642 763.187 249.917 763.912C249.191 764.637 248.338 765 247.357 765H244.797ZM292.961 741.64C292.961 730.547 288.907 725 280.801 725C272.694 725 268.641 730.547 268.641 741.64C268.641 752.733 272.694 758.28 280.801 758.28C288.907 758.28 292.961 752.733 292.961 741.64ZM296.353 759.304C292.555 763.528 287.371 765.64 280.801 765.64C274.23 765.64 269.025 763.528 265.185 759.304C261.387 755.08 259.489 749.192 259.489 741.64C259.489 734.088 261.387 728.2 265.185 723.976C269.025 719.752 274.23 717.64 280.801 717.64C287.371 717.64 292.555 719.752 296.353 723.976C300.193 728.2 302.113 734.088 302.113 741.64C302.113 749.192 300.193 755.08 296.353 759.304ZM312.953 765C311.971 765 311.118 764.637 310.393 763.912C309.71 763.187 309.369 762.333 309.369 761.352V721.928C309.369 720.947 309.71 720.093 310.393 719.368C311.118 718.643 311.971 718.28 312.953 718.28H315.001C315.982 718.28 316.835 718.643 317.561 719.368C318.286 720.093 318.649 720.947 318.649 721.928V757C318.649 757.384 318.819 757.576 319.161 757.576H335.609C336.59 757.576 337.422 757.939 338.104 758.664C338.83 759.347 339.193 760.179 339.193 761.16V761.352C339.193 762.333 338.83 763.187 338.104 763.912C337.422 764.637 336.59 765 335.609 765H312.953ZM364.37 726.216L358.738 746.312C358.695 746.44 358.717 746.568 358.802 746.696C358.887 746.824 358.994 746.888 359.122 746.888H369.746C369.874 746.888 369.981 746.824 370.066 746.696C370.151 746.568 370.173 746.44 370.13 746.312L364.498 726.216C364.498 726.173 364.477 726.152 364.434 726.152C364.391 726.152 364.37 726.173 364.37 726.216ZM347.794 765C346.898 765 346.194 764.637 345.682 763.912C345.17 763.187 345.063 762.397 345.362 761.544L358.61 721.736C358.994 720.712 359.613 719.88 360.466 719.24C361.362 718.6 362.343 718.28 363.41 718.28H365.714C366.823 718.28 367.805 718.6 368.658 719.24C369.554 719.88 370.173 720.712 370.514 721.736L383.762 761.544C384.061 762.397 383.954 763.187 383.442 763.912C382.93 764.637 382.226 765 381.33 765H379.026C378.002 765 377.042 764.68 376.146 764.04C375.293 763.357 374.717 762.504 374.418 761.48L372.37 754.248C372.327 753.907 372.093 753.736 371.666 753.736H357.202C356.818 753.736 356.583 753.907 356.498 754.248L354.45 761.48C354.194 762.504 353.618 763.357 352.722 764.04C351.869 764.68 350.909 765 349.842 765H347.794ZM385.104 725.704C384.123 725.704 383.269 725.363 382.544 724.68C381.819 723.955 381.456 723.101 381.456 722.12V721.928C381.456 720.947 381.819 720.093 382.544 719.368C383.269 718.643 384.123 718.28 385.104 718.28H412.368C413.349 718.28 414.203 718.643 414.928 719.368C415.653 720.093 416.016 720.947 416.016 721.928V722.12C416.016 723.101 415.653 723.955 414.928 724.68C414.203 725.363 413.349 725.704 412.368 725.704H403.792C403.451 725.704 403.28 725.896 403.28 726.28V761.352C403.28 762.333 402.917 763.187 402.192 763.912C401.467 764.637 400.613 765 399.632 765H397.84C396.859 765 396.005 764.637 395.28 763.912C394.555 763.187 394.192 762.333 394.192 761.352V726.28C394.192 725.896 394.021 725.704 393.68 725.704H385.104ZM429.484 765C428.503 765 427.649 764.637 426.924 763.912C426.199 763.187 425.836 762.333 425.836 761.352V721.928C425.836 720.947 426.199 720.093 426.924 719.368C427.649 718.643 428.503 718.28 429.484 718.28H432.044C433.025 718.28 433.879 718.643 434.604 719.368C435.329 720.093 435.692 720.947 435.692 721.928V761.352C435.692 762.333 435.329 763.187 434.604 763.912C433.879 764.637 433.025 765 432.044 765H429.484ZM477.648 741.64C477.648 730.547 473.595 725 465.488 725C457.381 725 453.328 730.547 453.328 741.64C453.328 752.733 457.381 758.28 465.488 758.28C473.595 758.28 477.648 752.733 477.648 741.64ZM481.04 759.304C477.243 763.528 472.059 765.64 465.488 765.64C458.917 765.64 453.712 763.528 449.872 759.304C446.075 755.08 444.176 749.192 444.176 741.64C444.176 734.088 446.075 728.2 449.872 723.976C453.712 719.752 458.917 717.64 465.488 717.64C472.059 717.64 477.243 719.752 481.04 723.976C484.88 728.2 486.8 734.088 486.8 741.64C486.8 749.192 484.88 755.08 481.04 759.304ZM497.64 765C496.659 765 495.805 764.637 495.08 763.912C494.397 763.187 494.056 762.333 494.056 761.352V721.928C494.056 720.947 494.397 720.093 495.08 719.368C495.805 718.643 496.659 718.28 497.64 718.28H499.048C501.48 718.28 503.272 719.347 504.424 721.48L520.232 750.024C520.232 750.067 520.253 750.088 520.296 750.088C520.339 750.088 520.36 750.067 520.36 750.024V721.928C520.36 720.947 520.723 720.093 521.448 719.368C522.173 718.643 523.027 718.28 524.008 718.28H525.416C526.397 718.28 527.229 718.643 527.912 719.368C528.637 720.093 529 720.947 529 721.928V761.352C529 762.333 528.637 763.187 527.912 763.912C527.229 764.637 526.397 765 525.416 765H524.008C521.576 765 519.784 763.933 518.632 761.8L502.824 733.256C502.824 733.213 502.803 733.192 502.76 733.192C502.717 733.192 502.696 733.213 502.696 733.256V761.352C502.696 762.333 502.333 763.187 501.608 763.912C500.883 764.637 500.029 765 499.048 765H497.64ZM552.047 745.288C546.927 743.581 543.215 741.512 540.911 739.08C538.649 736.648 537.519 733.704 537.519 730.248C537.519 726.365 538.82 723.293 541.423 721.032C544.025 718.771 547.673 717.64 552.367 717.64C556.335 717.64 559.791 718.088 562.735 718.984C563.759 719.283 564.569 719.901 565.167 720.84C565.807 721.736 566.127 722.739 566.127 723.848V724.424C566.127 725.235 565.764 725.875 565.039 726.344C564.313 726.771 563.567 726.835 562.799 726.536C559.599 725.299 556.335 724.68 553.007 724.68C550.873 724.68 549.252 725.171 548.143 726.152C547.033 727.133 546.479 728.499 546.479 730.248C546.479 733.32 548.484 735.517 552.495 736.84C558.255 738.675 562.244 740.765 564.463 743.112C566.724 745.459 567.854 748.488 567.854 752.2C567.854 761.16 562.329 765.64 551.279 765.64C547.823 765.64 544.687 765.107 541.871 764.04C540.847 763.656 540.036 762.995 539.439 762.056C538.884 761.117 538.607 760.072 538.607 758.92V758.152C538.607 757.341 538.948 756.765 539.631 756.424C540.313 756.04 541.017 756.019 541.743 756.36C544.559 757.768 547.524 758.472 550.639 758.472C556.057 758.472 558.767 756.424 558.767 752.328C558.767 750.664 558.255 749.299 557.231 748.232C556.207 747.123 554.479 746.141 552.047 745.288Z" fill="black"/>
<path d="M208.36 761.544L207.411 761.86L207.417 761.878L207.424 761.895L208.36 761.544ZM195.112 721.736L196.061 721.42L196.058 721.413L196.056 721.406L195.112 721.736ZM195.432 719.368L194.615 718.791L194.615 718.791L195.432 719.368ZM202.792 719.304L202.186 720.099L202.198 720.109L202.211 720.118L202.792 719.304ZM204.52 721.8L203.55 722.043L203.554 722.058L203.558 722.074L204.52 721.8ZM214.312 756.168H215.312V756.028L215.274 755.894L214.312 756.168ZM214.44 756.168L213.479 755.891L213.44 756.027V756.168H214.44ZM224.36 721.736L223.4 721.456L223.399 721.459L224.36 721.736ZM226.088 719.24L225.507 718.426L225.497 718.433L225.488 718.44L226.088 719.24ZM233.192 719.368L232.375 719.945L232.375 719.945L233.192 719.368ZM233.512 721.736L232.568 721.406L232.566 721.413L232.563 721.42L233.512 721.736ZM220.264 761.544L221.213 761.86L221.213 761.86L220.264 761.544ZM218.408 764.04L217.827 763.226L217.817 763.233L217.808 763.24L218.408 764.04ZM210.216 764.04L209.616 764.84L209.625 764.847L209.635 764.854L210.216 764.04ZM209.309 761.228L196.061 721.42L194.163 722.052L207.411 761.86L209.309 761.228ZM196.056 721.406C195.862 720.851 195.927 720.4 196.249 719.945L194.615 718.791C193.913 719.786 193.765 720.915 194.168 722.066L196.056 721.406ZM196.249 719.945C196.572 719.488 196.969 719.28 197.544 719.28V717.28C196.327 717.28 195.316 717.798 194.615 718.791L196.249 719.945ZM197.544 719.28H199.848V717.28H197.544V719.28ZM199.848 719.28C200.683 719.28 201.454 719.542 202.186 720.099L203.398 718.509C202.338 717.701 201.146 717.28 199.848 717.28V719.28ZM202.211 720.118C202.922 720.626 203.354 721.26 203.55 722.043L205.49 721.557C205.174 720.292 204.454 719.262 203.373 718.49L202.211 720.118ZM203.558 722.074L213.35 756.442L215.274 755.894L205.482 721.526L203.558 722.074ZM213.312 756.168C213.312 756.343 213.357 756.659 213.621 756.923C213.885 757.187 214.201 757.232 214.376 757.232V755.232C214.509 755.232 214.792 755.266 215.035 755.509C215.278 755.752 215.312 756.035 215.312 756.168H213.312ZM214.376 757.232C214.551 757.232 214.867 757.187 215.131 756.923C215.395 756.659 215.44 756.343 215.44 756.168H213.44C213.44 756.035 213.474 755.752 213.717 755.509C213.96 755.266 214.243 755.232 214.376 755.232V757.232ZM215.401 756.445L225.321 722.013L223.399 721.459L213.479 755.891L215.401 756.445ZM225.32 722.016C225.558 721.2 226.008 720.55 226.688 720.04L225.488 718.44C224.462 719.21 223.759 720.224 223.4 721.456L225.32 722.016ZM226.669 720.054C227.401 719.531 228.181 719.28 229.032 719.28V717.28C227.75 717.28 226.567 717.669 225.507 718.426L226.669 720.054ZM229.032 719.28H231.08V717.28H229.032V719.28ZM231.08 719.28C231.655 719.28 232.052 719.488 232.375 719.945L234.009 718.791C233.308 717.798 232.297 717.28 231.08 717.28V719.28ZM232.375 719.945C232.697 720.4 232.762 720.851 232.568 721.406L234.456 722.066C234.859 720.915 234.711 719.786 234.009 718.791L232.375 719.945ZM232.563 721.42L219.315 761.228L221.213 761.86L234.461 722.052L232.563 721.42ZM219.315 761.228C219.042 762.047 218.554 762.706 217.827 763.226L218.989 764.854C220.054 764.094 220.803 763.089 221.213 761.86L219.315 761.228ZM217.808 763.24C217.135 763.745 216.366 764 215.464 764V766C216.78 766 217.974 765.615 219.008 764.84L217.808 763.24ZM215.464 764H213.16V766H215.464V764ZM213.16 764C212.309 764 211.529 763.749 210.797 763.226L209.635 764.854C210.695 765.611 211.878 766 213.16 766V764ZM210.816 763.24C210.119 762.717 209.615 762.043 209.296 761.193L207.424 761.895C207.873 763.093 208.606 764.083 209.616 764.84L210.816 763.24ZM242.237 719.368L241.529 718.661L241.529 718.661L242.237 719.368ZM249.917 719.368L250.624 718.661L250.624 718.661L249.917 719.368ZM244.797 764C244.093 764 243.491 763.752 242.944 763.205L241.529 764.619C242.433 765.523 243.537 766 244.797 766V764ZM242.944 763.205C242.396 762.658 242.149 762.055 242.149 761.352H240.149C240.149 762.612 240.626 763.716 241.529 764.619L242.944 763.205ZM242.149 761.352V721.928H240.149V761.352H242.149ZM242.149 721.928C242.149 721.225 242.396 720.622 242.944 720.075L241.529 718.661C240.626 719.564 240.149 720.668 240.149 721.928H242.149ZM242.944 720.075C243.491 719.528 244.093 719.28 244.797 719.28V717.28C243.537 717.28 242.433 717.757 241.529 718.661L242.944 720.075ZM244.797 719.28H247.357V717.28H244.797V719.28ZM247.357 719.28C248.06 719.28 248.662 719.528 249.209 720.075L250.624 718.661C249.72 717.757 248.616 717.28 247.357 717.28V719.28ZM249.209 720.075C249.757 720.622 250.005 721.225 250.005 721.928H252.005C252.005 720.668 251.527 719.564 250.624 718.661L249.209 720.075ZM250.005 721.928V761.352H252.005V721.928H250.005ZM250.005 761.352C250.005 762.055 249.757 762.658 249.209 763.205L250.624 764.619C251.527 763.716 252.005 762.612 252.005 761.352H250.005ZM249.209 763.205C248.662 763.752 248.06 764 247.357 764V766C248.616 766 249.72 765.523 250.624 764.619L249.209 763.205ZM247.357 764H244.797V766H247.357V764ZM296.353 759.304L295.613 758.631L295.609 758.635L296.353 759.304ZM265.185 759.304L264.441 759.973L264.445 759.977L265.185 759.304ZM265.185 723.976L264.445 723.303L264.441 723.307L265.185 723.976ZM296.353 723.976L295.609 724.645L295.613 724.649L296.353 723.976ZM293.961 741.64C293.961 736.001 292.936 731.591 290.728 728.57C288.477 725.49 285.108 724 280.801 724V726C284.6 726 287.31 727.283 289.113 729.75C290.959 732.276 291.961 736.186 291.961 741.64H293.961ZM280.801 724C276.493 724 273.124 725.49 270.873 728.57C268.665 731.591 267.641 736.001 267.641 741.64H269.641C269.641 736.186 270.642 732.276 272.488 729.75C274.291 727.283 277.001 726 280.801 726V724ZM267.641 741.64C267.641 747.279 268.665 751.689 270.873 754.71C273.124 757.79 276.493 759.28 280.801 759.28V757.28C277.001 757.28 274.291 755.997 272.488 753.53C270.642 751.004 269.641 747.094 269.641 741.64H267.641ZM280.801 759.28C285.108 759.28 288.477 757.79 290.728 754.71C292.936 751.689 293.961 747.279 293.961 741.64H291.961C291.961 747.094 290.959 751.004 289.113 753.53C287.31 755.997 284.6 757.28 280.801 757.28V759.28ZM295.609 758.635C292.032 762.615 287.136 764.64 280.801 764.64V766.64C287.606 766.64 293.079 764.441 297.096 759.973L295.609 758.635ZM280.801 764.64C274.465 764.64 269.546 762.615 265.924 758.631L264.445 759.977C268.503 764.441 273.995 766.64 280.801 766.64V764.64ZM265.928 758.635C262.344 754.648 260.489 749.028 260.489 741.64H258.489C258.489 749.356 260.43 755.512 264.441 759.973L265.928 758.635ZM260.489 741.64C260.489 734.252 262.344 728.632 265.928 724.645L264.441 723.307C260.43 727.768 258.489 733.924 258.489 741.64H260.489ZM265.924 724.649C269.546 720.665 274.465 718.64 280.801 718.64V716.64C273.995 716.64 268.503 718.839 264.445 723.303L265.924 724.649ZM280.801 718.64C287.136 718.64 292.032 720.665 295.609 724.645L297.096 723.307C293.079 718.839 287.606 716.64 280.801 716.64V718.64ZM295.613 724.649C299.237 728.636 301.113 734.255 301.113 741.64H303.113C303.113 733.921 301.148 727.764 297.092 723.303L295.613 724.649ZM301.113 741.64C301.113 749.025 299.237 754.644 295.613 758.631L297.092 759.977C301.148 755.516 303.113 749.359 303.113 741.64H301.113ZM310.393 763.912L309.664 764.597L309.675 764.608L309.685 764.619L310.393 763.912ZM310.393 719.368L309.685 718.661L309.675 718.672L309.664 718.683L310.393 719.368ZM317.561 719.368L318.268 718.661L318.268 718.661L317.561 719.368ZM338.104 758.664L337.376 759.349L337.397 759.371L337.419 759.392L338.104 758.664ZM338.104 763.912L337.397 763.205L337.387 763.216L337.376 763.227L338.104 763.912ZM312.953 764C312.249 764 311.647 763.752 311.1 763.205L309.685 764.619C310.589 765.523 311.693 766 312.953 766V764ZM311.121 763.227C310.61 762.684 310.369 762.074 310.369 761.352H308.369C308.369 762.592 308.81 763.69 309.664 764.597L311.121 763.227ZM310.369 761.352V721.928H308.369V761.352H310.369ZM310.369 721.928C310.369 721.206 310.61 720.596 311.121 720.053L309.664 718.683C308.81 719.59 308.369 720.688 308.369 721.928H310.369ZM311.1 720.075C311.647 719.528 312.249 719.28 312.953 719.28V717.28C311.693 717.28 310.589 717.757 309.685 718.661L311.1 720.075ZM312.953 719.28H315.001V717.28H312.953V719.28ZM315.001 719.28C315.704 719.28 316.306 719.528 316.853 720.075L318.268 718.661C317.364 717.757 316.26 717.28 315.001 717.28V719.28ZM316.853 720.075C317.401 720.622 317.649 721.225 317.649 721.928H319.649C319.649 720.668 319.171 719.564 318.268 718.661L316.853 720.075ZM317.649 721.928V757H319.649V721.928H317.649ZM317.649 757C317.649 757.319 317.717 757.745 318.029 758.096C318.361 758.47 318.803 758.576 319.161 758.576V756.576C319.176 756.576 319.362 756.586 319.524 756.768C319.665 756.927 319.649 757.065 319.649 757H317.649ZM319.161 758.576H335.609V756.576H319.161V758.576ZM335.609 758.576C336.309 758.576 336.879 758.821 337.376 759.349L338.833 757.979C337.964 757.056 336.87 756.576 335.609 756.576V758.576ZM337.419 759.392C337.947 759.889 338.193 760.459 338.193 761.16H340.193C340.193 759.898 339.713 758.804 338.79 757.936L337.419 759.392ZM338.193 761.16V761.352H340.193V761.16H338.193ZM338.193 761.352C338.193 762.055 337.945 762.658 337.397 763.205L338.812 764.619C339.715 763.716 340.193 762.612 340.193 761.352H338.193ZM337.376 763.227C336.879 763.755 336.309 764 335.609 764V766C336.87 766 337.964 765.52 338.833 764.597L337.376 763.227ZM335.609 764H312.953V766H335.609V764ZM364.37 726.216L365.333 726.486L365.37 726.353V726.216H364.37ZM358.738 746.312L359.687 746.628L359.694 746.605L359.701 746.582L358.738 746.312ZM358.802 746.696L359.634 746.141L359.634 746.141L358.802 746.696ZM370.13 746.312L369.167 746.582L369.174 746.605L369.181 746.628L370.13 746.312ZM364.498 726.216H363.498V726.353L363.535 726.486L364.498 726.216ZM345.682 763.912L346.499 763.335L346.499 763.335L345.682 763.912ZM345.362 761.544L346.306 761.874L346.308 761.867L346.311 761.86L345.362 761.544ZM358.61 721.736L357.674 721.385L357.667 721.402L357.661 721.42L358.61 721.736ZM360.466 719.24L359.885 718.426L359.875 718.433L359.866 718.44L360.466 719.24ZM368.658 719.24L368.058 720.04L368.067 720.047L368.077 720.054L368.658 719.24ZM370.514 721.736L371.463 721.42L371.463 721.42L370.514 721.736ZM383.762 761.544L382.813 761.86L382.816 761.867L382.818 761.874L383.762 761.544ZM383.442 763.912L382.625 763.335L382.625 763.335L383.442 763.912ZM376.146 764.04L375.521 764.821L375.543 764.838L375.565 764.854L376.146 764.04ZM374.418 761.48L373.456 761.752L373.458 761.76L374.418 761.48ZM372.37 754.248L371.378 754.372L371.387 754.447L371.408 754.52L372.37 754.248ZM356.498 754.248L357.46 754.52L357.464 754.506L357.468 754.491L356.498 754.248ZM354.45 761.48L353.488 761.208L353.484 761.222L353.48 761.237L354.45 761.48ZM352.722 764.04L353.322 764.84L353.328 764.835L352.722 764.04ZM363.407 725.946L357.775 746.042L359.701 746.582L365.333 726.486L363.407 725.946ZM357.789 745.996C357.635 746.46 357.741 746.907 357.97 747.251L359.634 746.141C359.655 746.173 359.692 746.241 359.708 746.34C359.726 746.443 359.715 746.544 359.687 746.628L357.789 745.996ZM357.97 747.251C358.198 747.592 358.589 747.888 359.122 747.888V745.888C359.234 745.888 359.354 745.918 359.46 745.983C359.561 746.043 359.614 746.111 359.634 746.141L357.97 747.251ZM359.122 747.888H369.746V745.888H359.122V747.888ZM369.746 747.888C370.279 747.888 370.67 747.592 370.898 747.251L369.234 746.141C369.254 746.111 369.307 746.043 369.408 745.983C369.514 745.918 369.634 745.888 369.746 745.888V747.888ZM370.898 747.251C371.127 746.907 371.233 746.46 371.079 745.996L369.181 746.628C369.153 746.544 369.142 746.443 369.16 746.34C369.176 746.241 369.213 746.173 369.234 746.141L370.898 747.251ZM371.093 746.042L365.461 725.946L363.535 726.486L369.167 746.582L371.093 746.042ZM365.498 726.216C365.498 726.041 365.453 725.725 365.189 725.461C364.925 725.197 364.609 725.152 364.434 725.152V727.152C364.301 727.152 364.018 727.118 363.775 726.875C363.532 726.632 363.498 726.349 363.498 726.216H365.498ZM364.434 725.152C364.259 725.152 363.943 725.197 363.679 725.461C363.415 725.725 363.37 726.041 363.37 726.216H365.37C365.37 726.349 365.336 726.632 365.093 726.875C364.85 727.118 364.567 727.152 364.434 727.152V725.152ZM347.794 764C347.219 764 346.822 763.792 346.499 763.335L344.865 764.489C345.566 765.482 346.577 766 347.794 766V764ZM346.499 763.335C346.177 762.88 346.112 762.429 346.306 761.874L344.418 761.214C344.015 762.365 344.163 763.494 344.865 764.489L346.499 763.335ZM346.311 761.86L359.559 722.052L357.661 721.42L344.413 761.228L346.311 761.86ZM359.546 722.087C359.865 721.237 360.369 720.563 361.066 720.04L359.866 718.44C358.856 719.197 358.123 720.187 357.674 721.385L359.546 722.087ZM361.047 720.054C361.779 719.531 362.559 719.28 363.41 719.28V717.28C362.128 717.28 360.945 717.669 359.885 718.426L361.047 720.054ZM363.41 719.28H365.714V717.28H363.41V719.28ZM365.714 719.28C366.616 719.28 367.385 719.535 368.058 720.04L369.258 718.44C368.224 717.665 367.03 717.28 365.714 717.28V719.28ZM368.077 720.054C368.804 720.574 369.292 721.233 369.565 722.052L371.463 721.42C371.053 720.191 370.304 719.186 369.239 718.426L368.077 720.054ZM369.565 722.052L382.813 761.86L384.711 761.228L371.463 721.42L369.565 722.052ZM382.818 761.874C383.012 762.429 382.947 762.88 382.625 763.335L384.259 764.489C384.961 763.494 385.109 762.365 384.706 761.214L382.818 761.874ZM382.625 763.335C382.302 763.792 381.905 764 381.33 764V766C382.547 766 383.558 765.482 384.259 764.489L382.625 763.335ZM381.33 764H379.026V766H381.33V764ZM379.026 764C378.226 764 377.467 763.755 376.727 763.226L375.565 764.854C376.617 765.605 377.778 766 379.026 766V764ZM376.771 763.259C376.074 762.702 375.618 762.021 375.378 761.2L373.458 761.76C373.816 762.987 374.512 764.013 375.521 764.821L376.771 763.259ZM375.38 761.208L373.332 753.976L371.408 754.52L373.456 761.752L375.38 761.208ZM373.362 754.124C373.314 753.734 373.132 753.333 372.75 753.055C372.399 752.8 371.996 752.736 371.666 752.736V754.736C371.763 754.736 371.691 754.758 371.574 754.673C371.511 754.627 371.459 754.567 371.423 754.5C371.388 754.437 371.38 754.388 371.378 754.372L373.362 754.124ZM371.666 752.736H357.202V754.736H371.666V752.736ZM357.202 752.736C356.866 752.736 356.486 752.811 356.15 753.055C355.805 753.306 355.615 753.657 355.528 754.005L357.468 754.491C357.468 754.491 357.467 754.497 357.462 754.508C357.457 754.519 357.45 754.535 357.438 754.554C357.413 754.594 357.375 754.637 357.326 754.673C357.225 754.746 357.154 754.736 357.202 754.736V752.736ZM355.536 753.976L353.488 761.208L355.412 761.752L357.46 754.52L355.536 753.976ZM353.48 761.237C353.283 762.026 352.844 762.69 352.116 763.245L353.328 764.835C354.392 764.025 355.105 762.982 355.42 761.723L353.48 761.237ZM352.122 763.24C351.442 763.75 350.692 764 349.842 764V766C351.125 766 352.296 765.61 353.322 764.84L352.122 763.24ZM349.842 764H347.794V766H349.842V764ZM382.544 724.68L381.837 725.387L381.848 725.398L381.859 725.408L382.544 724.68ZM382.544 719.368L381.837 718.661L381.837 718.661L382.544 719.368ZM414.928 719.368L415.635 718.661L415.635 718.661L414.928 719.368ZM414.928 724.68L415.613 725.408L415.624 725.398L415.635 725.387L414.928 724.68ZM385.104 724.704C384.382 724.704 383.772 724.463 383.229 723.952L381.859 725.408C382.766 726.263 383.864 726.704 385.104 726.704V724.704ZM383.251 723.973C382.704 723.426 382.456 722.823 382.456 722.12H380.456C380.456 723.38 380.933 724.484 381.837 725.387L383.251 723.973ZM382.456 722.12V721.928H380.456V722.12H382.456ZM382.456 721.928C382.456 721.225 382.704 720.622 383.251 720.075L381.837 718.661C380.933 719.564 380.456 720.668 380.456 721.928H382.456ZM383.251 720.075C383.798 719.528 384.401 719.28 385.104 719.28V717.28C383.844 717.28 382.74 717.757 381.837 718.661L383.251 720.075ZM385.104 719.28H412.368V717.28H385.104V719.28ZM412.368 719.28C413.071 719.28 413.674 719.528 414.221 720.075L415.635 718.661C414.732 717.757 413.628 717.28 412.368 717.28V719.28ZM414.221 720.075C414.768 720.622 415.016 721.225 415.016 721.928H417.016C417.016 720.668 416.539 719.564 415.635 718.661L414.221 720.075ZM415.016 721.928V722.12H417.016V721.928H415.016ZM415.016 722.12C415.016 722.823 414.768 723.426 414.221 723.973L415.635 725.387C416.539 724.484 417.016 723.38 417.016 722.12H415.016ZM414.243 723.952C413.7 724.463 413.09 724.704 412.368 724.704V726.704C413.608 726.704 414.706 726.263 415.613 725.408L414.243 723.952ZM412.368 724.704H403.792V726.704H412.368V724.704ZM403.792 724.704C403.435 724.704 402.993 724.81 402.661 725.184C402.348 725.535 402.28 725.961 402.28 726.28H404.28C404.28 726.215 404.297 726.353 404.155 726.512C403.994 726.694 403.808 726.704 403.792 726.704V724.704ZM402.28 726.28V761.352H404.28V726.28H402.28ZM402.28 761.352C402.28 762.055 402.032 762.658 401.485 763.205L402.899 764.619C403.803 763.716 404.28 762.612 404.28 761.352H402.28ZM401.485 763.205C400.938 763.752 400.335 764 399.632 764V766C400.892 766 401.996 765.523 402.899 764.619L401.485 763.205ZM399.632 764H397.84V766H399.632V764ZM397.84 764C397.137 764 396.534 763.752 395.987 763.205L394.573 764.619C395.476 765.523 396.58 766 397.84 766V764ZM395.987 763.205C395.44 762.658 395.192 762.055 395.192 761.352H393.192C393.192 762.612 393.669 763.716 394.573 764.619L395.987 763.205ZM395.192 761.352V726.28H393.192V761.352H395.192ZM395.192 726.28C395.192 725.961 395.124 725.535 394.811 725.184C394.479 724.81 394.037 724.704 393.68 724.704V726.704C393.664 726.704 393.478 726.694 393.317 726.512C393.175 726.353 393.192 726.215 393.192 726.28H395.192ZM393.68 724.704H385.104V726.704H393.68V724.704ZM426.924 719.368L426.217 718.661L426.217 718.661L426.924 719.368ZM434.604 719.368L435.311 718.661L435.311 718.661L434.604 719.368ZM429.484 764C428.781 764 428.178 763.752 427.631 763.205L426.217 764.619C427.12 765.523 428.224 766 429.484 766V764ZM427.631 763.205C427.084 762.658 426.836 762.055 426.836 761.352H424.836C424.836 762.612 425.313 763.716 426.217 764.619L427.631 763.205ZM426.836 761.352V721.928H424.836V761.352H426.836ZM426.836 721.928C426.836 721.225 427.084 720.622 427.631 720.075L426.217 718.661C425.313 719.564 424.836 720.668 424.836 721.928H426.836ZM427.631 720.075C428.178 719.528 428.781 719.28 429.484 719.28V717.28C428.224 717.28 427.12 717.757 426.217 718.661L427.631 720.075ZM429.484 719.28H432.044V717.28H429.484V719.28ZM432.044 719.28C432.747 719.28 433.35 719.528 433.897 720.075L435.311 718.661C434.408 717.757 433.304 717.28 432.044 717.28V719.28ZM433.897 720.075C434.444 720.622 434.692 721.225 434.692 721.928H436.692C436.692 720.668 436.215 719.564 435.311 718.661L433.897 720.075ZM434.692 721.928V761.352H436.692V721.928H434.692ZM434.692 761.352C434.692 762.055 434.444 762.658 433.897 763.205L435.311 764.619C436.215 763.716 436.692 762.612 436.692 761.352H434.692ZM433.897 763.205C433.35 763.752 432.747 764 432.044 764V766C433.304 766 434.408 765.523 435.311 764.619L433.897 763.205ZM432.044 764H429.484V766H432.044V764ZM481.04 759.304L480.3 758.631L480.296 758.635L481.04 759.304ZM449.872 759.304L449.128 759.973L449.132 759.977L449.872 759.304ZM449.872 723.976L449.132 723.303L449.128 723.307L449.872 723.976ZM481.04 723.976L480.296 724.645L480.3 724.649L481.04 723.976ZM478.648 741.64C478.648 736.001 477.623 731.591 475.415 728.57C473.165 725.49 469.795 724 465.488 724V726C469.287 726 471.998 727.283 473.801 729.75C475.646 732.276 476.648 736.186 476.648 741.64H478.648ZM465.488 724C461.181 724 457.811 725.49 455.561 728.57C453.353 731.591 452.328 736.001 452.328 741.64H454.328C454.328 736.186 455.33 732.276 457.175 729.75C458.978 727.283 461.689 726 465.488 726V724ZM452.328 741.64C452.328 747.279 453.353 751.689 455.561 754.71C457.811 757.79 461.181 759.28 465.488 759.28V757.28C461.689 757.28 458.978 755.997 457.175 753.53C455.33 751.004 454.328 747.094 454.328 741.64H452.328ZM465.488 759.28C469.795 759.28 473.165 757.79 475.415 754.71C477.623 751.689 478.648 747.279 478.648 741.64H476.648C476.648 747.094 475.646 751.004 473.801 753.53C471.998 755.997 469.287 757.28 465.488 757.28V759.28ZM480.296 758.635C476.719 762.615 471.824 764.64 465.488 764.64V766.64C472.293 766.64 477.766 764.441 481.784 759.973L480.296 758.635ZM465.488 764.64C459.152 764.64 454.233 762.615 450.612 758.631L449.132 759.977C453.191 764.441 458.682 766.64 465.488 766.64V764.64ZM450.616 758.635C447.031 754.648 445.176 749.028 445.176 741.64H443.176C443.176 749.356 445.118 755.512 449.128 759.973L450.616 758.635ZM445.176 741.64C445.176 734.252 447.031 728.632 450.616 724.645L449.128 723.307C445.118 727.768 443.176 733.924 443.176 741.64H445.176ZM450.612 724.649C454.233 720.665 459.152 718.64 465.488 718.64V716.64C458.682 716.64 453.191 718.839 449.132 723.303L450.612 724.649ZM465.488 718.64C471.824 718.64 476.719 720.665 480.296 724.645L481.784 723.307C477.766 718.839 472.293 716.64 465.488 716.64V718.64ZM480.3 724.649C483.925 728.636 485.8 734.255 485.8 741.64H487.8C487.8 733.921 485.835 727.764 481.78 723.303L480.3 724.649ZM485.8 741.64C485.8 749.025 483.925 754.644 480.3 758.631L481.78 759.977C485.835 755.516 487.8 749.359 487.8 741.64H485.8ZM495.08 763.912L494.352 764.597L494.362 764.608L494.373 764.619L495.08 763.912ZM495.08 719.368L494.373 718.661L494.362 718.672L494.352 718.683L495.08 719.368ZM504.424 721.48L503.544 721.955L503.549 721.964L504.424 721.48ZM520.232 750.024H521.232V749.766L521.107 749.54L520.232 750.024ZM521.448 719.368L520.741 718.661L520.741 718.661L521.448 719.368ZM527.912 719.368L527.184 720.053L527.194 720.064L527.205 720.075L527.912 719.368ZM527.912 763.912L527.205 763.205L527.194 763.216L527.184 763.227L527.912 763.912ZM518.632 761.8L519.512 761.325L519.507 761.316L518.632 761.8ZM502.824 733.256H501.824V733.514L501.949 733.74L502.824 733.256ZM497.64 764C496.937 764 496.334 763.752 495.787 763.205L494.373 764.619C495.276 765.523 496.38 766 497.64 766V764ZM495.808 763.227C495.297 762.684 495.056 762.074 495.056 761.352H493.056C493.056 762.592 493.497 763.69 494.352 764.597L495.808 763.227ZM495.056 761.352V721.928H493.056V761.352H495.056ZM495.056 721.928C495.056 721.206 495.297 720.596 495.808 720.053L494.352 718.683C493.497 719.59 493.056 720.688 493.056 721.928H495.056ZM495.787 720.075C496.334 719.528 496.937 719.28 497.64 719.28V717.28C496.38 717.28 495.276 717.757 494.373 718.661L495.787 720.075ZM497.64 719.28H499.048V717.28H497.64V719.28ZM499.048 719.28C500.114 719.28 500.987 719.512 501.705 719.939C502.422 720.366 503.04 721.021 503.544 721.955L505.304 721.005C504.656 719.805 503.802 718.861 502.727 718.221C501.653 717.581 500.414 717.28 499.048 717.28V719.28ZM503.549 721.964L519.357 750.508L521.107 749.54L505.299 720.996L503.549 721.964ZM519.232 750.024C519.232 750.199 519.277 750.515 519.541 750.779C519.805 751.043 520.121 751.088 520.296 751.088V749.088C520.429 749.088 520.712 749.122 520.955 749.365C521.198 749.608 521.232 749.891 521.232 750.024H519.232ZM520.296 751.088C520.471 751.088 520.787 751.043 521.051 750.779C521.315 750.515 521.36 750.199 521.36 750.024H519.36C519.36 749.891 519.394 749.608 519.637 749.365C519.88 749.122 520.163 749.088 520.296 749.088V751.088ZM521.36 750.024V721.928H519.36V750.024H521.36ZM521.36 721.928C521.36 721.225 521.608 720.622 522.155 720.075L520.741 718.661C519.837 719.564 519.36 720.668 519.36 721.928H521.36ZM522.155 720.075C522.702 719.528 523.305 719.28 524.008 719.28V717.28C522.748 717.28 521.644 717.757 520.741 718.661L522.155 720.075ZM524.008 719.28H525.416V717.28H524.008V719.28ZM525.416 719.28C526.117 719.28 526.687 719.525 527.184 720.053L528.64 718.683C527.772 717.76 526.678 717.28 525.416 717.28V719.28ZM527.205 720.075C527.752 720.622 528 721.225 528 721.928H530C530 720.668 529.523 719.564 528.619 718.661L527.205 720.075ZM528 721.928V761.352H530V721.928H528ZM528 761.352C528 762.055 527.752 762.658 527.205 763.205L528.619 764.619C529.523 763.716 530 762.612 530 761.352H528ZM527.184 763.227C526.687 763.755 526.117 764 525.416 764V766C526.678 766 527.772 765.52 528.64 764.597L527.184 763.227ZM525.416 764H524.008V766H525.416V764ZM524.008 764C522.942 764 522.069 763.768 521.351 763.341C520.634 762.914 520.016 762.259 519.512 761.325L517.752 762.275C518.4 763.475 519.254 764.419 520.329 765.059C521.403 765.699 522.642 766 524.008 766V764ZM519.507 761.316L503.699 732.772L501.949 733.74L517.757 762.284L519.507 761.316ZM503.824 733.256C503.824 733.081 503.779 732.765 503.515 732.501C503.251 732.237 502.935 732.192 502.76 732.192V734.192C502.627 734.192 502.344 734.158 502.101 733.915C501.858 733.672 501.824 733.389 501.824 733.256H503.824ZM502.76 732.192C502.585 732.192 502.269 732.237 502.005 732.501C501.741 732.765 501.696 733.081 501.696 733.256H503.696C503.696 733.389 503.662 733.672 503.419 733.915C503.176 734.158 502.893 734.192 502.76 734.192V732.192ZM501.696 733.256V761.352H503.696V733.256H501.696ZM501.696 761.352C501.696 762.055 501.448 762.658 500.901 763.205L502.315 764.619C503.219 763.716 503.696 762.612 503.696 761.352H501.696ZM500.901 763.205C500.354 763.752 499.751 764 499.048 764V766C500.308 766 501.412 765.523 502.315 764.619L500.901 763.205ZM499.048 764H497.64V766H499.048V764ZM552.047 745.288L552.378 744.344L552.37 744.342L552.363 744.339L552.047 745.288ZM540.911 739.08L540.178 739.761L540.185 739.768L540.911 739.08ZM541.423 721.032L540.767 720.277L540.767 720.277L541.423 721.032ZM562.735 718.984L562.443 719.941L562.455 719.944L562.735 718.984ZM565.167 720.84L564.323 721.377L564.337 721.399L564.353 721.421L565.167 720.84ZM565.039 726.344L565.546 727.206L565.564 727.195L565.582 727.184L565.039 726.344ZM562.799 726.536L563.161 725.604L563.159 725.603L562.799 726.536ZM548.143 726.152L548.805 726.901L548.805 726.901L548.143 726.152ZM552.495 736.84L552.181 737.79L552.191 737.793L552.495 736.84ZM564.463 743.112L563.736 743.799L563.742 743.806L564.463 743.112ZM541.871 764.04L542.225 763.105L542.222 763.104L541.871 764.04ZM539.439 762.056L538.578 762.565L538.586 762.579L538.595 762.593L539.439 762.056ZM539.631 756.424L540.078 757.318L540.1 757.308L540.121 757.296L539.631 756.424ZM541.743 756.36L542.19 755.466L542.179 755.46L542.168 755.455L541.743 756.36ZM557.231 748.232L556.496 748.91L556.502 748.917L556.509 748.925L557.231 748.232ZM552.363 744.339C547.313 742.656 543.779 740.653 541.636 738.392L540.185 739.768C542.65 742.371 546.54 744.506 551.73 746.237L552.363 744.339ZM541.643 738.399C539.561 736.16 538.519 733.463 538.519 730.248H536.519C536.519 733.945 537.737 737.136 540.178 739.761L541.643 738.399ZM538.519 730.248C538.519 726.614 539.723 723.833 542.078 721.787L540.767 720.277C537.916 722.754 536.519 726.117 536.519 730.248H538.519ZM542.078 721.787C544.442 719.733 547.827 718.64 552.367 718.64V716.64C547.52 716.64 543.608 717.808 540.767 720.277L542.078 721.787ZM552.367 718.64C556.263 718.64 559.616 719.08 562.443 719.941L563.026 718.027C559.965 717.096 556.406 716.64 552.367 716.64V718.64ZM562.455 719.944C563.235 720.172 563.85 720.633 564.323 721.377L566.01 720.303C565.289 719.169 564.282 718.394 563.015 718.024L562.455 719.944ZM564.353 721.421C564.871 722.146 565.127 722.945 565.127 723.848H567.127C567.127 722.532 566.742 721.326 565.98 720.259L564.353 721.421ZM565.127 723.848V724.424H567.127V723.848H565.127ZM565.127 724.424C565.127 724.87 564.958 725.205 564.495 725.504L565.582 727.184C566.569 726.544 567.127 725.6 567.127 724.424H565.127ZM564.531 725.482C564.063 725.757 563.637 725.789 563.161 725.604L562.436 727.468C563.496 727.88 564.563 727.784 565.546 727.206L564.531 725.482ZM563.159 725.603C559.848 724.323 556.462 723.68 553.007 723.68V725.68C556.207 725.68 559.349 726.274 562.438 727.469L563.159 725.603ZM553.007 723.68C550.735 723.68 548.838 724.201 547.48 725.403L548.805 726.901C549.665 726.14 551.011 725.68 553.007 725.68V723.68ZM547.48 725.403C546.117 726.609 545.479 728.269 545.479 730.248H547.479C547.479 728.728 547.95 727.658 548.805 726.901L547.48 725.403ZM545.479 730.248C545.479 732.024 546.067 733.585 547.244 734.874C548.401 736.142 550.077 737.096 552.181 737.79L552.808 735.89C550.901 735.261 549.569 734.455 548.721 733.526C547.893 732.618 547.479 731.544 547.479 730.248H545.479ZM552.191 737.793C557.908 739.614 561.696 741.642 563.736 743.799L565.189 742.425C562.792 739.889 558.601 737.736 552.798 735.887L552.191 737.793ZM563.742 743.806C565.799 745.94 566.854 748.708 566.854 752.2H568.854C568.854 748.268 567.649 744.977 565.183 742.418L563.742 743.806ZM566.854 752.2C566.854 756.464 565.55 759.501 563.081 761.503C560.571 763.538 556.695 764.64 551.279 764.64V766.64C556.913 766.64 561.324 765.502 564.34 763.057C567.396 760.579 568.854 756.896 568.854 752.2H566.854ZM551.279 764.64C547.926 764.64 544.912 764.123 542.225 763.105L541.516 764.975C544.461 766.091 547.719 766.64 551.279 766.64V764.64ZM542.222 763.104C541.405 762.797 540.765 762.278 540.282 761.519L538.595 762.593C539.306 763.711 540.288 764.515 541.519 764.976L542.222 763.104ZM540.299 761.547C539.841 760.772 539.607 759.904 539.607 758.92H537.607C537.607 760.24 537.927 761.463 538.578 762.565L540.299 761.547ZM539.607 758.92V758.152H537.607V758.92H539.607ZM539.607 758.152C539.607 757.888 539.661 757.726 539.723 757.622C539.782 757.521 539.883 757.416 540.078 757.318L539.183 755.53C538.695 755.774 538.284 756.127 538.002 756.602C537.723 757.074 537.607 757.605 537.607 758.152H539.607ZM540.121 757.296C540.514 757.075 540.876 757.057 541.317 757.265L542.168 755.455C541.158 754.98 540.113 755.005 539.14 755.552L540.121 757.296ZM541.295 757.254C544.249 758.731 547.367 759.472 550.639 759.472V757.472C547.681 757.472 544.868 756.805 542.19 755.466L541.295 757.254ZM550.639 759.472C553.445 759.472 555.733 758.947 557.338 757.734C558.995 756.481 559.767 754.617 559.767 752.328H557.767C557.767 754.135 557.184 755.343 556.131 756.138C555.027 756.973 553.25 757.472 550.639 757.472V759.472ZM559.767 752.328C559.767 750.441 559.178 748.816 557.952 747.539L556.509 748.925C557.331 749.781 557.767 750.887 557.767 752.328H559.767ZM557.965 747.554C556.778 746.267 554.869 745.218 552.378 744.344L551.715 746.232C554.088 747.064 555.635 747.978 556.496 748.91L557.965 747.554Z" fill="black"/>
</svg>
