<svg width="800" height="800" viewBox="0 0 800 800" fill="none" xmlns="http://www.w3.org/2000/svg">
<path d="M294.648 741.64C294.648 730.547 290.595 725 282.488 725C274.381 725 270.328 730.547 270.328 741.64C270.328 752.733 274.381 758.28 282.488 758.28C290.595 758.28 294.648 752.733 294.648 741.64ZM298.04 759.304C294.243 763.528 289.059 765.64 282.488 765.64C275.917 765.64 270.712 763.528 266.872 759.304C263.075 755.08 261.176 749.192 261.176 741.64C261.176 734.088 263.075 728.2 266.872 723.976C270.712 719.752 275.917 717.64 282.488 717.64C289.059 717.64 294.243 719.752 298.04 723.976C301.88 728.2 303.8 734.088 303.8 741.64C303.8 749.192 301.88 755.08 298.04 759.304ZM310.542 725.704C309.56 725.704 308.707 725.363 307.982 724.68C307.256 723.955 306.894 723.101 306.894 722.12V721.928C306.894 720.947 307.256 720.093 307.982 719.368C308.707 718.643 309.56 718.28 310.542 718.28H337.806C338.787 718.28 339.64 718.643 340.366 719.368C341.091 720.093 341.454 720.947 341.454 721.928V722.12C341.454 723.101 341.091 723.955 340.366 724.68C339.64 725.363 338.787 725.704 337.806 725.704H329.23C328.888 725.704 328.718 725.896 328.718 726.28V761.352C328.718 762.333 328.355 763.187 327.63 763.912C326.904 764.637 326.051 765 325.07 765H323.278C322.296 765 321.443 764.637 320.718 763.912C319.992 763.187 319.63 762.333 319.63 761.352V726.28C319.63 725.896 319.459 725.704 319.118 725.704H310.542ZM353.578 765C352.596 765 351.743 764.637 351.018 763.912C350.335 763.187 349.994 762.333 349.994 761.352V721.928C349.994 720.947 350.335 720.093 351.018 719.368C351.743 718.643 352.596 718.28 353.578 718.28H355.306C356.287 718.28 357.14 718.643 357.866 719.368C358.591 720.093 358.954 720.947 358.954 721.928V736.456C358.954 736.797 359.124 736.968 359.466 736.968H375.466C375.807 736.968 375.978 736.797 375.978 736.456V721.928C375.978 720.947 376.34 720.093 377.066 719.368C377.791 718.643 378.644 718.28 379.626 718.28H381.354C382.335 718.28 383.167 718.643 383.85 719.368C384.575 720.093 384.938 720.947 384.938 721.928V761.352C384.938 762.333 384.575 763.187 383.85 763.912C383.167 764.637 382.335 765 381.354 765H379.626C378.644 765 377.791 764.637 377.066 763.912C376.34 763.187 375.978 762.333 375.978 761.352V744.392C375.978 744.008 375.807 743.816 375.466 743.816H359.466C359.124 743.816 358.954 744.008 358.954 744.392V761.352C358.954 762.333 358.591 763.187 357.866 763.912C357.14 764.637 356.287 765 355.306 765H353.578ZM398.704 765C397.723 765 396.869 764.637 396.144 763.912C395.419 763.187 395.056 762.333 395.056 761.352V721.928C395.056 720.947 395.419 720.093 396.144 719.368C396.869 718.643 397.723 718.28 398.704 718.28H420.464C421.445 718.28 422.299 718.643 423.024 719.368C423.749 720.093 424.112 720.947 424.112 721.928C424.112 722.909 423.749 723.763 423.024 724.488C422.299 725.171 421.445 725.512 420.464 725.512H404.592C404.208 725.512 404.016 725.704 404.016 726.088V736.392C404.016 736.776 404.208 736.968 404.592 736.968H419.376C420.357 736.968 421.168 737.309 421.808 737.992C422.491 738.675 422.832 739.485 422.832 740.424C422.832 741.363 422.491 742.173 421.808 742.856C421.168 743.496 420.357 743.816 419.376 743.816H404.592C404.208 743.816 404.016 744.008 404.016 744.392V757.192C404.016 757.576 404.208 757.768 404.592 757.768H420.464C421.445 757.768 422.299 758.131 423.024 758.856C423.749 759.539 424.112 760.371 424.112 761.352C424.112 762.333 423.749 763.187 423.024 763.912C422.299 764.637 421.445 765 420.464 765H398.704ZM442.388 725.576V739.464C442.388 739.805 442.58 739.976 442.964 739.976H446.164C453.759 739.976 457.556 737.267 457.556 731.848C457.556 727.027 454.036 724.616 446.996 724.616C445.716 724.616 444.372 724.723 442.964 724.936C442.58 725.021 442.388 725.235 442.388 725.576ZM437.204 765C436.223 765 435.369 764.637 434.644 763.912C433.919 763.187 433.556 762.333 433.556 761.352V722.248C433.556 721.224 433.897 720.307 434.58 719.496C435.263 718.685 436.116 718.237 437.14 718.152C440.767 717.811 444.265 717.64 447.636 717.64C453.908 717.64 458.601 718.813 461.716 721.16C464.831 723.464 466.388 726.728 466.388 730.952C466.388 733.981 465.556 736.648 463.892 738.952C462.271 741.256 460.073 742.877 457.3 743.816C457.257 743.816 457.236 743.837 457.236 743.88C457.236 743.965 457.257 744.008 457.3 744.008C459.348 745.288 461.097 747.805 462.548 751.56L466.388 761.608C466.687 762.419 466.58 763.187 466.068 763.912C465.599 764.637 464.937 765 464.084 765H462.1C460.991 765 459.988 764.701 459.092 764.104C458.196 763.464 457.556 762.632 457.172 761.608L453.588 751.752C452.82 749.704 451.945 748.36 450.964 747.72C449.983 747.08 448.297 746.76 445.908 746.76H442.964C442.58 746.76 442.388 746.952 442.388 747.336V761.352C442.388 762.333 442.025 763.187 441.3 763.912C440.617 764.637 439.785 765 438.804 765H437.204ZM486.422 745.288C481.302 743.581 477.59 741.512 475.286 739.08C473.024 736.648 471.894 733.704 471.894 730.248C471.894 726.365 473.195 723.293 475.798 721.032C478.4 718.771 482.048 717.64 486.742 717.64C490.71 717.64 494.166 718.088 497.11 718.984C498.134 719.283 498.944 719.901 499.542 720.84C500.182 721.736 500.502 722.739 500.502 723.848V724.424C500.502 725.235 500.139 725.875 499.414 726.344C498.688 726.771 497.942 726.835 497.174 726.536C493.974 725.299 490.71 724.68 487.382 724.68C485.248 724.68 483.627 725.171 482.518 726.152C481.408 727.133 480.854 728.499 480.854 730.248C480.854 733.32 482.859 735.517 486.87 736.84C492.63 738.675 496.619 740.765 498.838 743.112C501.099 745.459 502.229 748.488 502.229 752.2C502.229 761.16 496.704 765.64 485.654 765.64C482.198 765.64 479.062 765.107 476.246 764.04C475.222 763.656 474.411 762.995 473.814 762.056C473.259 761.117 472.982 760.072 472.982 758.92V758.152C472.982 757.341 473.323 756.765 474.006 756.424C474.688 756.04 475.392 756.019 476.118 756.36C478.934 757.768 481.899 758.472 485.014 758.472C490.432 758.472 493.142 756.424 493.142 752.328C493.142 750.664 492.63 749.299 491.606 748.232C490.582 747.123 488.854 746.141 486.422 745.288Z" fill="black"/>
<path d="M298.04 759.304L297.3 758.631L297.296 758.635L298.04 759.304ZM266.872 759.304L266.128 759.973L266.132 759.977L266.872 759.304ZM266.872 723.976L266.132 723.303L266.128 723.307L266.872 723.976ZM298.04 723.976L297.296 724.645L297.3 724.649L298.04 723.976ZM295.648 741.64C295.648 736.001 294.623 731.591 292.415 728.57C290.165 725.49 286.795 724 282.488 724V726C286.287 726 288.998 727.283 290.801 729.75C292.646 732.276 293.648 736.186 293.648 741.64H295.648ZM282.488 724C278.181 724 274.811 725.49 272.561 728.57C270.353 731.591 269.328 736.001 269.328 741.64H271.328C271.328 736.186 272.33 732.276 274.175 729.75C275.978 727.283 278.689 726 282.488 726V724ZM269.328 741.64C269.328 747.279 270.353 751.689 272.561 754.71C274.811 757.79 278.181 759.28 282.488 759.28V757.28C278.689 757.28 275.978 755.997 274.175 753.53C272.33 751.004 271.328 747.094 271.328 741.64H269.328ZM282.488 759.28C286.795 759.28 290.165 757.79 292.415 754.71C294.623 751.689 295.648 747.279 295.648 741.64H293.648C293.648 747.094 292.646 751.004 290.801 753.53C288.998 755.997 286.287 757.28 282.488 757.28V759.28ZM297.296 758.635C293.719 762.615 288.824 764.64 282.488 764.64V766.64C289.293 766.64 294.766 764.441 298.784 759.973L297.296 758.635ZM282.488 764.64C276.152 764.64 271.233 762.615 267.612 758.631L266.132 759.977C270.191 764.441 275.682 766.64 282.488 766.64V764.64ZM267.616 758.635C264.031 754.648 262.176 749.028 262.176 741.64H260.176C260.176 749.356 262.118 755.512 266.128 759.973L267.616 758.635ZM262.176 741.64C262.176 734.252 264.031 728.632 267.616 724.645L266.128 723.307C262.118 727.768 260.176 733.924 260.176 741.64H262.176ZM267.612 724.649C271.233 720.665 276.152 718.64 282.488 718.64V716.64C275.682 716.64 270.191 718.839 266.132 723.303L267.612 724.649ZM282.488 718.64C288.824 718.64 293.719 720.665 297.296 724.645L298.784 723.307C294.766 718.839 289.293 716.64 282.488 716.64V718.64ZM297.3 724.649C300.925 728.636 302.8 734.255 302.8 741.64H304.8C304.8 733.921 302.835 727.764 298.78 723.303L297.3 724.649ZM302.8 741.64C302.8 749.025 300.925 754.644 297.3 758.631L298.78 759.977C302.835 755.516 304.8 749.359 304.8 741.64H302.8ZM307.982 724.68L307.274 725.387L307.285 725.398L307.296 725.408L307.982 724.68ZM307.982 719.368L307.274 718.661L307.274 718.661L307.982 719.368ZM340.366 719.368L341.073 718.661L341.073 718.661L340.366 719.368ZM340.366 724.68L341.051 725.408L341.062 725.398L341.073 725.387L340.366 724.68ZM310.542 724.704C309.819 724.704 309.21 724.463 308.667 723.952L307.296 725.408C308.204 726.263 309.301 726.704 310.542 726.704V724.704ZM308.689 723.973C308.141 723.426 307.894 722.823 307.894 722.12H305.894C305.894 723.38 306.371 724.484 307.274 725.387L308.689 723.973ZM307.894 722.12V721.928H305.894V722.12H307.894ZM307.894 721.928C307.894 721.225 308.141 720.622 308.689 720.075L307.274 718.661C306.371 719.564 305.894 720.668 305.894 721.928H307.894ZM308.689 720.075C309.236 719.528 309.838 719.28 310.542 719.28V717.28C309.282 717.28 308.178 717.757 307.274 718.661L308.689 720.075ZM310.542 719.28H337.806V717.28H310.542V719.28ZM337.806 719.28C338.509 719.28 339.111 719.528 339.658 720.075L341.073 718.661C340.169 717.757 339.065 717.28 337.806 717.28V719.28ZM339.658 720.075C340.206 720.622 340.454 721.225 340.454 721.928H342.454C342.454 720.668 341.976 719.564 341.073 718.661L339.658 720.075ZM340.454 721.928V722.12H342.454V721.928H340.454ZM340.454 722.12C340.454 722.823 340.206 723.426 339.658 723.973L341.073 725.387C341.976 724.484 342.454 723.38 342.454 722.12H340.454ZM339.68 723.952C339.137 724.463 338.528 724.704 337.806 724.704V726.704C339.046 726.704 340.143 726.263 341.051 725.408L339.68 723.952ZM337.806 724.704H329.23V726.704H337.806V724.704ZM329.23 724.704C328.872 724.704 328.43 724.81 328.098 725.184C327.786 725.535 327.718 725.961 327.718 726.28H329.718C329.718 726.215 329.734 726.353 329.593 726.512C329.431 726.694 329.245 726.704 329.23 726.704V724.704ZM327.718 726.28V761.352H329.718V726.28H327.718ZM327.718 761.352C327.718 762.055 327.47 762.658 326.922 763.205L328.337 764.619C329.24 763.716 329.718 762.612 329.718 761.352H327.718ZM326.922 763.205C326.375 763.752 325.773 764 325.07 764V766C326.329 766 327.433 765.523 328.337 764.619L326.922 763.205ZM325.07 764H323.278V766H325.07V764ZM323.278 764C322.574 764 321.972 763.752 321.425 763.205L320.01 764.619C320.914 765.523 322.018 766 323.278 766V764ZM321.425 763.205C320.877 762.658 320.63 762.055 320.63 761.352H318.63C318.63 762.612 319.107 763.716 320.01 764.619L321.425 763.205ZM320.63 761.352V726.28H318.63V761.352H320.63ZM320.63 726.28C320.63 725.961 320.561 725.535 320.249 725.184C319.917 724.81 319.475 724.704 319.118 724.704V726.704C319.102 726.704 318.916 726.694 318.754 726.512C318.613 726.353 318.63 726.215 318.63 726.28H320.63ZM319.118 724.704H310.542V726.704H319.118V724.704ZM351.018 763.912L350.289 764.597L350.3 764.608L350.31 764.619L351.018 763.912ZM351.018 719.368L350.31 718.661L350.3 718.672L350.289 718.683L351.018 719.368ZM357.866 719.368L358.573 718.661L358.573 718.661L357.866 719.368ZM377.066 719.368L376.358 718.661L376.358 718.661L377.066 719.368ZM383.85 719.368L383.121 720.053L383.132 720.064L383.142 720.075L383.85 719.368ZM383.85 763.912L383.142 763.205L383.132 763.216L383.121 763.227L383.85 763.912ZM353.578 764C352.874 764 352.272 763.752 351.725 763.205L350.31 764.619C351.214 765.523 352.318 766 353.578 766V764ZM351.746 763.227C351.235 762.684 350.994 762.074 350.994 761.352H348.994C348.994 762.592 349.435 763.69 350.289 764.597L351.746 763.227ZM350.994 761.352V721.928H348.994V761.352H350.994ZM350.994 721.928C350.994 721.206 351.235 720.596 351.746 720.053L350.289 718.683C349.435 719.59 348.994 720.688 348.994 721.928H350.994ZM351.725 720.075C352.272 719.528 352.874 719.28 353.578 719.28V717.28C352.318 717.28 351.214 717.757 350.31 718.661L351.725 720.075ZM353.578 719.28H355.306V717.28H353.578V719.28ZM355.306 719.28C356.009 719.28 356.611 719.528 357.158 720.075L358.573 718.661C357.669 717.757 356.565 717.28 355.306 717.28V719.28ZM357.158 720.075C357.706 720.622 357.954 721.225 357.954 721.928H359.954C359.954 720.668 359.476 719.564 358.573 718.661L357.158 720.075ZM357.954 721.928V736.456H359.954V721.928H357.954ZM357.954 736.456C357.954 736.781 358.035 737.208 358.374 737.547C358.713 737.886 359.141 737.968 359.466 737.968V735.968C359.449 735.968 359.62 735.965 359.789 736.133C359.957 736.301 359.954 736.473 359.954 736.456H357.954ZM359.466 737.968H375.466V735.968H359.466V737.968ZM375.466 737.968C375.79 737.968 376.218 737.886 376.557 737.547C376.896 737.208 376.978 736.781 376.978 736.456H374.978C374.978 736.473 374.974 736.301 375.142 736.133C375.311 735.965 375.482 735.968 375.466 735.968V737.968ZM376.978 736.456V721.928H374.978V736.456H376.978ZM376.978 721.928C376.978 721.225 377.225 720.622 377.773 720.075L376.358 718.661C375.455 719.564 374.978 720.668 374.978 721.928H376.978ZM377.773 720.075C378.32 719.528 378.922 719.28 379.626 719.28V717.28C378.366 717.28 377.262 717.757 376.358 718.661L377.773 720.075ZM379.626 719.28H381.354V717.28H379.626V719.28ZM381.354 719.28C382.054 719.28 382.624 719.525 383.121 720.053L384.578 718.683C383.709 717.76 382.615 717.28 381.354 717.28V719.28ZM383.142 720.075C383.69 720.622 383.938 721.225 383.938 721.928H385.938C385.938 720.668 385.46 719.564 384.557 718.661L383.142 720.075ZM383.938 721.928V761.352H385.938V721.928H383.938ZM383.938 761.352C383.938 762.055 383.69 762.658 383.142 763.205L384.557 764.619C385.46 763.716 385.938 762.612 385.938 761.352H383.938ZM383.121 763.227C382.624 763.755 382.054 764 381.354 764V766C382.615 766 383.709 765.52 384.578 764.597L383.121 763.227ZM381.354 764H379.626V766H381.354V764ZM379.626 764C378.922 764 378.32 763.752 377.773 763.205L376.358 764.619C377.262 765.523 378.366 766 379.626 766V764ZM377.773 763.205C377.225 762.658 376.978 762.055 376.978 761.352H374.978C374.978 762.612 375.455 763.716 376.358 764.619L377.773 763.205ZM376.978 761.352V744.392H374.978V761.352H376.978ZM376.978 744.392C376.978 744.073 376.909 743.647 376.597 743.296C376.265 742.922 375.823 742.816 375.466 742.816V744.816C375.45 744.816 375.264 744.806 375.102 744.624C374.961 744.465 374.978 744.327 374.978 744.392H376.978ZM375.466 742.816H359.466V744.816H375.466V742.816ZM359.466 742.816C359.108 742.816 358.666 742.922 358.334 743.296C358.022 743.647 357.954 744.073 357.954 744.392H359.954C359.954 744.327 359.97 744.465 359.829 744.624C359.667 744.806 359.481 744.816 359.466 744.816V742.816ZM357.954 744.392V761.352H359.954V744.392H357.954ZM357.954 761.352C357.954 762.055 357.706 762.658 357.158 763.205L358.573 764.619C359.476 763.716 359.954 762.612 359.954 761.352H357.954ZM357.158 763.205C356.611 763.752 356.009 764 355.306 764V766C356.565 766 357.669 765.523 358.573 764.619L357.158 763.205ZM355.306 764H353.578V766H355.306V764ZM396.144 763.912L395.437 764.619L395.437 764.619L396.144 763.912ZM396.144 719.368L395.437 718.661L395.437 718.661L396.144 719.368ZM423.024 719.368L423.731 718.661L423.731 718.661L423.024 719.368ZM423.024 724.488L423.709 725.216L423.72 725.206L423.731 725.195L423.024 724.488ZM421.808 737.992L421.078 738.676L421.089 738.688L421.101 738.699L421.808 737.992ZM423.024 758.856L422.317 759.563L422.328 759.574L422.339 759.584L423.024 758.856ZM398.704 764C398.001 764 397.398 763.752 396.851 763.205L395.437 764.619C396.34 765.523 397.444 766 398.704 766V764ZM396.851 763.205C396.304 762.658 396.056 762.055 396.056 761.352H394.056C394.056 762.612 394.533 763.716 395.437 764.619L396.851 763.205ZM396.056 761.352V721.928H394.056V761.352H396.056ZM396.056 721.928C396.056 721.225 396.304 720.622 396.851 720.075L395.437 718.661C394.533 719.564 394.056 720.668 394.056 721.928H396.056ZM396.851 720.075C397.398 719.528 398.001 719.28 398.704 719.28V717.28C397.444 717.28 396.34 717.757 395.437 718.661L396.851 720.075ZM398.704 719.28H420.464V717.28H398.704V719.28ZM420.464 719.28C421.167 719.28 421.77 719.528 422.317 720.075L423.731 718.661C422.828 717.757 421.724 717.28 420.464 717.28V719.28ZM422.317 720.075C422.864 720.622 423.112 721.225 423.112 721.928H425.112C425.112 720.668 424.635 719.564 423.731 718.661L422.317 720.075ZM423.112 721.928C423.112 722.631 422.864 723.234 422.317 723.781L423.731 725.195C424.635 724.292 425.112 723.188 425.112 721.928H423.112ZM422.339 723.76C421.796 724.271 421.186 724.512 420.464 724.512V726.512C421.704 726.512 422.802 726.071 423.709 725.216L422.339 723.76ZM420.464 724.512H404.592V726.512H420.464V724.512ZM404.592 724.512C404.246 724.512 403.803 724.599 403.453 724.949C403.103 725.299 403.016 725.742 403.016 726.088H405.016C405.016 726.05 405.025 726.205 404.867 726.363C404.709 726.521 404.554 726.512 404.592 726.512V724.512ZM403.016 726.088V736.392H405.016V726.088H403.016ZM403.016 736.392C403.016 736.738 403.103 737.181 403.453 737.531C403.803 737.881 404.246 737.968 404.592 737.968V735.968C404.554 735.968 404.709 735.959 404.867 736.117C405.025 736.275 405.016 736.43 405.016 736.392H403.016ZM404.592 737.968H419.376V735.968H404.592V737.968ZM419.376 737.968C420.096 737.968 420.638 738.206 421.078 738.676L422.538 737.308C421.698 736.413 420.619 735.968 419.376 735.968V737.968ZM421.101 738.699C421.602 739.2 421.832 739.759 421.832 740.424H423.832C423.832 739.212 423.379 738.149 422.515 737.285L421.101 738.699ZM421.832 740.424C421.832 741.089 421.602 741.648 421.101 742.149L422.515 743.563C423.379 742.699 423.832 741.636 423.832 740.424H421.832ZM421.101 742.149C420.665 742.585 420.117 742.816 419.376 742.816V744.816C420.598 744.816 421.671 744.407 422.515 743.563L421.101 742.149ZM419.376 742.816H404.592V744.816H419.376V742.816ZM404.592 742.816C404.246 742.816 403.803 742.903 403.453 743.253C403.103 743.603 403.016 744.046 403.016 744.392H405.016C405.016 744.354 405.025 744.509 404.867 744.667C404.709 744.825 404.554 744.816 404.592 744.816V742.816ZM403.016 744.392V757.192H405.016V744.392H403.016ZM403.016 757.192C403.016 757.538 403.103 757.981 403.453 758.331C403.803 758.681 404.246 758.768 404.592 758.768V756.768C404.554 756.768 404.709 756.759 404.867 756.917C405.025 757.075 405.016 757.23 405.016 757.192H403.016ZM404.592 758.768H420.464V756.768H404.592V758.768ZM420.464 758.768C421.167 758.768 421.77 759.016 422.317 759.563L423.731 758.149C422.828 757.245 421.724 756.768 420.464 756.768V758.768ZM422.339 759.584C422.867 760.081 423.112 760.651 423.112 761.352H425.112C425.112 760.09 424.632 758.996 423.709 758.128L422.339 759.584ZM423.112 761.352C423.112 762.055 422.864 762.658 422.317 763.205L423.731 764.619C424.635 763.716 425.112 762.612 425.112 761.352H423.112ZM422.317 763.205C421.77 763.752 421.167 764 420.464 764V766C421.724 766 422.828 765.523 423.731 764.619L422.317 763.205ZM420.464 764H398.704V766H420.464V764ZM442.964 724.936L442.814 723.947L442.78 723.952L442.747 723.96L442.964 724.936ZM434.644 763.912L433.937 764.619L433.937 764.619L434.644 763.912ZM437.14 718.152L437.223 719.149L437.234 719.148L437.14 718.152ZM461.716 721.16L461.114 721.959L461.121 721.964L461.716 721.16ZM463.892 738.952L463.081 738.366L463.074 738.377L463.892 738.952ZM457.3 743.816V744.816H457.465L457.621 744.763L457.3 743.816ZM457.3 744.008L457.83 743.16L457.587 743.008H457.3V744.008ZM462.548 751.56L463.482 751.203L463.481 751.2L462.548 751.56ZM466.388 761.608L467.326 761.262L467.322 761.251L466.388 761.608ZM466.068 763.912L465.251 763.335L465.239 763.352L465.228 763.369L466.068 763.912ZM459.092 764.104L458.511 764.918L458.524 764.927L458.537 764.936L459.092 764.104ZM457.172 761.608L456.232 761.95L456.236 761.959L457.172 761.608ZM453.588 751.752L454.528 751.41L454.524 751.401L453.588 751.752ZM450.964 747.72L450.418 748.558L450.418 748.558L450.964 747.72ZM441.3 763.912L440.593 763.205L440.582 763.216L440.572 763.227L441.3 763.912ZM441.388 725.576V739.464H443.388V725.576H441.388ZM441.388 739.464C441.388 739.821 441.494 740.263 441.868 740.595C442.219 740.908 442.645 740.976 442.964 740.976V738.976C442.899 738.976 443.037 738.959 443.196 739.101C443.378 739.262 443.388 739.448 443.388 739.464H441.388ZM442.964 740.976H446.164V738.976H442.964V740.976ZM446.164 740.976C450.05 740.976 453.144 740.288 455.289 738.758C457.496 737.183 458.556 734.821 458.556 731.848H456.556C456.556 734.294 455.718 735.995 454.127 737.13C452.475 738.309 449.873 738.976 446.164 738.976V740.976ZM458.556 731.848C458.556 729.157 457.552 727.017 455.481 725.599C453.478 724.227 450.599 723.616 446.996 723.616V725.616C450.433 725.616 452.834 726.21 454.351 727.249C455.8 728.241 456.556 729.717 456.556 731.848H458.556ZM446.996 723.616C445.661 723.616 444.266 723.727 442.814 723.947L443.114 725.925C444.478 725.718 445.771 725.616 446.996 725.616V723.616ZM442.747 723.96C442.426 724.031 442.067 724.182 441.789 724.491C441.497 724.815 441.388 725.208 441.388 725.576H443.388C443.388 725.584 443.387 725.62 443.369 725.671C443.35 725.725 443.319 725.781 443.275 725.829C443.189 725.925 443.118 725.926 443.181 725.912L442.747 723.96ZM437.204 764C436.501 764 435.898 763.752 435.351 763.205L433.937 764.619C434.84 765.523 435.944 766 437.204 766V764ZM435.351 763.205C434.804 762.658 434.556 762.055 434.556 761.352H432.556C432.556 762.612 433.033 763.716 433.937 764.619L435.351 763.205ZM434.556 761.352V722.248H432.556V761.352H434.556ZM434.556 722.248C434.556 721.469 434.808 720.777 435.345 720.14L433.815 718.852C432.986 719.836 432.556 720.979 432.556 722.248H434.556ZM435.345 720.14C435.862 719.526 436.473 719.211 437.223 719.149L437.057 717.155C435.759 717.264 434.663 717.845 433.815 718.852L435.345 720.14ZM437.234 719.148C440.832 718.809 444.299 718.64 447.636 718.64V716.64C444.232 716.64 440.702 716.812 437.046 717.156L437.234 719.148ZM447.636 718.64C453.813 718.64 458.25 719.801 461.114 721.959L462.318 720.361C458.952 717.826 454.003 716.64 447.636 716.64V718.64ZM461.121 721.964C463.955 724.06 465.388 727.012 465.388 730.952H467.388C467.388 726.444 465.706 722.868 462.311 720.356L461.121 721.964ZM465.388 730.952C465.388 733.786 464.614 736.244 463.081 738.367L464.703 739.537C466.498 737.052 467.388 734.177 467.388 730.952H465.388ZM463.074 738.377C461.58 740.5 459.56 741.995 456.979 742.869L457.621 744.763C460.586 743.759 462.961 742.012 464.71 739.527L463.074 738.377ZM457.3 742.816C457.125 742.816 456.809 742.861 456.545 743.125C456.281 743.389 456.236 743.705 456.236 743.88H458.236C458.236 744.013 458.202 744.296 457.959 744.539C457.716 744.782 457.433 744.816 457.3 744.816V742.816ZM456.236 743.88C456.236 743.974 456.242 744.193 456.358 744.423C456.422 744.553 456.534 744.71 456.717 744.832C456.907 744.959 457.114 745.008 457.3 745.008V743.008C457.464 743.008 457.653 743.052 457.827 743.168C457.994 743.28 458.092 743.421 458.146 743.529C458.24 743.716 458.236 743.872 458.236 743.88H456.236ZM456.77 744.856C458.548 745.967 460.195 748.245 461.615 751.92L463.481 751.2C461.999 747.366 460.148 744.609 457.83 743.16L456.77 744.856ZM461.614 751.917L465.454 761.965L467.322 761.251L463.482 751.203L461.614 751.917ZM465.45 761.954C465.631 762.446 465.58 762.87 465.251 763.335L466.885 764.489C467.58 763.503 467.742 762.392 467.326 761.262L465.45 761.954ZM465.228 763.369C464.941 763.814 464.593 764 464.084 764V766C465.282 766 466.257 765.461 466.908 764.455L465.228 763.369ZM464.084 764H462.1V766H464.084V764ZM462.1 764C461.182 764 460.373 763.756 459.647 763.272L458.537 764.936C459.603 765.646 460.8 766 462.1 766V764ZM459.673 763.29C458.938 762.765 458.422 762.093 458.108 761.257L456.236 761.959C456.69 763.171 457.454 764.163 458.511 764.918L459.673 763.29ZM458.112 761.266L454.528 751.41L452.648 752.094L456.232 761.95L458.112 761.266ZM454.524 751.401C453.737 749.303 452.769 747.703 451.51 746.882L450.418 748.558C451.122 749.017 451.903 750.105 452.652 752.103L454.524 751.401ZM451.51 746.882C450.269 746.073 448.327 745.76 445.908 745.76V747.76C448.268 747.76 449.697 748.087 450.418 748.558L451.51 746.882ZM445.908 745.76H442.964V747.76H445.908V745.76ZM442.964 745.76C442.618 745.76 442.175 745.847 441.825 746.197C441.475 746.547 441.388 746.99 441.388 747.336H443.388C443.388 747.298 443.397 747.453 443.239 747.611C443.081 747.769 442.926 747.76 442.964 747.76V745.76ZM441.388 747.336V761.352H443.388V747.336H441.388ZM441.388 761.352C441.388 762.055 441.14 762.658 440.593 763.205L442.007 764.619C442.911 763.716 443.388 762.612 443.388 761.352H441.388ZM440.572 763.227C440.075 763.755 439.505 764 438.804 764V766C440.066 766 441.16 765.52 442.028 764.597L440.572 763.227ZM438.804 764H437.204V766H438.804V764ZM486.422 745.288L486.753 744.344L486.745 744.342L486.738 744.339L486.422 745.288ZM475.286 739.08L474.553 739.761L474.56 739.768L475.286 739.08ZM475.798 721.032L475.142 720.277L475.142 720.277L475.798 721.032ZM497.11 718.984L496.818 719.941L496.83 719.944L497.11 718.984ZM499.542 720.84L498.698 721.377L498.712 721.399L498.728 721.421L499.542 720.84ZM499.414 726.344L499.921 727.206L499.939 727.195L499.957 727.184L499.414 726.344ZM497.174 726.536L497.536 725.604L497.534 725.603L497.174 726.536ZM482.518 726.152L483.18 726.901L483.18 726.901L482.518 726.152ZM486.87 736.84L486.556 737.79L486.566 737.793L486.87 736.84ZM498.838 743.112L498.111 743.799L498.117 743.806L498.838 743.112ZM476.246 764.04L476.6 763.105L476.597 763.104L476.246 764.04ZM473.814 762.056L472.953 762.565L472.961 762.579L472.97 762.593L473.814 762.056ZM474.006 756.424L474.453 757.318L474.475 757.308L474.496 757.296L474.006 756.424ZM476.118 756.36L476.565 755.466L476.554 755.46L476.543 755.455L476.118 756.36ZM491.606 748.232L490.871 748.91L490.877 748.917L490.884 748.925L491.606 748.232ZM486.738 744.339C481.688 742.656 478.154 740.653 476.011 738.392L474.56 739.768C477.025 742.371 480.915 744.506 486.105 746.237L486.738 744.339ZM476.018 738.399C473.936 736.16 472.894 733.463 472.894 730.248H470.894C470.894 733.945 472.112 737.136 474.553 739.761L476.018 738.399ZM472.894 730.248C472.894 726.614 474.098 723.833 476.453 721.787L475.142 720.277C472.291 722.754 470.894 726.117 470.894 730.248H472.894ZM476.453 721.787C478.817 719.733 482.202 718.64 486.742 718.64V716.64C481.895 716.64 477.983 717.808 475.142 720.277L476.453 721.787ZM486.742 718.64C490.638 718.64 493.991 719.08 496.818 719.941L497.401 718.027C494.34 717.096 490.781 716.64 486.742 716.64V718.64ZM496.83 719.944C497.61 720.172 498.225 720.633 498.698 721.377L500.385 720.303C499.664 719.169 498.657 718.394 497.39 718.024L496.83 719.944ZM498.728 721.421C499.246 722.146 499.502 722.945 499.502 723.848H501.502C501.502 722.532 501.117 721.326 500.355 720.259L498.728 721.421ZM499.502 723.848V724.424H501.502V723.848H499.502ZM499.502 724.424C499.502 724.87 499.333 725.205 498.87 725.504L499.957 727.184C500.944 726.544 501.502 725.6 501.502 724.424H499.502ZM498.906 725.482C498.438 725.757 498.012 725.789 497.536 725.604L496.811 727.468C497.871 727.88 498.938 727.784 499.921 727.206L498.906 725.482ZM497.534 725.603C494.223 724.323 490.837 723.68 487.382 723.68V725.68C490.582 725.68 493.724 726.274 496.813 727.469L497.534 725.603ZM487.382 723.68C485.11 723.68 483.213 724.201 481.855 725.403L483.18 726.901C484.04 726.14 485.386 725.68 487.382 725.68V723.68ZM481.855 725.403C480.492 726.609 479.854 728.269 479.854 730.248H481.854C481.854 728.728 482.325 727.658 483.18 726.901L481.855 725.403ZM479.854 730.248C479.854 732.024 480.442 733.585 481.619 734.874C482.776 736.142 484.452 737.096 486.556 737.79L487.183 735.89C485.276 735.261 483.944 734.455 483.096 733.526C482.268 732.618 481.854 731.544 481.854 730.248H479.854ZM486.566 737.793C492.283 739.614 496.071 741.642 498.111 743.799L499.564 742.425C497.167 739.889 492.976 737.736 487.173 735.887L486.566 737.793ZM498.117 743.806C500.174 745.94 501.229 748.708 501.229 752.2H503.229C503.229 748.268 502.024 744.977 499.558 742.418L498.117 743.806ZM501.229 752.2C501.229 756.464 499.925 759.501 497.456 761.503C494.946 763.538 491.07 764.64 485.654 764.64V766.64C491.288 766.64 495.699 765.502 498.715 763.057C501.771 760.579 503.229 756.896 503.229 752.2H501.229ZM485.654 764.64C482.301 764.64 479.287 764.123 476.6 763.105L475.891 764.975C478.836 766.091 482.094 766.64 485.654 766.64V764.64ZM476.597 763.104C475.78 762.797 475.14 762.278 474.657 761.519L472.97 762.593C473.681 763.711 474.663 764.515 475.894 764.976L476.597 763.104ZM474.674 761.547C474.216 760.772 473.982 759.904 473.982 758.92H471.982C471.982 760.24 472.302 761.463 472.953 762.565L474.674 761.547ZM473.982 758.92V758.152H471.982V758.92H473.982ZM473.982 758.152C473.982 757.888 474.036 757.726 474.098 757.622C474.157 757.521 474.258 757.416 474.453 757.318L473.558 755.53C473.07 755.774 472.659 756.127 472.377 756.602C472.098 757.074 471.982 757.605 471.982 758.152H473.982ZM474.496 757.296C474.889 757.075 475.251 757.057 475.692 757.265L476.543 755.455C475.533 754.98 474.488 755.005 473.515 755.552L474.496 757.296ZM475.67 757.254C478.624 758.731 481.742 759.472 485.014 759.472V757.472C482.056 757.472 479.243 756.805 476.565 755.466L475.67 757.254ZM485.014 759.472C487.82 759.472 490.108 758.947 491.713 757.734C493.37 756.481 494.142 754.617 494.142 752.328H492.142C492.142 754.135 491.559 755.343 490.506 756.138C489.402 756.973 487.625 757.472 485.014 757.472V759.472ZM494.142 752.328C494.142 750.441 493.553 748.816 492.327 747.539L490.884 748.925C491.706 749.781 492.142 750.887 492.142 752.328H494.142ZM492.34 747.554C491.153 746.267 489.244 745.218 486.753 744.344L486.09 746.232C488.463 747.064 490.01 747.978 490.871 748.91L492.34 747.554Z" fill="black"/>
<path opacity="0.4" d="M643.667 306.423V463.424C643.667 502.674 630.583 535.382 607.557 558.409C584.792 581.174 552.083 594.257 512.833 594.257V649.992C512.833 670.925 489.545 683.485 472.275 671.972L355.833 594.257H300.36C302.453 586.407 303.5 578.295 303.5 569.922C303.5 543.232 293.295 518.635 276.548 500.057C257.708 478.6 229.71 465.255 198.833 465.255C169.527 465.255 142.837 477.292 123.735 496.917C121.38 486.45 120.333 475.199 120.333 463.424V306.423C120.333 227.923 172.667 175.59 251.167 175.59H512.833C591.333 175.59 643.667 227.923 643.667 306.423Z" fill="#292D32"/>
<path d="M473.583 406.375H290.417C279.688 406.375 270.792 397.478 270.792 386.75C270.792 376.022 279.688 367.125 290.417 367.125H473.583C484.312 367.125 493.208 376.022 493.208 386.75C493.208 397.478 484.312 406.375 473.583 406.375Z" fill="#292D32"/>
<path d="M276.548 500.052C257.708 478.595 229.71 465.25 198.833 465.25C141.005 465.25 94.1667 512.088 94.1667 569.917C94.1667 589.542 99.6614 608.12 109.343 623.82C114.576 632.717 121.38 640.828 129.23 647.632C147.547 664.378 171.882 674.583 198.833 674.583C237.037 674.583 270.269 654.173 288.324 623.82C298.005 608.12 303.5 589.542 303.5 569.917C303.5 543.227 293.295 518.63 276.548 500.052ZM240.7 611.26C236.775 615.185 231.804 617.017 226.832 617.017C221.86 617.017 216.889 615.185 212.964 611.26L199.095 597.392L184.703 611.783C180.778 615.708 175.806 617.54 170.835 617.54C165.863 617.54 160.891 615.708 156.966 611.783C149.378 604.195 149.378 591.635 156.966 584.047L171.359 569.655L157.49 555.787C149.902 548.198 149.902 535.638 157.49 528.05C165.079 520.462 177.639 520.462 185.227 528.05L199.095 541.918L212.179 528.835C219.767 521.247 232.327 521.247 239.915 528.835C247.504 536.423 247.504 548.983 239.915 556.572L226.832 569.655L240.7 583.523C248.289 591.112 248.289 603.41 240.7 611.26Z" fill="#292D32"/>
</svg>
