<svg width="800" height="800" viewBox="0 0 800 800" fill="none" xmlns="http://www.w3.org/2000/svg">
<path d="M379.12 717.216L373.488 737.312C373.445 737.44 373.467 737.568 373.552 737.696C373.637 737.824 373.744 737.888 373.872 737.888H384.496C384.624 737.888 384.731 737.824 384.816 737.696C384.901 737.568 384.923 737.44 384.88 737.312L379.248 717.216C379.248 717.173 379.227 717.152 379.184 717.152C379.141 717.152 379.12 717.173 379.12 717.216ZM362.544 756C361.648 756 360.944 755.637 360.432 754.912C359.92 754.187 359.813 753.397 360.112 752.544L373.36 712.736C373.744 711.712 374.363 710.88 375.216 710.24C376.112 709.6 377.093 709.28 378.16 709.28H380.464C381.573 709.28 382.555 709.6 383.408 710.24C384.304 710.88 384.923 711.712 385.264 712.736L398.512 752.544C398.811 753.397 398.704 754.187 398.192 754.912C397.68 755.637 396.976 756 396.08 756H393.776C392.752 756 391.792 755.68 390.896 755.04C390.043 754.357 389.467 753.504 389.168 752.48L387.12 745.248C387.077 744.907 386.843 744.736 386.416 744.736H371.952C371.568 744.736 371.333 744.907 371.248 745.248L369.2 752.48C368.944 753.504 368.368 754.357 367.472 755.04C366.619 755.68 365.659 756 364.592 756H362.544ZM409.797 756C408.815 756 407.962 755.637 407.237 754.912C406.511 754.187 406.149 753.333 406.149 752.352V711.648C406.149 710.667 406.511 709.813 407.237 709.088C407.962 708.363 408.815 708 409.797 708H411.461C412.442 708 413.295 708.363 414.021 709.088C414.746 709.813 415.109 710.667 415.109 711.648V752.352C415.109 753.333 414.746 754.187 414.021 754.912C413.295 755.637 412.442 756 411.461 756H409.797ZM430.172 756C429.19 756 428.337 755.637 427.612 754.912C426.886 754.187 426.524 753.333 426.524 752.352V711.648C426.524 710.667 426.886 709.813 427.612 709.088C428.337 708.363 429.19 708 430.172 708H431.836C432.817 708 433.67 708.363 434.396 709.088C435.121 709.813 435.484 710.667 435.484 711.648V752.352C435.484 753.333 435.121 754.187 434.396 754.912C433.67 755.637 432.817 756 431.836 756H430.172Z" fill="black"/>
<path d="M379.12 717.216L380.083 717.486L380.12 717.353V717.216H379.12ZM373.488 737.312L374.437 737.628L374.444 737.605L374.451 737.582L373.488 737.312ZM373.552 737.696L374.384 737.141L374.384 737.141L373.552 737.696ZM384.88 737.312L383.917 737.582L383.924 737.605L383.931 737.628L384.88 737.312ZM379.248 717.216H378.248V717.353L378.285 717.486L379.248 717.216ZM360.432 754.912L361.249 754.335L361.249 754.335L360.432 754.912ZM360.112 752.544L361.056 752.874L361.058 752.867L361.061 752.86L360.112 752.544ZM373.36 712.736L372.424 712.385L372.417 712.402L372.411 712.42L373.36 712.736ZM375.216 710.24L374.635 709.426L374.625 709.433L374.616 709.44L375.216 710.24ZM383.408 710.24L382.808 711.04L382.817 711.047L382.827 711.054L383.408 710.24ZM385.264 712.736L386.213 712.42L386.213 712.42L385.264 712.736ZM398.512 752.544L397.563 752.86L397.566 752.867L397.568 752.874L398.512 752.544ZM398.192 754.912L397.375 754.335L397.375 754.335L398.192 754.912ZM390.896 755.04L390.271 755.821L390.293 755.838L390.315 755.854L390.896 755.04ZM389.168 752.48L388.206 752.752L388.208 752.76L389.168 752.48ZM387.12 745.248L386.128 745.372L386.137 745.447L386.158 745.52L387.12 745.248ZM371.248 745.248L372.21 745.52L372.214 745.506L372.218 745.491L371.248 745.248ZM369.2 752.48L368.238 752.208L368.234 752.222L368.23 752.237L369.2 752.48ZM367.472 755.04L368.072 755.84L368.078 755.835L367.472 755.04ZM378.157 716.946L372.525 737.042L374.451 737.582L380.083 717.486L378.157 716.946ZM372.539 736.996C372.385 737.46 372.491 737.907 372.72 738.251L374.384 737.141C374.405 737.173 374.442 737.241 374.458 737.34C374.476 737.443 374.465 737.544 374.437 737.628L372.539 736.996ZM372.72 738.251C372.948 738.592 373.339 738.888 373.872 738.888V736.888C373.984 736.888 374.104 736.918 374.21 736.983C374.311 737.043 374.364 737.111 374.384 737.141L372.72 738.251ZM373.872 738.888H384.496V736.888H373.872V738.888ZM384.496 738.888C385.029 738.888 385.42 738.592 385.648 738.251L383.984 737.141C384.004 737.111 384.057 737.043 384.158 736.983C384.264 736.918 384.384 736.888 384.496 736.888V738.888ZM385.648 738.251C385.877 737.907 385.983 737.46 385.829 736.996L383.931 737.628C383.903 737.544 383.892 737.443 383.91 737.34C383.926 737.241 383.963 737.173 383.984 737.141L385.648 738.251ZM385.843 737.042L380.211 716.946L378.285 717.486L383.917 737.582L385.843 737.042ZM380.248 717.216C380.248 717.041 380.203 716.725 379.939 716.461C379.675 716.197 379.359 716.152 379.184 716.152V718.152C379.051 718.152 378.768 718.118 378.525 717.875C378.282 717.632 378.248 717.349 378.248 717.216H380.248ZM379.184 716.152C379.009 716.152 378.693 716.197 378.429 716.461C378.165 716.725 378.12 717.041 378.12 717.216H380.12C380.12 717.349 380.086 717.632 379.843 717.875C379.6 718.118 379.317 718.152 379.184 718.152V716.152ZM362.544 755C361.969 755 361.572 754.792 361.249 754.335L359.615 755.489C360.316 756.482 361.327 757 362.544 757V755ZM361.249 754.335C360.927 753.88 360.862 753.429 361.056 752.874L359.168 752.214C358.765 753.365 358.913 754.494 359.615 755.489L361.249 754.335ZM361.061 752.86L374.309 713.052L372.411 712.42L359.163 752.228L361.061 752.86ZM374.296 713.087C374.615 712.237 375.119 711.563 375.816 711.04L374.616 709.44C373.606 710.197 372.873 711.187 372.424 712.385L374.296 713.087ZM375.797 711.054C376.529 710.531 377.309 710.28 378.16 710.28V708.28C376.878 708.28 375.695 708.669 374.635 709.426L375.797 711.054ZM378.16 710.28H380.464V708.28H378.16V710.28ZM380.464 710.28C381.366 710.28 382.135 710.535 382.808 711.04L384.008 709.44C382.974 708.665 381.78 708.28 380.464 708.28V710.28ZM382.827 711.054C383.554 711.574 384.042 712.233 384.315 713.052L386.213 712.42C385.803 711.191 385.054 710.186 383.989 709.426L382.827 711.054ZM384.315 713.052L397.563 752.86L399.461 752.228L386.213 712.42L384.315 713.052ZM397.568 752.874C397.762 753.429 397.697 753.88 397.375 754.335L399.009 755.489C399.711 754.494 399.859 753.365 399.456 752.214L397.568 752.874ZM397.375 754.335C397.052 754.792 396.655 755 396.08 755V757C397.297 757 398.308 756.482 399.009 755.489L397.375 754.335ZM396.08 755H393.776V757H396.08V755ZM393.776 755C392.976 755 392.217 754.755 391.477 754.226L390.315 755.854C391.367 756.605 392.528 757 393.776 757V755ZM391.521 754.259C390.824 753.702 390.368 753.021 390.128 752.2L388.208 752.76C388.566 753.987 389.262 755.013 390.271 755.821L391.521 754.259ZM390.13 752.208L388.082 744.976L386.158 745.52L388.206 752.752L390.13 752.208ZM388.112 745.124C388.064 744.734 387.882 744.333 387.5 744.055C387.149 743.8 386.746 743.736 386.416 743.736V745.736C386.513 745.736 386.441 745.758 386.324 745.673C386.261 745.627 386.209 745.567 386.173 745.5C386.138 745.437 386.13 745.388 386.128 745.372L388.112 745.124ZM386.416 743.736H371.952V745.736H386.416V743.736ZM371.952 743.736C371.616 743.736 371.236 743.811 370.9 744.055C370.555 744.306 370.365 744.657 370.278 745.005L372.218 745.491C372.218 745.491 372.217 745.497 372.212 745.508C372.207 745.519 372.2 745.535 372.188 745.554C372.163 745.594 372.125 745.637 372.076 745.673C371.975 745.746 371.904 745.736 371.952 745.736V743.736ZM370.286 744.976L368.238 752.208L370.162 752.752L372.21 745.52L370.286 744.976ZM368.23 752.237C368.033 753.026 367.594 753.69 366.866 754.245L368.078 755.835C369.142 755.025 369.855 753.982 370.17 752.723L368.23 752.237ZM366.872 754.24C366.192 754.75 365.442 755 364.592 755V757C365.875 757 367.046 756.61 368.072 755.84L366.872 754.24ZM364.592 755H362.544V757H364.592V755ZM414.021 709.088L414.728 708.381L414.728 708.381L414.021 709.088ZM414.021 754.912L414.728 755.619L414.728 755.619L414.021 754.912ZM409.797 755C409.093 755 408.491 754.752 407.944 754.205L406.529 755.619C407.433 756.523 408.537 757 409.797 757V755ZM407.944 754.205C407.396 753.658 407.149 753.055 407.149 752.352H405.149C405.149 753.612 405.626 754.716 406.529 755.619L407.944 754.205ZM407.149 752.352V711.648H405.149V752.352H407.149ZM407.149 711.648C407.149 710.945 407.396 710.342 407.944 709.795L406.529 708.381C405.626 709.284 405.149 710.388 405.149 711.648H407.149ZM407.944 709.795C408.491 709.248 409.093 709 409.797 709V707C408.537 707 407.433 707.477 406.529 708.381L407.944 709.795ZM409.797 709H411.461V707H409.797V709ZM411.461 709C412.164 709 412.766 709.248 413.313 709.795L414.728 708.381C413.824 707.477 412.72 707 411.461 707V709ZM413.313 709.795C413.861 710.342 414.109 710.945 414.109 711.648H416.109C416.109 710.388 415.631 709.284 414.728 708.381L413.313 709.795ZM414.109 711.648V752.352H416.109V711.648H414.109ZM414.109 752.352C414.109 753.055 413.861 753.658 413.313 754.205L414.728 755.619C415.631 754.716 416.109 753.612 416.109 752.352H414.109ZM413.313 754.205C412.766 754.752 412.164 755 411.461 755V757C412.72 757 413.824 756.523 414.728 755.619L413.313 754.205ZM411.461 755H409.797V757H411.461V755ZM434.396 709.088L435.103 708.381L435.103 708.381L434.396 709.088ZM434.396 754.912L435.103 755.619L435.103 755.619L434.396 754.912ZM430.172 755C429.468 755 428.866 754.752 428.319 754.205L426.904 755.619C427.808 756.523 428.912 757 430.172 757V755ZM428.319 754.205C427.771 753.658 427.524 753.055 427.524 752.352H425.524C425.524 753.612 426.001 754.716 426.904 755.619L428.319 754.205ZM427.524 752.352V711.648H425.524V752.352H427.524ZM427.524 711.648C427.524 710.945 427.771 710.342 428.319 709.795L426.904 708.381C426.001 709.284 425.524 710.388 425.524 711.648H427.524ZM428.319 709.795C428.866 709.248 429.468 709 430.172 709V707C428.912 707 427.808 707.477 426.904 708.381L428.319 709.795ZM430.172 709H431.836V707H430.172V709ZM431.836 709C432.539 709 433.141 709.248 433.688 709.795L435.103 708.381C434.199 707.477 433.095 707 431.836 707V709ZM433.688 709.795C434.236 710.342 434.484 710.945 434.484 711.648H436.484C436.484 710.388 436.006 709.284 435.103 708.381L433.688 709.795ZM434.484 711.648V752.352H436.484V711.648H434.484ZM434.484 752.352C434.484 753.055 434.236 753.658 433.688 754.205L435.103 755.619C436.006 754.716 436.484 753.612 436.484 752.352H434.484ZM433.688 754.205C433.141 754.752 432.539 755 431.836 755V757C433.095 757 434.199 756.523 435.103 755.619L433.688 754.205ZM431.836 755H430.172V757H431.836V755Z" fill="black"/>
<g clip-path="url(#clip0_1_30)">
<path d="M170 196.989H365.776V392.766H170V196.989Z" fill="#5D9CEC"/>
<path d="M434.702 195.806H626.79V387.894H434.702V195.806Z" fill="#ED5564"/>
<path d="M170.63 447.412H366.407V643.189H170.63V447.412ZM435.327 446.229H627.415V638.317H435.327V446.229Z" fill="#5D9CEC"/>
</g>
<defs>
<clipPath id="clip0_1_30">
<rect width="457" height="457" fill="white" transform="translate(170 191)"/>
</clipPath>
</defs>
</svg>
