<svg width="800" height="800" viewBox="0 0 800 800" fill="none" xmlns="http://www.w3.org/2000/svg">
<path d="M247.12 719.216L241.488 739.312C241.445 739.44 241.467 739.568 241.552 739.696C241.637 739.824 241.744 739.888 241.872 739.888H252.496C252.624 739.888 252.731 739.824 252.816 739.696C252.901 739.568 252.923 739.44 252.88 739.312L247.248 719.216C247.248 719.173 247.227 719.152 247.184 719.152C247.141 719.152 247.12 719.173 247.12 719.216ZM230.544 758C229.648 758 228.944 757.637 228.432 756.912C227.92 756.187 227.813 755.397 228.112 754.544L241.36 714.736C241.744 713.712 242.363 712.88 243.216 712.24C244.112 711.6 245.093 711.28 246.16 711.28H248.464C249.573 711.28 250.555 711.6 251.408 712.24C252.304 712.88 252.923 713.712 253.264 714.736L266.512 754.544C266.811 755.397 266.704 756.187 266.192 756.912C265.68 757.637 264.976 758 264.08 758H261.776C260.752 758 259.792 757.68 258.896 757.04C258.043 756.357 257.467 755.504 257.168 754.48L255.12 747.248C255.077 746.907 254.843 746.736 254.416 746.736H239.952C239.568 746.736 239.333 746.907 239.248 747.248L237.2 754.48C236.944 755.504 236.368 756.357 235.472 757.04C234.619 757.68 233.659 758 232.592 758H230.544ZM290.003 758.64C283.262 758.64 277.907 756.571 273.939 752.432C270.014 748.251 268.051 742.32 268.051 734.64C268.051 727.045 269.95 721.157 273.747 716.976C277.587 712.752 282.942 710.64 289.811 710.64C292.968 710.64 295.614 710.832 297.747 711.216C298.771 711.387 299.624 711.899 300.307 712.752C300.99 713.605 301.331 714.565 301.331 715.632V716.144C301.331 717.04 300.947 717.744 300.179 718.256C299.454 718.768 298.664 718.917 297.811 718.704C295.72 718.149 293.374 717.872 290.771 717.872C286.547 717.872 283.219 719.323 280.787 722.224C278.398 725.125 277.203 729.264 277.203 734.64C277.203 739.973 278.44 744.112 280.915 747.056C283.432 749.957 286.782 751.408 290.963 751.408C293.779 751.408 296.19 751.152 298.195 750.64C299.048 750.427 299.838 750.576 300.563 751.088C301.331 751.6 301.715 752.304 301.715 753.2V753.648C301.715 754.715 301.374 755.675 300.691 756.528C300.051 757.339 299.198 757.829 298.131 758C295.699 758.427 292.99 758.64 290.003 758.64ZM329.941 758.64C323.199 758.64 317.845 756.571 313.877 752.432C309.951 748.251 307.989 742.32 307.989 734.64C307.989 727.045 309.887 721.157 313.685 716.976C317.525 712.752 322.879 710.64 329.749 710.64C332.906 710.64 335.551 710.832 337.685 711.216C338.709 711.387 339.562 711.899 340.245 712.752C340.927 713.605 341.269 714.565 341.269 715.632V716.144C341.269 717.04 340.885 717.744 340.117 718.256C339.391 718.768 338.602 718.917 337.749 718.704C335.658 718.149 333.311 717.872 330.709 717.872C326.485 717.872 323.157 719.323 320.725 722.224C318.335 725.125 317.141 729.264 317.141 734.64C317.141 739.973 318.378 744.112 320.853 747.056C323.37 749.957 326.719 751.408 330.901 751.408C333.717 751.408 336.127 751.152 338.132 750.64C338.986 750.427 339.775 750.576 340.501 751.088C341.269 751.6 341.653 752.304 341.653 753.2V753.648C341.653 754.715 341.311 755.675 340.629 756.528C339.989 757.339 339.135 757.829 338.069 758C335.637 758.427 332.927 758.64 329.941 758.64ZM356.359 758C355.378 758 354.524 757.637 353.799 756.912C353.074 756.187 352.711 755.333 352.711 754.352V714.928C352.711 713.947 353.074 713.093 353.799 712.368C354.524 711.643 355.378 711.28 356.359 711.28H358.919C359.9 711.28 360.754 711.643 361.479 712.368C362.204 713.093 362.567 713.947 362.567 714.928V754.352C362.567 755.333 362.204 756.187 361.479 756.912C360.754 757.637 359.9 758 358.919 758H356.359ZM382.827 718.704V750.576C382.827 750.875 382.998 751.067 383.339 751.152C384.704 751.365 385.984 751.472 387.179 751.472C392.171 751.472 395.84 750.128 398.187 747.44C400.534 744.709 401.707 740.229 401.707 734C401.707 728.411 400.512 724.315 398.123 721.712C395.734 719.109 392.086 717.808 387.179 717.808C385.984 717.808 384.704 717.915 383.339 718.128C382.998 718.213 382.827 718.405 382.827 718.704ZM377.579 758.192C376.512 758.064 375.638 757.616 374.955 756.848C374.272 756.037 373.931 755.099 373.931 754.032V715.248C373.931 714.181 374.272 713.264 374.955 712.496C375.638 711.685 376.512 711.216 377.579 711.088C380.31 710.789 383.36 710.64 386.731 710.64C394.326 710.64 400.128 712.624 404.139 716.592C408.192 720.56 410.219 726.363 410.219 734C410.219 742.192 408.192 748.357 404.139 752.496C400.128 756.592 394.326 758.64 386.731 758.64C383.36 758.64 380.31 758.491 377.579 758.192ZM421.079 758C420.098 758 419.244 757.637 418.519 756.912C417.794 756.187 417.431 755.333 417.431 754.352V714.928C417.431 713.947 417.794 713.093 418.519 712.368C419.244 711.643 420.098 711.28 421.079 711.28H442.839C443.82 711.28 444.674 711.643 445.399 712.368C446.124 713.093 446.487 713.947 446.487 714.928C446.487 715.909 446.124 716.763 445.399 717.488C444.674 718.171 443.82 718.512 442.839 718.512H426.967C426.583 718.512 426.391 718.704 426.391 719.088V729.392C426.391 729.776 426.583 729.968 426.967 729.968H441.751C442.732 729.968 443.543 730.309 444.183 730.992C444.866 731.675 445.207 732.485 445.207 733.424C445.207 734.363 444.866 735.173 444.183 735.856C443.543 736.496 442.732 736.816 441.751 736.816H426.967C426.583 736.816 426.391 737.008 426.391 737.392V750.192C426.391 750.576 426.583 750.768 426.967 750.768H442.839C443.82 750.768 444.674 751.131 445.399 751.856C446.124 752.539 446.487 753.371 446.487 754.352C446.487 755.333 446.124 756.187 445.399 756.912C444.674 757.637 443.82 758 442.839 758H421.079ZM459.515 758C458.534 758 457.68 757.637 456.955 756.912C456.272 756.187 455.931 755.333 455.931 754.352V714.928C455.931 713.947 456.272 713.093 456.955 712.368C457.68 711.643 458.534 711.28 459.515 711.28H460.923C463.355 711.28 465.147 712.347 466.299 714.48L482.107 743.024C482.107 743.067 482.128 743.088 482.171 743.088C482.214 743.088 482.235 743.067 482.235 743.024V714.928C482.235 713.947 482.598 713.093 483.323 712.368C484.048 711.643 484.902 711.28 485.883 711.28H487.291C488.272 711.28 489.104 711.643 489.787 712.368C490.512 713.093 490.875 713.947 490.875 714.928V754.352C490.875 755.333 490.512 756.187 489.787 756.912C489.104 757.637 488.272 758 487.291 758H485.883C483.451 758 481.659 756.933 480.507 754.8L464.699 726.256C464.699 726.213 464.678 726.192 464.635 726.192C464.592 726.192 464.571 726.213 464.571 726.256V754.352C464.571 755.333 464.208 756.187 463.483 756.912C462.758 757.637 461.904 758 460.923 758H459.515ZM503.042 718.704C502.06 718.704 501.207 718.363 500.482 717.68C499.756 716.955 499.394 716.101 499.394 715.12V714.928C499.394 713.947 499.756 713.093 500.482 712.368C501.207 711.643 502.06 711.28 503.042 711.28H530.306C531.287 711.28 532.14 711.643 532.866 712.368C533.591 713.093 533.954 713.947 533.954 714.928V715.12C533.954 716.101 533.591 716.955 532.866 717.68C532.14 718.363 531.287 718.704 530.306 718.704H521.73C521.388 718.704 521.218 718.896 521.218 719.28V754.352C521.218 755.333 520.855 756.187 520.13 756.912C519.404 757.637 518.551 758 517.57 758H515.778C514.796 758 513.943 757.637 513.218 756.912C512.492 756.187 512.13 755.333 512.13 754.352V719.28C512.13 718.896 511.959 718.704 511.618 718.704H503.042ZM553.797 738.288C548.677 736.581 544.965 734.512 542.661 732.08C540.399 729.648 539.269 726.704 539.269 723.248C539.269 719.365 540.57 716.293 543.173 714.032C545.775 711.771 549.423 710.64 554.117 710.64C558.085 710.64 561.541 711.088 564.485 711.984C565.509 712.283 566.319 712.901 566.917 713.84C567.557 714.736 567.877 715.739 567.877 716.848V717.424C567.877 718.235 567.514 718.875 566.789 719.344C566.063 719.771 565.317 719.835 564.549 719.536C561.349 718.299 558.085 717.68 554.757 717.68C552.623 717.68 551.002 718.171 549.893 719.152C548.783 720.133 548.229 721.499 548.229 723.248C548.229 726.32 550.234 728.517 554.245 729.84C560.005 731.675 563.994 733.765 566.213 736.112C568.474 738.459 569.604 741.488 569.604 745.2C569.604 754.16 564.079 758.64 553.029 758.64C549.573 758.64 546.437 758.107 543.621 757.04C542.597 756.656 541.786 755.995 541.189 755.056C540.634 754.117 540.357 753.072 540.357 751.92V751.152C540.357 750.341 540.698 749.765 541.381 749.424C542.063 749.04 542.767 749.019 543.493 749.36C546.309 750.768 549.274 751.472 552.389 751.472C557.807 751.472 560.517 749.424 560.517 745.328C560.517 743.664 560.005 742.299 558.981 741.232C557.957 740.123 556.229 739.141 553.797 738.288Z" fill="black"/>
<path d="M247.12 719.216L248.083 719.486L248.12 719.353V719.216H247.12ZM241.488 739.312L242.437 739.628L242.444 739.605L242.451 739.582L241.488 739.312ZM241.552 739.696L242.384 739.141L242.384 739.141L241.552 739.696ZM252.88 739.312L251.917 739.582L251.924 739.605L251.931 739.628L252.88 739.312ZM247.248 719.216H246.248V719.353L246.285 719.486L247.248 719.216ZM228.432 756.912L229.249 756.335H229.249L228.432 756.912ZM228.112 754.544L229.056 754.874L229.058 754.867L229.061 754.86L228.112 754.544ZM241.36 714.736L240.424 714.385L240.417 714.402L240.411 714.42L241.36 714.736ZM243.216 712.24L242.635 711.426L242.625 711.433L242.616 711.44L243.216 712.24ZM251.408 712.24L250.808 713.04L250.817 713.047L250.827 713.054L251.408 712.24ZM253.264 714.736L254.213 714.42L254.213 714.42L253.264 714.736ZM266.512 754.544L265.563 754.86L265.566 754.867L265.568 754.874L266.512 754.544ZM266.192 756.912L265.375 756.335L266.192 756.912ZM258.896 757.04L258.271 757.821L258.293 757.838L258.315 757.854L258.896 757.04ZM257.168 754.48L256.206 754.752L256.208 754.76L257.168 754.48ZM255.12 747.248L254.128 747.372L254.137 747.447L254.158 747.52L255.12 747.248ZM239.248 747.248L240.21 747.52L240.214 747.506L240.218 747.491L239.248 747.248ZM237.2 754.48L236.238 754.208L236.234 754.222L236.23 754.237L237.2 754.48ZM235.472 757.04L236.072 757.84L236.078 757.835L235.472 757.04ZM246.157 718.946L240.525 739.042L242.451 739.582L248.083 719.486L246.157 718.946ZM240.539 738.996C240.385 739.46 240.491 739.907 240.72 740.251L242.384 739.141C242.406 739.173 242.442 739.241 242.458 739.34C242.476 739.443 242.465 739.544 242.437 739.628L240.539 738.996ZM240.72 740.251C240.948 740.592 241.339 740.888 241.872 740.888V738.888C241.984 738.888 242.104 738.918 242.21 738.983C242.311 739.043 242.364 739.111 242.384 739.141L240.72 740.251ZM241.872 740.888H252.496V738.888H241.872V740.888ZM252.496 740.888C253.029 740.888 253.42 740.592 253.648 740.251L251.984 739.141C252.004 739.111 252.057 739.043 252.158 738.983C252.264 738.918 252.384 738.888 252.496 738.888V740.888ZM253.648 740.251C253.877 739.907 253.983 739.46 253.829 738.996L251.931 739.628C251.903 739.544 251.892 739.443 251.91 739.34C251.926 739.241 251.963 739.173 251.984 739.141L253.648 740.251ZM253.843 739.042L248.211 718.946L246.285 719.486L251.917 739.582L253.843 739.042ZM248.248 719.216C248.248 719.041 248.203 718.725 247.939 718.461C247.675 718.197 247.359 718.152 247.184 718.152V720.152C247.051 720.152 246.768 720.118 246.525 719.875C246.282 719.632 246.248 719.349 246.248 719.216H248.248ZM247.184 718.152C247.009 718.152 246.693 718.197 246.429 718.461C246.165 718.725 246.12 719.041 246.12 719.216H248.12C248.12 719.349 248.086 719.632 247.843 719.875C247.6 720.118 247.317 720.152 247.184 720.152V718.152ZM230.544 757C229.969 757 229.572 756.792 229.249 756.335L227.615 757.489C228.316 758.482 229.327 759 230.544 759V757ZM229.249 756.335C228.927 755.88 228.862 755.429 229.056 754.874L227.168 754.214C226.765 755.365 226.913 756.494 227.615 757.489L229.249 756.335ZM229.061 754.86L242.309 715.052L240.411 714.42L227.163 754.228L229.061 754.86ZM242.296 715.087C242.615 714.237 243.119 713.562 243.816 713.04L242.616 711.44C241.606 712.197 240.873 713.187 240.424 714.385L242.296 715.087ZM243.797 713.054C244.529 712.531 245.309 712.28 246.16 712.28V710.28C244.878 710.28 243.695 710.669 242.635 711.426L243.797 713.054ZM246.16 712.28H248.464V710.28H246.16V712.28ZM248.464 712.28C249.366 712.28 250.135 712.535 250.808 713.04L252.008 711.44C250.974 710.665 249.78 710.28 248.464 710.28V712.28ZM250.827 713.054C251.554 713.574 252.042 714.233 252.315 715.052L254.213 714.42C253.803 713.191 253.054 712.186 251.989 711.426L250.827 713.054ZM252.315 715.052L265.563 754.86L267.461 754.228L254.213 714.42L252.315 715.052ZM265.568 754.874C265.762 755.429 265.697 755.88 265.375 756.335L267.009 757.489C267.711 756.494 267.859 755.365 267.456 754.214L265.568 754.874ZM265.375 756.335C265.052 756.792 264.655 757 264.08 757V759C265.297 759 266.308 758.482 267.009 757.489L265.375 756.335ZM264.08 757H261.776V759H264.08V757ZM261.776 757C260.976 757 260.217 756.755 259.477 756.226L258.315 757.854C259.367 758.605 260.528 759 261.776 759V757ZM259.521 756.259C258.824 755.702 258.368 755.021 258.128 754.2L256.208 754.76C256.566 755.987 257.262 757.013 258.271 757.821L259.521 756.259ZM258.13 754.208L256.082 746.976L254.158 747.52L256.206 754.752L258.13 754.208ZM256.112 747.124C256.064 746.734 255.882 746.333 255.5 746.055C255.149 745.8 254.746 745.736 254.416 745.736V747.736C254.513 747.736 254.441 747.758 254.324 747.673C254.261 747.627 254.209 747.567 254.173 747.5C254.138 747.437 254.13 747.388 254.128 747.372L256.112 747.124ZM254.416 745.736H239.952V747.736H254.416V745.736ZM239.952 745.736C239.616 745.736 239.236 745.811 238.9 746.055C238.555 746.306 238.365 746.657 238.278 747.005L240.218 747.491C240.218 747.491 240.217 747.497 240.212 747.508C240.207 747.519 240.2 747.535 240.188 747.554C240.163 747.594 240.125 747.637 240.076 747.673C239.975 747.746 239.904 747.736 239.952 747.736V745.736ZM238.286 746.976L236.238 754.208L238.162 754.752L240.21 747.52L238.286 746.976ZM236.23 754.237C236.033 755.026 235.594 755.69 234.866 756.245L236.078 757.835C237.142 757.025 237.855 755.982 238.17 754.723L236.23 754.237ZM234.872 756.24C234.192 756.75 233.442 757 232.592 757V759C233.875 759 235.046 758.61 236.072 757.84L234.872 756.24ZM232.592 757H230.544V759H232.592V757ZM273.939 752.432L273.21 753.116L273.217 753.124L273.939 752.432ZM273.747 716.976L273.007 716.303L273.007 716.304L273.747 716.976ZM297.747 711.216L297.57 712.2L297.583 712.202L297.747 711.216ZM300.307 712.752L301.088 712.127L300.307 712.752ZM300.179 718.256L299.624 717.424L299.613 717.431L299.602 717.439L300.179 718.256ZM297.811 718.704L297.555 719.671L297.562 719.672L297.568 719.674L297.811 718.704ZM280.787 722.224L280.021 721.582L280.015 721.588L280.787 722.224ZM280.915 747.056L280.15 747.699L280.155 747.705L280.16 747.711L280.915 747.056ZM298.195 750.64L297.952 749.67L297.948 749.671L298.195 750.64ZM300.563 751.088L299.986 751.905L299.997 751.913L300.008 751.92L300.563 751.088ZM300.691 756.528L299.91 755.903L299.906 755.908L300.691 756.528ZM298.131 758L297.973 757.013L297.966 757.014L297.958 757.015L298.131 758ZM290.003 757.64C283.482 757.64 278.407 755.647 274.661 751.74L273.217 753.124C277.407 757.494 283.041 759.64 290.003 759.64V757.64ZM274.668 751.748C270.969 747.807 269.051 742.154 269.051 734.64H267.051C267.051 742.486 269.058 748.694 273.21 753.116L274.668 751.748ZM269.051 734.64C269.051 727.207 270.908 721.59 274.487 717.648L273.007 716.304C268.992 720.725 267.051 726.884 267.051 734.64H269.051ZM274.487 717.649C278.099 713.675 283.161 711.64 289.811 711.64V709.64C282.722 709.64 277.075 711.829 273.007 716.303L274.487 717.649ZM289.811 711.64C292.933 711.64 295.515 711.83 297.57 712.2L297.924 710.232C295.713 709.834 293.003 709.64 289.811 709.64V711.64ZM297.583 712.202C298.35 712.33 298.989 712.705 299.526 713.377L301.088 712.127C300.26 711.093 299.192 710.443 297.911 710.23L297.583 712.202ZM299.526 713.377C300.071 714.057 300.331 714.798 300.331 715.632H302.331C302.331 714.332 301.909 713.153 301.088 712.127L299.526 713.377ZM300.331 715.632V716.144H302.331V715.632H300.331ZM300.331 716.144C300.331 716.694 300.124 717.091 299.624 717.424L300.734 719.088C301.77 718.397 302.331 717.386 302.331 716.144H300.331ZM299.602 717.439C299.112 717.785 298.621 717.876 298.054 717.734L297.568 719.674C298.707 719.959 299.795 719.751 300.756 719.073L299.602 717.439ZM298.067 717.737C295.878 717.157 293.443 716.872 290.771 716.872V718.872C293.304 718.872 295.562 719.142 297.555 719.671L298.067 717.737ZM290.771 716.872C286.29 716.872 282.666 718.426 280.021 721.582L281.553 722.866C283.772 720.22 286.804 718.872 290.771 718.872V716.872ZM280.015 721.588C277.426 724.732 276.203 729.13 276.203 734.64H278.203C278.203 729.398 279.369 725.519 281.559 722.86L280.015 721.588ZM276.203 734.64C276.203 740.118 277.474 744.516 280.15 747.699L281.68 746.413C279.407 743.708 278.203 739.828 278.203 734.64H276.203ZM280.16 747.711C282.885 750.853 286.521 752.408 290.963 752.408V750.408C287.043 750.408 283.98 749.062 281.67 746.401L280.16 747.711ZM290.963 752.408C293.835 752.408 296.333 752.147 298.442 751.609L297.948 749.671C296.046 750.157 293.723 750.408 290.963 750.408V752.408ZM298.438 751.61C299.005 751.468 299.496 751.559 299.986 751.905L301.14 750.271C300.179 749.593 299.091 749.385 297.952 749.67L298.438 751.61ZM300.008 751.92C300.508 752.253 300.715 752.65 300.715 753.2H302.715C302.715 751.958 302.154 750.947 301.118 750.256L300.008 751.92ZM300.715 753.2V753.648H302.715V753.2H300.715ZM300.715 753.648C300.715 754.482 300.455 755.223 299.91 755.903L301.472 757.153C302.293 756.127 302.715 754.948 302.715 753.648H300.715ZM299.906 755.908C299.429 756.512 298.804 756.88 297.973 757.013L298.289 758.987C299.591 758.779 300.673 758.165 301.476 757.148L299.906 755.908ZM297.958 757.015C295.594 757.43 292.943 757.64 290.003 757.64V759.64C293.036 759.64 295.804 759.423 298.304 758.985L297.958 757.015ZM313.877 752.432L313.147 753.116L313.155 753.124L313.877 752.432ZM313.685 716.976L312.945 716.303L312.944 716.304L313.685 716.976ZM337.685 711.216L337.507 712.2L337.52 712.202L337.685 711.216ZM340.245 712.752L341.025 712.127L340.245 712.752ZM340.117 718.256L339.562 717.424L339.551 717.431L339.54 717.439L340.117 718.256ZM337.749 718.704L337.492 719.671L337.499 719.672L337.506 719.674L337.749 718.704ZM320.725 722.224L319.958 721.582L319.953 721.588L320.725 722.224ZM320.853 747.056L320.087 747.699L320.092 747.705L320.097 747.711L320.853 747.056ZM338.132 750.64L337.89 749.67L337.885 749.671L338.132 750.64ZM340.501 751.088L339.924 751.905L339.935 751.913L339.946 751.92L340.501 751.088ZM340.629 756.528L339.848 755.903L339.844 755.908L340.629 756.528ZM338.068 758L337.911 757.013L337.903 757.014L337.896 757.015L338.068 758ZM329.94 757.64C323.42 757.64 318.345 755.647 314.598 751.74L313.155 753.124C317.344 757.494 322.979 759.64 329.94 759.64V757.64ZM314.606 751.748C310.906 747.807 308.989 742.154 308.989 734.64H306.989C306.989 742.486 308.996 748.694 313.147 753.116L314.606 751.748ZM308.989 734.64C308.989 727.207 310.845 721.59 314.425 717.648L312.944 716.304C308.929 720.725 306.989 726.884 306.989 734.64H308.989ZM314.424 717.649C318.037 713.675 323.099 711.64 329.749 711.64V709.64C322.66 709.64 317.012 711.829 312.945 716.303L314.424 717.649ZM329.749 711.64C332.871 711.64 335.452 711.83 337.507 712.2L337.862 710.232C335.65 709.834 332.941 709.64 329.749 709.64V711.64ZM337.52 712.202C338.287 712.33 338.926 712.705 339.464 713.377L341.025 712.127C340.198 711.093 339.13 710.443 337.849 710.23L337.52 712.202ZM339.464 713.377C340.008 714.057 340.269 714.798 340.269 715.632H342.269C342.269 714.332 341.846 713.153 341.025 712.127L339.464 713.377ZM340.269 715.632V716.144H342.269V715.632H340.269ZM340.269 716.144C340.269 716.694 340.062 717.091 339.562 717.424L340.671 719.088C341.707 718.397 342.269 717.386 342.269 716.144H340.269ZM339.54 717.439C339.05 717.785 338.559 717.876 337.991 717.734L337.506 719.674C338.645 719.959 339.733 719.751 340.693 719.073L339.54 717.439ZM338.005 717.737C335.816 717.157 333.381 716.872 330.709 716.872V718.872C333.242 718.872 335.5 719.142 337.492 719.671L338.005 717.737ZM330.709 716.872C326.227 716.872 322.604 718.426 319.958 721.582L321.491 722.866C323.709 720.22 326.742 718.872 330.709 718.872V716.872ZM319.953 721.588C317.364 724.732 316.141 729.13 316.141 734.64H318.141C318.141 729.398 319.307 725.519 321.496 722.86L319.953 721.588ZM316.141 734.64C316.141 740.118 317.411 744.516 320.087 747.699L321.618 746.413C319.344 743.708 318.141 739.828 318.141 734.64H316.141ZM320.097 747.711C322.823 750.853 326.458 752.408 330.9 752.408V750.408C326.98 750.408 323.917 749.062 321.608 746.401L320.097 747.711ZM330.9 752.408C333.772 752.408 336.271 752.147 338.38 751.609L337.885 749.671C335.984 750.157 333.661 750.408 330.9 750.408V752.408ZM338.375 751.61C338.943 751.468 339.434 751.559 339.924 751.905L341.077 750.271C340.117 749.593 339.029 749.385 337.89 749.67L338.375 751.61ZM339.946 751.92C340.446 752.253 340.652 752.65 340.652 753.2H342.652C342.652 751.958 342.091 750.947 341.055 750.256L339.946 751.92ZM340.652 753.2V753.648H342.652V753.2H340.652ZM340.652 753.648C340.652 754.482 340.392 755.223 339.848 755.903L341.409 757.153C342.23 756.127 342.652 754.948 342.652 753.648H340.652ZM339.844 755.908C339.367 756.512 338.742 756.88 337.911 757.013L338.226 758.987C339.528 758.779 340.61 758.165 341.413 757.148L339.844 755.908ZM337.896 757.015C335.531 757.43 332.881 757.64 329.94 757.64V759.64C332.974 759.64 335.742 759.423 338.241 758.985L337.896 757.015ZM353.799 712.368L353.092 711.661V711.661L353.799 712.368ZM361.479 712.368L362.186 711.661V711.661L361.479 712.368ZM356.359 757C355.656 757 355.053 756.752 354.506 756.205L353.092 757.619C353.995 758.523 355.099 759 356.359 759V757ZM354.506 756.205C353.959 755.658 353.711 755.055 353.711 754.352H351.711C351.711 755.612 352.188 756.716 353.092 757.619L354.506 756.205ZM353.711 754.352V714.928H351.711V754.352H353.711ZM353.711 714.928C353.711 714.225 353.959 713.622 354.506 713.075L353.092 711.661C352.188 712.564 351.711 713.668 351.711 714.928H353.711ZM354.506 713.075C355.053 712.528 355.656 712.28 356.359 712.28V710.28C355.099 710.28 353.995 710.757 353.092 711.661L354.506 713.075ZM356.359 712.28H358.919V710.28H356.359V712.28ZM358.919 712.28C359.622 712.28 360.225 712.528 360.772 713.075L362.186 711.661C361.283 710.757 360.179 710.28 358.919 710.28V712.28ZM360.772 713.075C361.319 713.622 361.567 714.225 361.567 714.928H363.567C363.567 713.668 363.09 712.564 362.186 711.661L360.772 713.075ZM361.567 714.928V754.352H363.567V714.928H361.567ZM361.567 754.352C361.567 755.055 361.319 755.658 360.772 756.205L362.186 757.619C363.09 756.716 363.567 755.612 363.567 754.352H361.567ZM360.772 756.205C360.225 756.752 359.622 757 358.919 757V759C360.179 759 361.283 758.523 362.186 757.619L360.772 756.205ZM358.919 757H356.359V759H358.919V757ZM383.339 751.152L383.096 752.122L383.14 752.133L383.185 752.14L383.339 751.152ZM398.187 747.44L398.94 748.098L398.945 748.092L398.187 747.44ZM383.339 718.128L383.185 717.14L383.14 717.147L383.096 717.158L383.339 718.128ZM377.579 758.192L377.46 759.185L377.47 759.186L377.579 758.192ZM374.955 756.848L374.19 757.492L374.199 757.502L374.208 757.512L374.955 756.848ZM374.955 712.496L375.702 713.16L375.711 713.15L375.72 713.14L374.955 712.496ZM377.579 711.088L377.47 710.094L377.46 710.095L377.579 711.088ZM404.139 716.592L403.436 717.303L403.439 717.307L404.139 716.592ZM404.139 752.496L403.425 751.796L403.424 751.796L404.139 752.496ZM381.827 718.704V750.576H383.827V718.704H381.827ZM381.827 750.576C381.827 750.928 381.933 751.3 382.208 751.608C382.468 751.901 382.801 752.048 383.096 752.122L383.582 750.182C383.536 750.17 383.613 750.179 383.702 750.28C383.748 750.331 383.782 750.39 383.803 750.451C383.824 750.51 383.827 750.555 383.827 750.576H381.827ZM383.185 752.14C384.593 752.36 385.925 752.472 387.179 752.472V750.472C386.043 750.472 384.815 750.371 383.493 750.164L383.185 752.14ZM387.179 752.472C392.34 752.472 396.337 751.079 398.94 748.098L397.434 746.782C395.343 749.177 392.002 750.472 387.179 750.472V752.472ZM398.945 748.092C401.527 745.088 402.707 740.31 402.707 734H400.707C400.707 740.149 399.54 744.331 397.429 746.788L398.945 748.092ZM402.707 734C402.707 728.299 401.493 723.905 398.86 721.036L397.386 722.388C399.531 724.725 400.707 728.522 400.707 734H402.707ZM398.86 721.036C396.216 718.156 392.253 716.808 387.179 716.808V718.808C391.918 718.808 395.251 720.062 397.386 722.388L398.86 721.036ZM387.179 716.808C385.925 716.808 384.593 716.92 383.185 717.14L383.493 719.116C384.815 718.909 386.043 718.808 387.179 718.808V716.808ZM383.096 717.158C382.801 717.232 382.468 717.379 382.208 717.672C381.933 717.98 381.827 718.352 381.827 718.704H383.827C383.827 718.725 383.824 718.77 383.803 718.829C383.782 718.89 383.748 718.949 383.702 719C383.613 719.101 383.536 719.11 383.582 719.098L383.096 717.158ZM377.698 757.199C376.862 757.099 376.215 756.76 375.702 756.184L374.208 757.512C375.06 758.472 376.163 759.029 377.46 759.185L377.698 757.199ZM375.72 756.204C375.19 755.575 374.931 754.865 374.931 754.032H372.931C372.931 755.333 373.355 756.5 374.19 757.492L375.72 756.204ZM374.931 754.032V715.248H372.931V754.032H374.931ZM374.931 715.248C374.931 714.416 375.189 713.738 375.702 713.16L374.208 711.832C373.356 712.79 372.931 713.947 372.931 715.248H374.931ZM375.72 713.14C376.237 712.526 376.879 712.179 377.698 712.081L377.46 710.095C376.145 710.253 375.038 710.844 374.19 711.852L375.72 713.14ZM377.688 712.082C380.375 711.788 383.389 711.64 386.731 711.64V709.64C383.332 709.64 380.244 709.791 377.47 710.094L377.688 712.082ZM386.731 711.64C394.156 711.64 399.67 713.577 403.436 717.303L404.842 715.881C400.587 711.671 394.495 709.64 386.731 709.64V711.64ZM403.439 717.307C407.241 721.028 409.219 726.535 409.219 734H411.219C411.219 726.19 409.143 720.092 404.839 715.877L403.439 717.307ZM409.219 734C409.219 742.04 407.23 747.91 403.425 751.796L404.853 753.196C409.154 748.804 411.219 742.344 411.219 734H409.219ZM403.424 751.796C399.657 755.644 394.148 757.64 386.731 757.64V759.64C394.504 759.64 400.6 757.54 404.854 753.196L403.424 751.796ZM386.731 757.64C383.389 757.64 380.375 757.492 377.688 757.198L377.47 759.186C380.244 759.489 383.332 759.64 386.731 759.64V757.64ZM418.519 756.912L417.812 757.619L418.519 756.912ZM418.519 712.368L417.812 711.661V711.661L418.519 712.368ZM445.399 712.368L446.106 711.661L445.399 712.368ZM445.399 717.488L446.084 718.216L446.095 718.206L446.106 718.195L445.399 717.488ZM444.183 730.992L443.453 731.676L443.464 731.688L443.476 731.699L444.183 730.992ZM445.399 751.856L444.692 752.563L444.703 752.574L444.714 752.584L445.399 751.856ZM421.079 757C420.376 757 419.773 756.752 419.226 756.205L417.812 757.619C418.715 758.523 419.819 759 421.079 759V757ZM419.226 756.205C418.679 755.658 418.431 755.055 418.431 754.352H416.431C416.431 755.612 416.908 756.716 417.812 757.619L419.226 756.205ZM418.431 754.352V714.928H416.431V754.352H418.431ZM418.431 714.928C418.431 714.225 418.679 713.622 419.226 713.075L417.812 711.661C416.908 712.564 416.431 713.668 416.431 714.928H418.431ZM419.226 713.075C419.773 712.528 420.376 712.28 421.079 712.28V710.28C419.819 710.28 418.715 710.757 417.812 711.661L419.226 713.075ZM421.079 712.28H442.839V710.28H421.079V712.28ZM442.839 712.28C443.542 712.28 444.145 712.528 444.692 713.075L446.106 711.661C445.203 710.757 444.099 710.28 442.839 710.28V712.28ZM444.692 713.075C445.239 713.622 445.487 714.225 445.487 714.928H447.487C447.487 713.668 447.01 712.564 446.106 711.661L444.692 713.075ZM445.487 714.928C445.487 715.631 445.239 716.234 444.692 716.781L446.106 718.195C447.01 717.292 447.487 716.188 447.487 714.928H445.487ZM444.714 716.76C444.171 717.271 443.561 717.512 442.839 717.512V719.512C444.079 719.512 445.177 719.071 446.084 718.216L444.714 716.76ZM442.839 717.512H426.967V719.512H442.839V717.512ZM426.967 717.512C426.621 717.512 426.178 717.599 425.828 717.949C425.478 718.299 425.391 718.742 425.391 719.088H427.391C427.391 719.05 427.4 719.205 427.242 719.363C427.084 719.521 426.929 719.512 426.967 719.512V717.512ZM425.391 719.088V729.392H427.391V719.088H425.391ZM425.391 729.392C425.391 729.738 425.478 730.181 425.828 730.531C426.178 730.881 426.621 730.968 426.967 730.968V728.968C426.929 728.968 427.084 728.959 427.242 729.117C427.4 729.275 427.391 729.43 427.391 729.392H425.391ZM426.967 730.968H441.751V728.968H426.967V730.968ZM441.751 730.968C442.471 730.968 443.013 731.206 443.453 731.676L444.913 730.308C444.073 729.413 442.994 728.968 441.751 728.968V730.968ZM443.476 731.699C443.977 732.2 444.207 732.759 444.207 733.424H446.207C446.207 732.212 445.754 731.149 444.89 730.285L443.476 731.699ZM444.207 733.424C444.207 734.089 443.977 734.648 443.476 735.149L444.89 736.563C445.754 735.699 446.207 734.636 446.207 733.424H444.207ZM443.476 735.149C443.04 735.585 442.492 735.816 441.751 735.816V737.816C442.973 737.816 444.046 737.407 444.89 736.563L443.476 735.149ZM441.751 735.816H426.967V737.816H441.751V735.816ZM426.967 735.816C426.621 735.816 426.178 735.903 425.828 736.253C425.478 736.603 425.391 737.046 425.391 737.392H427.391C427.391 737.354 427.4 737.509 427.242 737.667C427.084 737.825 426.929 737.816 426.967 737.816V735.816ZM425.391 737.392V750.192H427.391V737.392H425.391ZM425.391 750.192C425.391 750.538 425.478 750.981 425.828 751.331C426.178 751.681 426.621 751.768 426.967 751.768V749.768C426.929 749.768 427.084 749.759 427.242 749.917C427.4 750.075 427.391 750.23 427.391 750.192H425.391ZM426.967 751.768H442.839V749.768H426.967V751.768ZM442.839 751.768C443.542 751.768 444.145 752.016 444.692 752.563L446.106 751.149C445.203 750.245 444.099 749.768 442.839 749.768V751.768ZM444.714 752.584C445.242 753.081 445.487 753.651 445.487 754.352H447.487C447.487 753.09 447.007 751.996 446.084 751.128L444.714 752.584ZM445.487 754.352C445.487 755.055 445.239 755.658 444.692 756.205L446.106 757.619C447.01 756.716 447.487 755.612 447.487 754.352H445.487ZM444.692 756.205C444.145 756.752 443.542 757 442.839 757V759C444.099 759 445.203 758.523 446.106 757.619L444.692 756.205ZM442.839 757H421.079V759H442.839V757ZM456.955 756.912L456.227 757.597L456.237 757.608L456.248 757.619L456.955 756.912ZM456.955 712.368L456.248 711.661L456.237 711.672L456.227 711.683L456.955 712.368ZM466.299 714.48L465.419 714.955L465.424 714.964L466.299 714.48ZM482.107 743.024H483.107V742.766L482.982 742.54L482.107 743.024ZM483.323 712.368L482.616 711.661L483.323 712.368ZM489.787 712.368L489.059 713.053L489.069 713.064L489.08 713.075L489.787 712.368ZM489.787 756.912L489.08 756.205L489.069 756.216L489.059 756.227L489.787 756.912ZM480.507 754.8L481.387 754.325L481.382 754.316L480.507 754.8ZM464.699 726.256H463.699V726.514L463.824 726.74L464.699 726.256ZM459.515 757C458.812 757 458.209 756.752 457.662 756.205L456.248 757.619C457.151 758.523 458.255 759 459.515 759V757ZM457.683 756.227C457.172 755.684 456.931 755.074 456.931 754.352H454.931C454.931 755.592 455.372 756.69 456.227 757.597L457.683 756.227ZM456.931 754.352V714.928H454.931V754.352H456.931ZM456.931 714.928C456.931 714.206 457.172 713.596 457.683 713.053L456.227 711.683C455.372 712.59 454.931 713.688 454.931 714.928H456.931ZM457.662 713.075C458.209 712.528 458.812 712.28 459.515 712.28V710.28C458.255 710.28 457.151 710.757 456.248 711.661L457.662 713.075ZM459.515 712.28H460.923V710.28H459.515V712.28ZM460.923 712.28C461.989 712.28 462.862 712.512 463.58 712.939C464.297 713.366 464.915 714.021 465.419 714.955L467.179 714.005C466.531 712.805 465.677 711.861 464.602 711.221C463.528 710.581 462.289 710.28 460.923 710.28V712.28ZM465.424 714.964L481.232 743.508L482.982 742.54L467.174 713.996L465.424 714.964ZM481.107 743.024C481.107 743.199 481.152 743.515 481.416 743.779C481.68 744.043 481.996 744.088 482.171 744.088V742.088C482.304 742.088 482.587 742.122 482.83 742.365C483.073 742.608 483.107 742.891 483.107 743.024H481.107ZM482.171 744.088C482.346 744.088 482.662 744.043 482.926 743.779C483.19 743.515 483.235 743.199 483.235 743.024H481.235C481.235 742.891 481.269 742.608 481.512 742.365C481.755 742.122 482.038 742.088 482.171 742.088V744.088ZM483.235 743.024V714.928H481.235V743.024H483.235ZM483.235 714.928C483.235 714.225 483.483 713.622 484.03 713.075L482.616 711.661C481.712 712.564 481.235 713.668 481.235 714.928H483.235ZM484.03 713.075C484.577 712.528 485.18 712.28 485.883 712.28V710.28C484.623 710.28 483.519 710.757 482.616 711.661L484.03 713.075ZM485.883 712.28H487.291V710.28H485.883V712.28ZM487.291 712.28C487.992 712.28 488.562 712.525 489.059 713.053L490.515 711.683C489.647 710.76 488.553 710.28 487.291 710.28V712.28ZM489.08 713.075C489.627 713.622 489.875 714.225 489.875 714.928H491.875C491.875 713.668 491.398 712.564 490.494 711.661L489.08 713.075ZM489.875 714.928V754.352H491.875V714.928H489.875ZM489.875 754.352C489.875 755.055 489.627 755.658 489.08 756.205L490.494 757.619C491.398 756.716 491.875 755.612 491.875 754.352H489.875ZM489.059 756.227C488.562 756.755 487.992 757 487.291 757V759C488.553 759 489.647 758.52 490.515 757.597L489.059 756.227ZM487.291 757H485.883V759H487.291V757ZM485.883 757C484.817 757 483.944 756.768 483.226 756.341C482.509 755.914 481.891 755.259 481.387 754.325L479.627 755.275C480.275 756.475 481.129 757.419 482.204 758.059C483.278 758.699 484.517 759 485.883 759V757ZM481.382 754.316L465.574 725.772L463.824 726.74L479.632 755.284L481.382 754.316ZM465.699 726.256C465.699 726.081 465.654 725.765 465.39 725.501C465.126 725.237 464.81 725.192 464.635 725.192V727.192C464.502 727.192 464.219 727.158 463.976 726.915C463.733 726.672 463.699 726.389 463.699 726.256H465.699ZM464.635 725.192C464.46 725.192 464.144 725.237 463.88 725.501C463.616 725.765 463.571 726.081 463.571 726.256H465.571C465.571 726.389 465.537 726.672 465.294 726.915C465.051 727.158 464.768 727.192 464.635 727.192V725.192ZM463.571 726.256V754.352H465.571V726.256H463.571ZM463.571 754.352C463.571 755.055 463.323 755.658 462.776 756.205L464.19 757.619C465.094 756.716 465.571 755.612 465.571 754.352H463.571ZM462.776 756.205C462.229 756.752 461.626 757 460.923 757V759C462.183 759 463.287 758.523 464.19 757.619L462.776 756.205ZM460.923 757H459.515V759H460.923V757ZM500.482 717.68L499.774 718.387L499.785 718.398L499.796 718.408L500.482 717.68ZM500.482 712.368L499.774 711.661V711.661L500.482 712.368ZM532.866 712.368L533.573 711.661L532.866 712.368ZM532.866 717.68L533.551 718.408L533.562 718.398L533.573 718.387L532.866 717.68ZM503.042 717.704C502.319 717.704 501.71 717.463 501.167 716.952L499.796 718.408C500.704 719.263 501.801 719.704 503.042 719.704V717.704ZM501.189 716.973C500.641 716.426 500.393 715.823 500.393 715.12H498.393C498.393 716.38 498.871 717.484 499.774 718.387L501.189 716.973ZM500.393 715.12V714.928H498.393V715.12H500.393ZM500.393 714.928C500.393 714.225 500.641 713.622 501.189 713.075L499.774 711.661C498.871 712.564 498.393 713.668 498.393 714.928H500.393ZM501.189 713.075C501.736 712.528 502.338 712.28 503.042 712.28V710.28C501.782 710.28 500.678 710.757 499.774 711.661L501.189 713.075ZM503.042 712.28H530.306V710.28H503.042V712.28ZM530.306 712.28C531.009 712.28 531.611 712.528 532.158 713.075L533.573 711.661C532.669 710.757 531.565 710.28 530.306 710.28V712.28ZM532.158 713.075C532.706 713.622 532.953 714.225 532.953 714.928H534.953C534.953 713.668 534.476 712.564 533.573 711.661L532.158 713.075ZM532.953 714.928V715.12H534.953V714.928H532.953ZM532.953 715.12C532.953 715.823 532.706 716.426 532.158 716.973L533.573 718.387C534.476 717.484 534.953 716.38 534.953 715.12H532.953ZM532.18 716.952C531.637 717.463 531.028 717.704 530.306 717.704V719.704C531.546 719.704 532.643 719.263 533.551 718.408L532.18 716.952ZM530.306 717.704H521.729V719.704H530.306V717.704ZM521.729 717.704C521.372 717.704 520.93 717.81 520.598 718.184C520.286 718.535 520.217 718.961 520.217 719.28H522.217C522.217 719.215 522.234 719.353 522.093 719.512C521.931 719.694 521.745 719.704 521.729 719.704V717.704ZM520.217 719.28V754.352H522.217V719.28H520.217ZM520.217 754.352C520.217 755.055 519.97 755.658 519.422 756.205L520.837 757.619C521.74 756.716 522.217 755.612 522.217 754.352H520.217ZM519.422 756.205C518.875 756.752 518.273 757 517.569 757V759C518.829 759 519.933 758.523 520.837 757.619L519.422 756.205ZM517.569 757H515.777V759H517.569V757ZM515.777 757C515.074 757 514.472 756.752 513.925 756.205L512.51 757.619C513.414 758.523 514.518 759 515.777 759V757ZM513.925 756.205C513.377 755.658 513.13 755.055 513.13 754.352H511.13C511.13 755.612 511.607 756.716 512.51 757.619L513.925 756.205ZM513.13 754.352V719.28H511.13V754.352H513.13ZM513.13 719.28C513.13 718.961 513.061 718.535 512.749 718.184C512.417 717.81 511.975 717.704 511.617 717.704V719.704C511.602 719.704 511.416 719.694 511.254 719.512C511.113 719.353 511.13 719.215 511.13 719.28H513.13ZM511.617 717.704H503.042V719.704H511.617V717.704ZM553.797 738.288L554.128 737.344L554.12 737.342L554.113 737.339L553.797 738.288ZM542.66 732.08L541.928 732.761L541.935 732.768L542.66 732.08ZM543.172 714.032L542.517 713.277L543.172 714.032ZM564.484 711.984L564.193 712.941L564.204 712.944L564.484 711.984ZM566.917 713.84L566.073 714.377L566.087 714.399L566.103 714.421L566.917 713.84ZM566.789 719.344L567.296 720.206L567.314 720.195L567.332 720.184L566.789 719.344ZM564.548 719.536L564.911 718.604L564.909 718.603L564.548 719.536ZM549.892 719.152L550.555 719.901L549.892 719.152ZM554.245 729.84L553.931 730.79L553.941 730.793L554.245 729.84ZM566.212 736.112L565.486 736.799L565.492 736.806L566.212 736.112ZM543.621 757.04L543.975 756.105L543.972 756.104L543.621 757.04ZM541.189 755.056L540.328 755.565L540.336 755.579L540.345 755.593L541.189 755.056ZM541.38 749.424L541.828 750.318L541.85 750.308L541.871 750.296L541.38 749.424ZM543.492 749.36L543.94 748.466L543.929 748.46L543.918 748.455L543.492 749.36ZM558.98 741.232L558.246 741.91L558.252 741.917L558.259 741.925L558.98 741.232ZM554.113 737.339C549.063 735.656 545.529 733.653 543.386 731.392L541.935 732.768C544.4 735.371 548.29 737.506 553.48 739.237L554.113 737.339ZM543.393 731.399C541.311 729.16 540.268 726.463 540.268 723.248H538.268C538.268 726.945 539.487 730.136 541.928 732.761L543.393 731.399ZM540.268 723.248C540.268 719.614 541.473 716.833 543.828 714.787L542.517 713.277C539.666 715.754 538.268 719.117 538.268 723.248H540.268ZM543.828 714.787C546.192 712.733 549.577 711.64 554.117 711.64V709.64C549.27 709.64 545.358 710.808 542.517 713.277L543.828 714.787ZM554.117 711.64C558.013 711.64 561.366 712.08 564.193 712.941L564.776 711.027C561.715 710.096 558.156 709.64 554.117 709.64V711.64ZM564.204 712.944C564.985 713.172 565.6 713.633 566.073 714.377L567.76 713.303C567.039 712.169 566.032 711.394 564.764 711.024L564.204 712.944ZM566.103 714.421C566.621 715.146 566.876 715.945 566.876 716.848H568.876C568.876 715.532 568.492 714.326 567.73 713.259L566.103 714.421ZM566.876 716.848V717.424H568.876V716.848H566.876ZM566.876 717.424C566.876 717.87 566.708 718.205 566.245 718.504L567.332 720.184C568.319 719.544 568.876 718.6 568.876 717.424H566.876ZM566.281 718.482C565.813 718.757 565.387 718.789 564.911 718.604L564.186 720.468C565.246 720.88 566.313 720.784 567.296 720.206L566.281 718.482ZM564.909 718.603C561.598 717.323 558.212 716.68 554.757 716.68V718.68C557.957 718.68 561.099 719.274 564.188 720.469L564.909 718.603ZM554.757 716.68C552.485 716.68 550.588 717.201 549.23 718.403L550.555 719.901C551.415 719.14 552.761 718.68 554.757 718.68V716.68ZM549.23 718.403C547.867 719.609 547.229 721.269 547.229 723.248H549.229C549.229 721.728 549.7 720.658 550.555 719.901L549.23 718.403ZM547.229 723.248C547.229 725.024 547.817 726.585 548.994 727.874C550.151 729.142 551.827 730.096 553.931 730.79L554.558 728.89C552.651 728.261 551.319 727.455 550.471 726.526C549.643 725.618 549.229 724.544 549.229 723.248H547.229ZM553.941 730.793C559.658 732.614 563.446 734.642 565.486 736.799L566.939 735.425C564.542 732.889 560.351 730.736 554.548 728.887L553.941 730.793ZM565.492 736.806C567.549 738.94 568.604 741.708 568.604 745.2H570.604C570.604 741.268 569.399 737.977 566.933 735.418L565.492 736.806ZM568.604 745.2C568.604 749.464 567.3 752.501 564.831 754.503C562.321 756.538 558.445 757.64 553.029 757.64V759.64C558.663 759.64 563.074 758.502 566.09 756.057C569.146 753.579 570.604 749.896 570.604 745.2H568.604ZM553.029 757.64C549.676 757.64 546.662 757.123 543.975 756.105L543.266 757.975C546.211 759.091 549.469 759.64 553.029 759.64V757.64ZM543.972 756.104C543.155 755.797 542.515 755.278 542.032 754.519L540.345 755.593C541.056 756.711 542.038 757.515 543.269 757.976L543.972 756.104ZM542.049 754.547C541.591 753.772 541.357 752.904 541.357 751.92H539.357C539.357 753.24 539.677 754.463 540.328 755.565L542.049 754.547ZM541.357 751.92V751.152H539.357V751.92H541.357ZM541.357 751.152C541.357 750.888 541.411 750.726 541.473 750.622C541.532 750.521 541.633 750.416 541.828 750.318L540.933 748.53C540.445 748.774 540.034 749.127 539.752 749.602C539.473 750.074 539.357 750.605 539.357 751.152H541.357ZM541.871 750.296C542.264 750.075 542.626 750.057 543.067 750.265L543.918 748.455C542.908 747.98 541.863 748.005 540.89 748.552L541.871 750.296ZM543.045 750.254C545.999 751.731 549.117 752.472 552.388 752.472V750.472C549.431 750.472 546.618 749.805 543.94 748.466L543.045 750.254ZM552.388 752.472C555.195 752.472 557.483 751.947 559.088 750.734C560.745 749.481 561.517 747.617 561.517 745.328H559.517C559.517 747.135 558.934 748.343 557.882 749.138C556.777 749.973 555 750.472 552.388 750.472V752.472ZM561.517 745.328C561.517 743.441 560.928 741.816 559.702 740.539L558.259 741.925C559.081 742.781 559.517 743.887 559.517 745.328H561.517ZM559.715 740.554C558.528 739.267 556.619 738.218 554.128 737.344L553.465 739.232C555.838 740.064 557.385 740.978 558.246 741.91L559.715 740.554Z" fill="black"/>
<path d="M304.912 652.266L169.734 517.088V325.912L304.912 190.734H496.088L631.266 325.912V517.088L496.088 652.266H304.912Z" fill="#CC4121"/>
<path d="M493.046 365.21L436.756 421.5L493.046 477.79L456.79 514.046L400.5 457.756L344.21 514.046L307.954 477.79L364.244 421.5L307.954 365.21L344.21 328.954L400.5 385.244L456.79 328.954L493.046 365.21ZM496.088 190.734H304.912L169.734 325.912V517.088L304.912 652.266H496.088L631.266 517.088V325.912L496.088 190.734ZM605.625 506.456L485.456 626.625H315.544L195.375 506.456V336.527L315.544 216.375H485.473L605.625 336.527V506.456Z" fill="#FFFAEE"/>
<path d="M456.79 316.869L400.5 373.159L344.21 316.869L295.869 365.21L352.159 421.5L295.869 477.79L344.21 526.131L400.5 469.841L456.79 526.131L505.131 477.79L448.841 421.5L505.131 365.21L456.79 316.869ZM424.671 421.5L480.96 477.79L456.79 501.96L400.5 445.671L344.21 501.96L320.04 477.79L376.329 421.5L320.04 365.21L344.21 341.04L400.5 397.329L456.79 341.04L480.96 365.21L424.671 421.5ZM499.627 182.188H301.373L161.188 322.373V520.627L301.373 660.812H499.627L639.812 520.627V322.373L499.627 182.188ZM622.719 513.55L492.55 643.719H308.45L178.281 513.55V329.45L308.45 199.281H492.55L622.719 329.45V513.55Z" fill="#231F20"/>
</svg>
