<svg width="800" height="800" viewBox="0 0 800 800" fill="none" xmlns="http://www.w3.org/2000/svg">
<path d="M374.4 695.52L367.36 720.64C367.307 720.8 367.333 720.96 367.44 721.12C367.547 721.28 367.68 721.36 367.84 721.36H381.12C381.28 721.36 381.413 721.28 381.52 721.12C381.627 720.96 381.653 720.8 381.6 720.64L374.56 695.52C374.56 695.467 374.533 695.44 374.48 695.44C374.427 695.44 374.4 695.467 374.4 695.52ZM353.68 744C352.56 744 351.68 743.547 351.04 742.64C350.4 741.733 350.267 740.747 350.64 739.68L367.2 689.92C367.68 688.64 368.453 687.6 369.52 686.8C370.64 686 371.867 685.6 373.2 685.6H376.08C377.467 685.6 378.693 686 379.76 686.8C380.88 687.6 381.653 688.64 382.08 689.92L398.64 739.68C399.013 740.747 398.88 741.733 398.24 742.64C397.6 743.547 396.72 744 395.6 744H392.72C391.44 744 390.24 743.6 389.12 742.8C388.053 741.947 387.333 740.88 386.96 739.6L384.4 730.56C384.347 730.133 384.053 729.92 383.52 729.92H365.44C364.96 729.92 364.667 730.133 364.56 730.56L362 739.6C361.68 740.88 360.96 741.947 359.84 742.8C358.773 743.6 357.573 744 356.24 744H353.68ZM412.746 744C411.519 744 410.452 743.547 409.546 742.64C408.639 741.733 408.186 740.667 408.186 739.44V688.56C408.186 687.333 408.639 686.267 409.546 685.36C410.452 684.453 411.519 684 412.746 684H414.826C416.052 684 417.119 684.453 418.026 685.36C418.932 686.267 419.386 687.333 419.386 688.56V739.44C419.386 740.667 418.932 741.733 418.026 742.64C417.119 743.547 416.052 744 414.826 744H412.746ZM438.214 744C436.988 744 435.921 743.547 435.014 742.64C434.108 741.733 433.654 740.667 433.654 739.44V688.56C433.654 687.333 434.108 686.267 435.014 685.36C435.921 684.453 436.988 684 438.214 684H440.294C441.521 684 442.588 684.453 443.494 685.36C444.401 686.267 444.854 687.333 444.854 688.56V739.44C444.854 740.667 444.401 741.733 443.494 742.64C442.588 743.547 441.521 744 440.294 744H438.214Z" fill="black"/>
<path d="M374.4 695.52L375.363 695.79L375.4 695.657V695.52H374.4ZM367.36 720.64L368.309 720.956L368.316 720.933L368.323 720.91L367.36 720.64ZM367.44 721.12L368.272 720.565L368.272 720.565L367.44 721.12ZM381.6 720.64L380.637 720.91L380.644 720.933L380.651 720.956L381.6 720.64ZM374.56 695.52H373.56V695.657L373.597 695.79L374.56 695.52ZM351.04 742.64L351.857 742.063L351.857 742.063L351.04 742.64ZM350.64 739.68L351.584 740.01L351.586 740.003L351.589 739.996L350.64 739.68ZM367.2 689.92L366.264 689.569L366.257 689.586L366.251 689.604L367.2 689.92ZM369.52 686.8L368.939 685.986L368.929 685.993L368.92 686L369.52 686.8ZM379.76 686.8L379.16 687.6L379.169 687.607L379.179 687.614L379.76 686.8ZM382.08 689.92L383.029 689.604L383.029 689.604L382.08 689.92ZM398.64 739.68L397.691 739.996L397.694 740.003L397.696 740.01L398.64 739.68ZM398.24 742.64L397.423 742.063L397.423 742.063L398.24 742.64ZM389.12 742.8L388.495 743.581L388.517 743.598L388.539 743.614L389.12 742.8ZM386.96 739.6L385.998 739.872L386 739.88L386.96 739.6ZM384.4 730.56L383.408 730.684L383.417 730.759L383.438 730.832L384.4 730.56ZM364.56 730.56L365.522 730.832L365.526 730.818L365.53 730.803L364.56 730.56ZM362 739.6L361.038 739.328L361.034 739.342L361.03 739.357L362 739.6ZM359.84 742.8L360.44 743.6L360.446 743.595L359.84 742.8ZM373.437 695.25L366.397 720.37L368.323 720.91L375.363 695.79L373.437 695.25ZM366.411 720.324C366.246 720.82 366.357 721.299 366.608 721.675L368.272 720.565C368.283 720.581 368.313 720.633 368.326 720.716C368.341 720.803 368.331 720.888 368.309 720.956L366.411 720.324ZM366.608 721.675C366.857 722.048 367.275 722.36 367.84 722.36V720.36C367.936 720.36 368.041 720.386 368.134 720.443C368.221 720.495 368.262 720.551 368.272 720.565L366.608 721.675ZM367.84 722.36H381.12V720.36H367.84V722.36ZM381.12 722.36C381.685 722.36 382.103 722.048 382.352 721.675L380.688 720.565C380.698 720.551 380.739 720.495 380.826 720.443C380.919 720.386 381.024 720.36 381.12 720.36V722.36ZM382.352 721.675C382.603 721.299 382.714 720.82 382.549 720.324L380.651 720.956C380.629 720.888 380.619 720.803 380.634 720.716C380.647 720.633 380.677 720.581 380.688 720.565L382.352 721.675ZM382.563 720.37L375.523 695.25L373.597 695.79L380.637 720.91L382.563 720.37ZM375.56 695.52C375.56 695.339 375.514 695.02 375.247 694.753C374.98 694.486 374.661 694.44 374.48 694.44V696.44C374.353 696.44 374.073 696.407 373.833 696.167C373.593 695.927 373.56 695.647 373.56 695.52H375.56ZM374.48 694.44C374.299 694.44 373.98 694.486 373.713 694.753C373.446 695.02 373.4 695.339 373.4 695.52H375.4C375.4 695.647 375.367 695.927 375.127 696.167C374.887 696.407 374.607 696.44 374.48 696.44V694.44ZM353.68 743C352.881 743 352.308 742.702 351.857 742.063L350.223 743.217C351.052 744.392 352.239 745 353.68 745V743ZM351.857 742.063C351.407 741.426 351.315 740.779 351.584 740.01L349.696 739.35C349.218 740.715 349.393 742.04 350.223 743.217L351.857 742.063ZM351.589 739.996L368.149 690.236L366.251 689.604L349.691 739.364L351.589 739.996ZM368.136 690.271C368.551 689.165 369.21 688.282 370.12 687.6L368.92 686C367.697 686.917 366.809 688.115 366.264 689.569L368.136 690.271ZM370.101 687.614C371.057 686.931 372.082 686.6 373.2 686.6V684.6C371.651 684.6 370.223 685.069 368.939 685.986L370.101 687.614ZM373.2 686.6H376.08V684.6H373.2V686.6ZM376.08 686.6C377.26 686.6 378.274 686.935 379.16 687.6L380.36 686C379.113 685.065 377.674 684.6 376.08 684.6V686.6ZM379.179 687.614C380.13 688.294 380.773 689.161 381.131 690.236L383.029 689.604C382.534 688.119 381.63 686.906 380.341 685.986L379.179 687.614ZM381.131 690.236L397.691 739.996L399.589 739.364L383.029 689.604L381.131 690.236ZM397.696 740.01C397.965 740.779 397.873 741.426 397.423 742.063L399.057 743.217C399.887 742.04 400.062 740.715 399.584 739.35L397.696 740.01ZM397.423 742.063C396.972 742.702 396.399 743 395.6 743V745C397.041 745 398.228 744.392 399.057 743.217L397.423 742.063ZM395.6 743H392.72V745H395.6V743ZM392.72 743C391.664 743 390.665 742.675 389.701 741.986L388.539 743.614C389.815 744.525 391.216 745 392.72 745V743ZM389.745 742.019C388.834 741.291 388.234 740.397 387.92 739.32L386 739.88C386.432 741.363 387.272 742.602 388.495 743.581L389.745 742.019ZM387.922 739.328L385.362 730.288L383.438 730.832L385.998 739.872L387.922 739.328ZM385.392 730.436C385.338 730.004 385.14 729.571 384.728 729.271C384.347 728.994 383.903 728.92 383.52 728.92V730.92C383.589 730.92 383.621 730.927 383.625 730.928C383.628 730.929 383.597 730.921 383.552 730.889C383.504 730.854 383.463 730.807 383.436 730.756C383.41 730.709 383.407 730.679 383.408 730.684L385.392 730.436ZM383.52 728.92H365.44V730.92H383.52V728.92ZM365.44 728.92C365.056 728.92 364.637 729.006 364.272 729.271C363.897 729.544 363.688 729.927 363.59 730.317L365.53 730.803C365.536 730.781 365.537 730.788 365.523 730.81C365.508 730.834 365.483 730.864 365.448 730.889C365.376 730.941 365.344 730.92 365.44 730.92V728.92ZM363.598 730.288L361.038 739.328L362.962 739.872L365.522 730.832L363.598 730.288ZM361.03 739.357C360.769 740.402 360.186 741.279 359.234 742.005L360.446 743.595C361.734 742.614 362.591 741.358 362.97 739.843L361.03 739.357ZM359.24 742C358.346 742.67 357.357 743 356.24 743V745C357.79 745 359.2 744.53 360.44 743.6L359.24 742ZM356.24 743H353.68V745H356.24V743ZM418.026 685.36L418.733 684.653L418.733 684.653L418.026 685.36ZM418.026 742.64L418.733 743.347L418.733 743.347L418.026 742.64ZM412.746 743C411.797 743 410.981 742.661 410.253 741.933L408.839 743.347C409.923 744.432 411.241 745 412.746 745V743ZM410.253 741.933C409.524 741.204 409.186 740.388 409.186 739.44H407.186C407.186 740.945 407.754 742.262 408.839 743.347L410.253 741.933ZM409.186 739.44V688.56H407.186V739.44H409.186ZM409.186 688.56C409.186 687.612 409.524 686.796 410.253 686.067L408.839 684.653C407.754 685.738 407.186 687.055 407.186 688.56H409.186ZM410.253 686.067C410.981 685.339 411.797 685 412.746 685V683C411.241 683 409.923 683.568 408.839 684.653L410.253 686.067ZM412.746 685H414.826V683H412.746V685ZM414.826 685C415.774 685 416.59 685.339 417.319 686.067L418.733 684.653C417.648 683.568 416.331 683 414.826 683V685ZM417.319 686.067C418.047 686.796 418.386 687.612 418.386 688.56H420.386C420.386 687.055 419.817 685.738 418.733 684.653L417.319 686.067ZM418.386 688.56V739.44H420.386V688.56H418.386ZM418.386 739.44C418.386 740.388 418.047 741.204 417.319 741.933L418.733 743.347C419.817 742.262 420.386 740.945 420.386 739.44H418.386ZM417.319 741.933C416.59 742.661 415.774 743 414.826 743V745C416.331 745 417.648 744.432 418.733 743.347L417.319 741.933ZM414.826 743H412.746V745H414.826V743ZM443.494 685.36L444.201 684.653L444.201 684.653L443.494 685.36ZM443.494 742.64L444.201 743.347L444.201 743.347L443.494 742.64ZM438.214 743C437.266 743 436.45 742.661 435.721 741.933L434.307 743.347C435.392 744.432 436.709 745 438.214 745V743ZM435.721 741.933C434.993 741.204 434.654 740.388 434.654 739.44H432.654C432.654 740.945 433.223 742.262 434.307 743.347L435.721 741.933ZM434.654 739.44V688.56H432.654V739.44H434.654ZM434.654 688.56C434.654 687.612 434.993 686.796 435.721 686.067L434.307 684.653C433.223 685.738 432.654 687.055 432.654 688.56H434.654ZM435.721 686.067C436.45 685.339 437.266 685 438.214 685V683C436.709 683 435.392 683.568 434.307 684.653L435.721 686.067ZM438.214 685H440.294V683H438.214V685ZM440.294 685C441.243 685 442.059 685.339 442.787 686.067L444.201 684.653C443.117 683.568 441.799 683 440.294 683V685ZM442.787 686.067C443.516 686.796 443.854 687.612 443.854 688.56H445.854C445.854 687.055 445.286 685.738 444.201 684.653L442.787 686.067ZM443.854 688.56V739.44H445.854V688.56H443.854ZM443.854 739.44C443.854 740.388 443.516 741.204 442.787 741.933L444.201 743.347C445.286 742.262 445.854 740.945 445.854 739.44H443.854ZM442.787 741.933C442.059 742.661 441.243 743 440.294 743V745C441.799 745 443.117 744.432 444.201 743.347L442.787 741.933ZM440.294 743H438.214V745H440.294V743Z" fill="black"/>
<g clip-path="url(#clip0_1_30)">
<path d="M170 196.989H365.776V392.766H170V196.989Z" fill="white"/>
<path d="M434.702 195.806H626.79V387.894H434.702V195.806Z" fill="#55ED64"/>
<path d="M170.63 447.412H366.407V643.189H170.63V447.412ZM435.327 446.229H627.415V638.317H435.327V446.229Z" fill="white"/>
</g>
<defs>
<clipPath id="clip0_1_30">
<rect width="457" height="457" fill="white" transform="translate(170 191)"/>
</clipPath>
</defs>
</svg>
