<svg width="402" height="402" viewBox="0 0 402 402" fill="none" xmlns="http://www.w3.org/2000/svg">
<circle cx="201" cy="201" r="201" fill="#1E1E1E"/>
<path d="M332.688 144.953H316.562C309.141 144.953 303.125 150.707 303.125 157.805C303.125 164.902 309.141 170.656 316.562 170.656H332.688C340.109 170.656 346.125 164.902 346.125 157.805C346.125 150.707 340.109 144.953 332.688 144.953Z" fill="url(#paint0_linear_9_14)"/>
<path d="M85.4375 144.953H69.3125C61.8912 144.953 55.875 150.707 55.875 157.805C55.875 164.902 61.8912 170.656 69.3125 170.656H85.4375C92.8588 170.656 98.875 164.902 98.875 157.805C98.875 150.707 92.8588 144.953 85.4375 144.953Z" fill="url(#paint1_linear_9_14)"/>
<path d="M346.125 204.379V248.485C346.121 259.761 342.964 270.831 336.982 280.548C331 290.264 322.409 298.274 312.101 303.747C307.573 306.19 302.755 308.106 297.75 309.453C289.259 307.143 281.33 303.247 274.422 297.99C271.179 295.528 268.191 292.774 265.5 289.765C255.113 278.366 249.386 263.759 249.375 248.64V204.379L276.787 196.925L281.625 195.588L297.75 191.219L303.824 192.864L329.624 199.906L338.331 202.271L346.125 204.379Z" fill="url(#paint2_linear_9_14)"/>
<path d="M88.125 268.328H136.5V297.784C136.5 300.879 135.215 303.847 132.926 306.035C130.638 308.224 127.535 309.453 124.299 309.453H100.326C97.0903 309.453 93.9868 308.224 91.6987 306.035C89.4105 303.847 88.125 300.879 88.125 297.784V268.328Z" fill="url(#paint3_linear_9_14)"/>
<path d="M329.624 199.906L303.824 192.864L297.75 191.219L281.625 195.588L276.787 196.925L249.375 204.379V248.485C249.38 255.227 250.505 261.924 252.707 268.328H238.625L233.25 263.188H168.75L163.375 268.328H88.125C83.8484 268.328 79.7469 266.703 76.7229 263.811C73.6989 260.919 72 256.996 72 252.906V203.556C72.0038 198.883 73.6721 194.35 76.73 190.705L93.5 170.656L113.011 114.623C115.154 108.486 119.259 103.149 124.748 99.3665C130.237 95.5841 136.83 93.5482 143.595 93.5469H258.405C265.17 93.5482 271.763 95.5841 277.252 99.3665C282.741 103.149 286.846 108.486 288.989 114.623L308.5 170.656L325.27 190.705C327.521 193.365 329.02 196.533 329.624 199.906Z" fill="url(#paint4_linear_9_14)"/>
<path d="M104.25 242.625H136.5C139.351 242.625 142.085 241.542 144.101 239.614C146.117 237.686 147.25 235.071 147.25 232.344V226.021C147.271 223.503 146.324 221.065 144.591 219.17C142.857 217.275 140.456 216.054 137.844 215.74L109.625 211.781H104.25C101.399 211.781 98.6646 212.864 96.6486 214.793C94.6326 216.721 93.5 219.336 93.5 222.062V232.344C93.5 235.071 94.6326 237.686 96.6486 239.614C98.6646 241.542 101.399 242.625 104.25 242.625Z" fill="url(#paint5_linear_9_14)"/>
<path d="M228.842 242.625H173.157C171.9 242.649 170.673 242.251 169.691 241.5C168.709 240.748 168.034 239.691 167.782 238.512L164.557 223.091C164.396 222.335 164.414 221.554 164.611 220.807C164.808 220.059 165.178 219.363 165.694 218.77C166.211 218.178 166.86 217.704 167.593 217.384C168.327 217.064 169.126 216.906 169.932 216.922H232.067C232.874 216.906 233.673 217.064 234.407 217.384C235.14 217.704 235.789 218.178 236.305 218.77C236.822 219.363 237.192 220.059 237.389 220.807C237.586 221.554 237.604 222.335 237.442 223.091L234.217 238.512C233.966 239.691 233.291 240.748 232.309 241.5C231.326 242.251 230.1 242.649 228.842 242.625Z" fill="url(#paint6_linear_9_14)"/>
<path d="M285.334 166.287C286.432 168.859 286.738 171.678 286.214 174.411C285.69 177.144 284.359 179.676 282.377 181.709C280.856 183.126 279.056 184.241 277.082 184.991C275.108 185.741 272.999 186.11 270.875 186.078H131.125C128.653 186.08 126.214 185.539 123.996 184.496C121.778 183.453 119.84 181.937 118.333 180.064C116.887 178.107 115.974 175.838 115.673 173.46C115.373 171.082 115.696 168.67 116.612 166.441L134.189 120.844C134.946 118.874 136.314 117.174 138.111 115.97C139.908 114.766 142.046 114.117 144.24 114.109H257.76C259.954 114.117 262.092 114.766 263.889 115.97C265.686 117.174 267.054 118.874 267.811 120.844L285.334 166.287Z" fill="url(#paint7_linear_9_14)"/>
<path d="M292.375 268.328C291.668 268.332 290.966 268.202 290.312 267.947C289.657 267.691 289.061 267.314 288.559 266.837L275.121 253.986C274.62 253.506 274.223 252.937 273.951 252.311C273.68 251.685 273.541 251.014 273.541 250.336C273.541 249.658 273.68 248.987 273.951 248.361C274.223 247.734 274.62 247.165 275.121 246.686C275.622 246.207 276.217 245.827 276.872 245.567C277.527 245.308 278.229 245.174 278.938 245.174C279.646 245.174 280.348 245.308 281.003 245.567C281.658 245.827 282.253 246.207 282.754 246.686L292.375 255.939L315.434 233.835C316.446 232.867 317.819 232.323 319.25 232.323C320.681 232.323 322.054 232.867 323.066 233.835C324.078 234.803 324.647 236.115 324.647 237.484C324.647 238.853 324.078 240.166 323.066 241.134L296.191 266.837C295.689 267.314 295.093 267.691 294.439 267.947C293.784 268.202 293.082 268.332 292.375 268.328Z" fill="url(#paint8_linear_9_14)"/>
<defs>
<linearGradient id="paint0_linear_9_14" x1="303.125" y1="157.805" x2="346.125" y2="157.805" gradientUnits="userSpaceOnUse">
<stop stop-color="#23C8DE"/>
<stop offset="1" stop-color="#117BC9"/>
</linearGradient>
<linearGradient id="paint1_linear_9_14" x1="55.875" y1="157.805" x2="98.875" y2="157.805" gradientUnits="userSpaceOnUse">
<stop stop-color="#23C8DE"/>
<stop offset="1" stop-color="#117BC9"/>
</linearGradient>
<linearGradient id="paint2_linear_9_14" x1="249.375" y1="250.336" x2="346.125" y2="250.336" gradientUnits="userSpaceOnUse">
<stop stop-color="#EFAD7B"/>
<stop offset="1" stop-color="#ED7A5F"/>
</linearGradient>
<linearGradient id="paint3_linear_9_14" x1="88.125" y1="288.891" x2="136.5" y2="288.891" gradientUnits="userSpaceOnUse">
<stop stop-color="#243384"/>
<stop offset="1" stop-color="#0F274B"/>
</linearGradient>
<linearGradient id="paint4_linear_9_14" x1="72" y1="180.938" x2="329.624" y2="180.938" gradientUnits="userSpaceOnUse">
<stop stop-color="#23C8DE"/>
<stop offset="1" stop-color="#117BC9"/>
</linearGradient>
<linearGradient id="paint5_linear_9_14" x1="93.5" y1="227.203" x2="147.25" y2="227.203" gradientUnits="userSpaceOnUse">
<stop stop-color="#EFAD7B"/>
<stop offset="1" stop-color="#ED7A5F"/>
</linearGradient>
<linearGradient id="paint6_linear_9_14" x1="164.557" y1="229.773" x2="237.442" y2="229.773" gradientUnits="userSpaceOnUse">
<stop stop-color="#243384"/>
<stop offset="1" stop-color="#0F274B"/>
</linearGradient>
<linearGradient id="paint7_linear_9_14" x1="115.591" y1="150.094" x2="286.355" y2="150.094" gradientUnits="userSpaceOnUse">
<stop stop-color="#E2F0F3"/>
<stop offset="1" stop-color="#A5B7C3"/>
</linearGradient>
<linearGradient id="paint8_linear_9_14" x1="273.563" y1="250.336" x2="324.625" y2="250.336" gradientUnits="userSpaceOnUse">
<stop stop-color="#243384"/>
<stop offset="1" stop-color="#0F274B"/>
</linearGradient>
</defs>
</svg>
