<?xml version="1.0" standalone="no"?>
<svg xmlns:xlink="http://www.w3.org/1999/xlink" id="wave" style="transform:rotate(180deg); transition: 0.3s" viewBox="0 0 1440 490" version="1.1" xmlns="http://www.w3.org/2000/svg"><defs><linearGradient id="sw-gradient-0" x1="0" x2="0" y1="1" y2="0"><stop stop-color="rgba(243, 106, 62, 1)" offset="0%"/><stop stop-color="rgba(255, 179, 11, 1)" offset="100%"/></linearGradient></defs><path style="transform:translate(0, 0px); opacity:1" fill="url(#sw-gradient-0)" d="M0,245L80,269.5C160,294,320,343,480,310.3C640,278,800,163,960,98C1120,33,1280,16,1440,81.7C1600,147,1760,294,1920,318.5C2080,343,2240,245,2400,196C2560,147,2720,147,2880,187.8C3040,229,3200,310,3360,334.8C3520,359,3680,327,3840,294C4000,261,4160,229,4320,204.2C4480,180,4640,163,4800,155.2C4960,147,5120,147,5280,155.2C5440,163,5600,180,5760,187.8C5920,196,6080,196,6240,204.2C6400,212,6560,229,6720,261.3C6880,294,7040,343,7200,367.5C7360,392,7520,392,7680,392C7840,392,8000,392,8160,400.2C8320,408,8480,425,8640,432.8C8800,441,8960,441,9120,408.3C9280,376,9440,310,9600,285.8C9760,261,9920,278,10080,310.3C10240,343,10400,392,10560,416.5C10720,441,10880,441,11040,367.5C11200,294,11360,147,11440,73.5L11520,0L11520,490L11440,490C11360,490,11200,490,11040,490C10880,490,10720,490,10560,490C10400,490,10240,490,10080,490C9920,490,9760,490,9600,490C9440,490,9280,490,9120,490C8960,490,8800,490,8640,490C8480,490,8320,490,8160,490C8000,490,7840,490,7680,490C7520,490,7360,490,7200,490C7040,490,6880,490,6720,490C6560,490,6400,490,6240,490C6080,490,5920,490,5760,490C5600,490,5440,490,5280,490C5120,490,4960,490,4800,490C4640,490,4480,490,4320,490C4160,490,4000,490,3840,490C3680,490,3520,490,3360,490C3200,490,3040,490,2880,490C2720,490,2560,490,2400,490C2240,490,2080,490,1920,490C1760,490,1600,490,1440,490C1280,490,1120,490,960,490C800,490,640,490,480,490C320,490,160,490,80,490L0,490Z"/><defs><linearGradient id="sw-gradient-1" x1="0" x2="0" y1="1" y2="0"><stop stop-color="rgba(243, 106, 62, 1)" offset="0%"/><stop stop-color="rgba(255, 179, 11, 1)" offset="100%"/></linearGradient></defs><path style="transform:translate(0, 50px); opacity:0.9" fill="url(#sw-gradient-1)" d="M0,245L80,253.2C160,261,320,278,480,285.8C640,294,800,294,960,245C1120,196,1280,98,1440,89.8C1600,82,1760,163,1920,220.5C2080,278,2240,310,2400,269.5C2560,229,2720,114,2880,89.8C3040,65,3200,131,3360,196C3520,261,3680,327,3840,310.3C4000,294,4160,196,4320,196C4480,196,4640,294,4800,277.7C4960,261,5120,131,5280,98C5440,65,5600,131,5760,196C5920,261,6080,327,6240,326.7C6400,327,6560,261,6720,253.2C6880,245,7040,294,7200,310.3C7360,327,7520,310,7680,253.2C7840,196,8000,98,8160,114.3C8320,131,8480,261,8640,285.8C8800,310,8960,229,9120,179.7C9280,131,9440,114,9600,147C9760,180,9920,261,10080,302.2C10240,343,10400,343,10560,359.3C10720,376,10880,408,11040,383.8C11200,359,11360,278,11440,236.8L11520,196L11520,490L11440,490C11360,490,11200,490,11040,490C10880,490,10720,490,10560,490C10400,490,10240,490,10080,490C9920,490,9760,490,9600,490C9440,490,9280,490,9120,490C8960,490,8800,490,8640,490C8480,490,8320,490,8160,490C8000,490,7840,490,7680,490C7520,490,7360,490,7200,490C7040,490,6880,490,6720,490C6560,490,6400,490,6240,490C6080,490,5920,490,5760,490C5600,490,5440,490,5280,490C5120,490,4960,490,4800,490C4640,490,4480,490,4320,490C4160,490,4000,490,3840,490C3680,490,3520,490,3360,490C3200,490,3040,490,2880,490C2720,490,2560,490,2400,490C2240,490,2080,490,1920,490C1760,490,1600,490,1440,490C1280,490,1120,490,960,490C800,490,640,490,480,490C320,490,160,490,80,490L0,490Z"/></svg>