<svg width="1440" height="215" viewBox="0 0 1440 215" fill="none" xmlns="http://www.w3.org/2000/svg">
<g clip-path="url(#clip0_8_11)">
<path d="M0 137.5L81.7844 151.25C163.569 165 327.137 192.5 490.706 174.148C654.275 156.02 817.844 91.4796 981.412 55C1144.98 18.5204 1308.55 8.97959 1472.12 45.852C1635.69 82.5 1799.26 165 1962.82 178.75C2126.39 192.5 2289.96 137.5 2453.53 110C2617.1 82.5 2780.67 82.5 2944.24 105.398C3107.81 128.52 3271.37 173.98 3434.94 187.898C3598.51 201.48 3762.08 183.52 3925.65 165C4089.22 146.48 4252.79 128.52 4416.36 114.602C4579.92 101.02 4743.49 91.4796 4907.06 87.102C5070.63 82.5 5234.2 82.5 5397.77 87.102C5561.34 91.4796 5724.91 101.02 5888.47 105.398C6052.04 110 6215.61 110 6379.18 114.602C6542.75 118.98 6706.32 128.52 6869.89 146.648C7033.46 165 7197.02 192.5 7360.59 206.25C7524.16 220 7687.73 220 7851.3 220C8014.87 220 8178.44 220 8342.01 224.602C8505.57 228.98 8669.14 238.52 8832.71 242.898C8996.28 247.5 9159.85 247.5 9323.42 229.148C9486.99 211.02 9650.56 173.98 9814.12 160.398C9977.69 146.48 10141.3 156.02 10304.8 174.148C10468.4 192.5 10632 220 10795.5 233.75C10959.1 247.5 11122.7 247.5 11286.2 206.25C11449.8 165 11613.4 82.5 11695.2 41.25L11776.9 0V275H11695.2C11613.4 275 11449.8 275 11286.2 275C11122.7 275 10959.1 275 10795.5 275C10632 275 10468.4 275 10304.8 275C10141.3 275 9977.69 275 9814.12 275C9650.56 275 9486.99 275 9323.42 275C9159.85 275 8996.28 275 8832.71 275C8669.14 275 8505.57 275 8342.01 275C8178.44 275 8014.87 275 7851.3 275C7687.73 275 7524.16 275 7360.59 275C7197.02 275 7033.46 275 6869.89 275C6706.32 275 6542.75 275 6379.18 275C6215.61 275 6052.04 275 5888.47 275C5724.91 275 5561.34 275 5397.77 275C5234.2 275 5070.63 275 4907.06 275C4743.49 275 4579.92 275 4416.36 275C4252.79 275 4089.22 275 3925.65 275C3762.08 275 3598.51 275 3434.94 275C3271.37 275 3107.81 275 2944.24 275C2780.67 275 2617.1 275 2453.53 275C2289.96 275 2126.39 275 1962.82 275C1799.26 275 1635.69 275 1472.12 275C1308.55 275 1144.98 275 981.412 275C817.844 275 654.275 275 490.706 275C327.137 275 163.569 275 81.7844 275H0V137.5Z" fill="url(#paint0_linear_8_11)"/>
<path opacity="0.9" d="M0 137.5L81.7844 142.102C163.569 146.48 327.137 156.02 490.706 160.398C654.275 165 817.844 165 981.412 137.5C1144.98 110 1308.55 55 1472.12 50.398C1635.69 46.0204 1799.26 91.4796 1962.82 123.75C2126.39 156.02 2289.96 173.98 2453.53 151.25C2617.1 128.52 2780.67 63.9796 2944.24 50.398C3107.81 36.4796 3271.37 73.5204 3434.94 110C3598.51 146.48 3762.08 183.52 3925.65 174.148C4089.22 165 4252.79 110 4416.36 110C4579.92 110 4743.49 165 4907.06 155.852C5070.63 146.48 5234.2 73.5204 5397.77 55C5561.34 36.4796 5724.91 73.5204 5888.47 110C6052.04 146.48 6215.61 183.52 6379.18 183.352C6542.75 183.52 6706.32 146.48 6869.89 142.102C7033.46 137.5 7197.02 165 7360.59 174.148C7524.16 183.52 7687.73 173.98 7851.3 142.102C8014.87 110 8178.44 55 8342.01 64.148C8505.57 73.5204 8669.14 146.48 8832.71 160.398C8996.28 173.98 9159.85 128.52 9323.42 100.852C9486.99 73.5204 9650.56 63.9796 9814.12 82.5C9977.69 101.02 10141.3 146.48 10304.8 169.602C10468.4 192.5 10632 192.5 10795.5 201.648C10959.1 211.02 11122.7 228.98 11286.2 215.398C11449.8 201.48 11613.4 156.02 11695.2 132.898L11776.9 110V275H11695.2C11613.4 275 11449.8 275 11286.2 275C11122.7 275 10959.1 275 10795.5 275C10632 275 10468.4 275 10304.8 275C10141.3 275 9977.69 275 9814.12 275C9650.56 275 9486.99 275 9323.42 275C9159.85 275 8996.28 275 8832.71 275C8669.14 275 8505.57 275 8342.01 275C8178.44 275 8014.87 275 7851.3 275C7687.73 275 7524.16 275 7360.59 275C7197.02 275 7033.46 275 6869.89 275C6706.32 275 6542.75 275 6379.18 275C6215.61 275 6052.04 275 5888.47 275C5724.91 275 5561.34 275 5397.77 275C5234.2 275 5070.63 275 4907.06 275C4743.49 275 4579.92 275 4416.36 275C4252.79 275 4089.22 275 3925.65 275C3762.08 275 3598.51 275 3434.94 275C3271.37 275 3107.81 275 2944.24 275C2780.67 275 2617.1 275 2453.53 275C2289.96 275 2126.39 275 1962.82 275C1799.26 275 1635.69 275 1472.12 275C1308.55 275 1144.98 275 981.412 275C817.844 275 654.275 275 490.706 275C327.137 275 163.569 275 81.7844 275H0V137.5Z" fill="url(#paint1_linear_8_11)"/>
</g>
<defs>
<linearGradient id="paint0_linear_8_11" x1="0" y1="275" x2="0" y2="0" gradientUnits="userSpaceOnUse">
<stop stop-color="#F36A3E"/>
<stop offset="1" stop-color="#FFB30B"/>
</linearGradient>
<linearGradient id="paint1_linear_8_11" x1="0" y1="275" x2="0" y2="47.3998" gradientUnits="userSpaceOnUse">
<stop stop-color="#F36A3E"/>
<stop offset="1" stop-color="#FFB30B"/>
</linearGradient>
<clipPath id="clip0_8_11">
<rect width="1472.12" height="275" fill="white"/>
</clipPath>
</defs>
</svg>
